SplineFontDB: 3.2
FontName: Arcaic_CL
FullName: Arcaic Clock Ligatures
FamilyName: Arcaic
Weight: Regular
Copyright: Copyright (c) 2024, 1571
UComments: "2024-6-13: Created with FontForge (http://fontforge.org)"
Version: 001.000
ItalicAngle: 0
UnderlinePosition: -100
UnderlineWidth: 50
Ascent: 581
Descent: 419
InvalidEm: 0
LayerCount: 2
Layer: 0 0 "Back" 1
Layer: 1 0 "Fore" 0
XUID: [1021 3 -2137925857 14490]
StyleMap: 0x0000
FSType: 0
OS2Version: 5
OS2_WeightWidthSlopeOnly: 0
OS2_UseTypoMetrics: 1
CreationTime: 1718318513
ModificationTime: 1719886005
PfmFamily: 17
TTFWeight: 400
TTFWidth: 5
LineGap: 90
VLineGap: 90
OS2TypoAscent: 0
OS2TypoAOffset: 1
OS2TypoDescent: 0
OS2TypoDOffset: 1
OS2TypoLinegap: 90
OS2WinAscent: 0
OS2WinAOffset: 1
OS2WinDescent: 0
OS2WinDOffset: 1
HheadAscent: 0
HheadAOffset: 1
HheadDescent: 0
HheadDOffset: 1
OS2Vendor: 'PfEd'
Lookup: 1 0 0 "CLOCK_LIG_1" { "CLOCK_LIG_1 subtable"  } []
Lookup: 1 0 0 "CLOCK_LIG_2" { "CLOCK_LIG_2 subtable"  } []
Lookup: 1 0 0 "ALL_LOWERCASE" { "ALL_LOWERCASE subtable"  } ['liga' ('latn' <'dflt' > 'DFLT' <'dflt' > ) ]
Lookup: 6 0 0 "CLOCK_LIGATURES" { "CLOCK_LIGATURES subtable"  } ['liga' ('latn' <'dflt' > 'DFLT' <'dflt' > ) ]
Lookup: 4 0 1 "PAIR_CLOCK_LIGATURES" { "PAIR_CLOCK_LIGATURES subtable"  } ['liga' ('latn' <'dflt' > 'DFLT' <'dflt' > ) ]
Lookup: 2 0 0 "REMOVE_BACKSLASH" { "REMOVE_BACKSLASH subtable"  } ['liga' ('latn' <'dflt' > 'DFLT' <'dflt' > ) ]
Lookup: 6 0 0 "ISOLATED" { "ISOLATED contextual 0"  "ISOLATED contextual 1"  "ISOLATED contextual 2"  } ['liga' ('latn' <'dflt' > 'DFLT' <'dflt' > ) ]
Lookup: 1 0 0 "Single Substitution lookup 7" { "Single Substitution lookup 7 subtable"  } []
Lookup: 6 0 0 "FINAL" { "FINAL contextual 0"  "FINAL contextual 1"  } ['liga' ('latn' <'dflt' > 'DFLT' <'dflt' > ) ]
Lookup: 1 0 0 "Single Substitution lookup 9" { "Single Substitution lookup 9 subtable"  } []

StartChar: b
Encoding: 39 98 0
Width: 516
Flags: W
HStem: -32.2695 64.5<0 81.0918 435.545 520> 451.659 64.5<128.365 388.271>
LayerCount: 2
Fore
SplineSet
48.3857421875 516.159179688 m 1
 468.250976562 516.159179688 l 1
 468.250976562 451.659179688 l 1
 298.2890625 219.618164062 l 1
 435.544921875 32.23046875 l 1
 520 32.23046875 l 5
 520 -32.26953125 l 5
 402.837890625 -32.26953125 l 1
 258.318359375 165.041015625 l 1
 113.798828125 -32.26953125 l 1
 0 -32.26953125 l 1
 0 0 l 1
 0 32.23046875 l 1
 81.091796875 32.23046875 l 1
 218.34765625 219.618164062 l 1
 48.3857421875 451.659179688 l 1
 48.3857421875 516.159179688 l 1
128.365234375 451.659179688 m 1
 258.318359375 274.1953125 l 1
 388.271484375 451.659179688 l 1
 128.365234375 451.659179688 l 1
EndSplineSet
Validated: 1
Substitution2: "Single Substitution lookup 11 subtable" b.init
Substitution2: "Single Substitution lookup 9 subtable" b.fina
Substitution2: "Single Substitution lookup 7 subtable" b.isol
EndChar

StartChar: g
Encoding: 44 103 1
Width: 677
Flags: W
HStem: -32.2705 64.5<0 197.39 480.119 681> 290.35 64.5<122.888 554.621>
LayerCount: 2
Fore
SplineSet
48.384765625 354.849609375 m 1
 629.124023438 354.849609375 l 1
 629.124023438 290.349609375 l 1
 480.119140625 32.2294921875 l 1
 681 32.2294921875 l 5
 681 -32.2705078125 l 5
 405.576171875 -32.2705078125 l 1
 405.576171875 32.2294921875 l 1
 554.62109375 290.349609375 l 1
 122.887695312 290.349609375 l 1
 271.932617188 32.2294921875 l 1
 271.932617188 -32.2705078125 l 1
 0 -32.2705078125 l 1
 0 0 l 1
 0 32.2294921875 l 1
 197.389648438 32.2294921875 l 1
 48.384765625 290.349609375 l 1
 48.384765625 354.849609375 l 1
EndSplineSet
Validated: 1
Substitution2: "Single Substitution lookup 11 subtable" g.init
Substitution2: "Single Substitution lookup 9 subtable" g.fina
Substitution2: "Single Substitution lookup 7 subtable" g.isol
EndChar

StartChar: d
Encoding: 41 100 2
Width: 257
Flags: W
HStem: -32.2695 64.5<0 96.7705 161.31 261> 496.159 20G<96.7705 161.31>
VStem: 96.7705 64.5391<32.2305 516.159>
LayerCount: 2
Fore
SplineSet
0 32.23046875 m 1
 96.7705078125 32.23046875 l 1
 96.7705078125 516.159179688 l 1
 161.309570312 516.159179688 l 1
 161.309570312 32.23046875 l 1
 261 32.23046875 l 5
 261 -32.26953125 l 5
 0 -32.26953125 l 1
 0 0 l 1
 0 32.23046875 l 1
EndSplineSet
Validated: 1
Substitution2: "Single Substitution lookup 11 subtable" d.init
Substitution2: "Single Substitution lookup 9 subtable" d.fina
Substitution2: "Single Substitution lookup 7 subtable" d.isol
EndChar

StartChar: f
Encoding: 43 102 3
Width: 366
Flags: W
HStem: -32.2705 64.501<0 48.3857 112.925 241.688 318.214 370> 334.85 20G<48.3857 125.651> 334.85 20G<48.3857 125.651>
VStem: 48.3857 64.5391<-234.661 -32.2705 32.2305 234.621>
LayerCount: 2
Fore
SplineSet
48.3857421875 354.849609375 m 1xd0
 112.924804688 354.849609375 l 1
 318.213867188 32.23046875 l 1
 370 32.23046875 l 5
 370 -32.2705078125 l 5
 318.213867188 -32.2705078125 l 1
 112.924804688 -354.889648438 l 1
 48.3857421875 -354.889648438 l 1
 48.3857421875 -32.2705078125 l 1
 0 -32.2705078125 l 1
 0 0 l 1
 0 32.23046875 l 1
 48.3857421875 32.23046875 l 1
 48.3857421875 354.849609375 l 1xd0
112.924804688 234.62109375 m 1
 112.924804688 32.23046875 l 1
 241.6875 32.23046875 l 1
 112.924804688 234.62109375 l 1
112.924804688 -32.2705078125 m 1
 112.924804688 -234.661132812 l 1
 241.6875 -32.2705078125 l 1
 112.924804688 -32.2705078125 l 1
EndSplineSet
Validated: 1
Substitution2: "Single Substitution lookup 11 subtable" f.init
Substitution2: "Single Substitution lookup 9 subtable" f.fina
Substitution2: "Single Substitution lookup 7 subtable" f.isol
EndChar

StartChar: j
Encoding: 47 106 5
Width: 644
Flags: W
HStem: -32.2695 64.5<0 209.695 435.545 648> 209.694 64.501<125.944 209.695 274.235 371.005 435.545 519.296> 496.159 20G<196.362 274.235 371.005 448.878>
VStem: 209.695 64.54<32.2305 209.694 274.195 399.861> 371.005 64.54<32.2305 209.694 274.195 399.861>
LayerCount: 2
Fore
SplineSet
209.6953125 516.159179688 m 1
 274.235351562 516.159179688 l 1
 274.235351562 274.1953125 l 1
 371.004882812 274.1953125 l 1
 371.004882812 516.159179688 l 1
 435.544921875 516.159179688 l 1
 596.854492188 274.1953125 l 1
 596.854492188 209.694335938 l 1
 435.544921875 209.694335938 l 1
 435.544921875 32.23046875 l 1
 648 32.23046875 l 5
 648 -32.26953125 l 5
 371.004882812 -32.26953125 l 1
 371.004882812 209.694335938 l 1
 274.235351562 209.694335938 l 1
 274.235351562 -32.26953125 l 1
 0 -32.26953125 l 1
 0 0 l 1
 0 32.23046875 l 1
 209.6953125 32.23046875 l 1
 209.6953125 209.694335938 l 1
 48.3857421875 209.694335938 l 1
 48.3857421875 274.1953125 l 1
 209.6953125 516.159179688 l 1
209.6953125 399.861328125 m 1
 125.944335938 274.1953125 l 1
 209.6953125 274.1953125 l 1
 209.6953125 399.861328125 l 1
435.544921875 399.861328125 m 1
 435.544921875 274.1953125 l 1
 519.295898438 274.1953125 l 1
 435.544921875 399.861328125 l 1
EndSplineSet
Validated: 1
Substitution2: "Single Substitution lookup 11 subtable" j.init
Substitution2: "Single Substitution lookup 9 subtable" j.fina
Substitution2: "Single Substitution lookup 7 subtable" j.isol
EndChar

StartChar: l
Encoding: 49 108 6
Width: 366
Flags: W
HStem: -32.2705 64.501<0 48.3857 112.925 241.727 318.214 370> 334.85 20G<48.3857 125.651> 334.85 20G<48.3857 125.651>
VStem: 48.3857 64.5391<-354.89 -32.2705 32.2305 234.621>
LayerCount: 2
Fore
SplineSet
48.3857421875 354.849609375 m 1xd0
 112.924804688 354.849609375 l 1
 318.213867188 32.23046875 l 1
 370 32.23046875 l 5
 370 -32.2705078125 l 5
 112.924804688 -32.2705078125 l 1
 112.924804688 -354.889648438 l 1
 48.3857421875 -354.889648438 l 1
 48.3857421875 -32.2705078125 l 1
 0 -32.2705078125 l 1
 0 0 l 1
 0 32.23046875 l 1
 48.3857421875 32.23046875 l 1
 48.3857421875 354.849609375 l 1xd0
112.924804688 234.62109375 m 1
 112.924804688 32.23046875 l 1
 241.7265625 32.23046875 l 1
 112.924804688 234.62109375 l 1
EndSplineSet
Validated: 1
Substitution2: "Single Substitution lookup 11 subtable" l.init
Substitution2: "Single Substitution lookup 9 subtable" l.fina
Substitution2: "Single Substitution lookup 7 subtable" l.isol
EndChar

StartChar: a
Encoding: 38 97 7
Width: 644
Flags: W
HStem: -32.2695 64.5<0 146.307 231.704 413.536 499.212 648> 451.659 64.5<233.183 412.058>
VStem: 48.3857 64.5391<150.648 331.384> 532.315 64.5391<150.668 331.384>
LayerCount: 2
Fore
SplineSet
322.620117188 516.159179688 m 0
 474.0859375 516.159179688 596.854492188 393.390625 596.854492188 241.96484375 c 0
 596.815429688 161.071289062 561.091796875 84.3466796875 499.211914062 32.23046875 c 1
 648 32.23046875 l 1
 648 -32.26953125 l 5
 322.620117188 -32.26953125 l 1
 0 -32.26953125 l 1
 0 0 l 1
 0 32.23046875 l 1
 146.306640625 32.23046875 l 1
 84.3466796875 84.2666015625 48.5048828125 161.032226562 48.3857421875 241.96484375 c 0
 48.3857421875 393.390625 171.154296875 516.159179688 322.620117188 516.159179688 c 0
322.620117188 451.659179688 m 0
 206.797851562 451.659179688 112.924804688 357.747070312 112.924804688 241.96484375 c 0
 112.924804688 126.142578125 206.797851562 32.23046875 322.620117188 32.23046875 c 0
 438.442382812 32.23046875 532.315429688 126.142578125 532.315429688 241.96484375 c 0
 532.315429688 357.747070312 438.442382812 451.659179688 322.620117188 451.659179688 c 0
EndSplineSet
Validated: 1
Substitution2: "Single Substitution lookup 11 subtable" a.init
Substitution2: "Single Substitution lookup 9 subtable" a.fina
Substitution2: "Single Substitution lookup 7 subtable" a.isol
Substitution2: "CLOCK_LIG_2 subtable" a.lig2
Substitution2: "CLOCK_LIG_1 subtable" a.lig1
EndChar

StartChar: k
Encoding: 48 107 8
Width: 461
Flags: W
HStem: -32.2705 64.501<0 48.3848 413.793 465> 334.85 20G<189.494 263.358> 334.85 20G<189.494 263.358>
VStem: 198.819 64.5391<-202.232 202.192>
LayerCount: 2
Fore
SplineSet
0 32.23046875 m 1xd0
 48.384765625 32.23046875 l 1
 198.819335938 354.849609375 l 1
 263.358398438 354.849609375 l 1
 263.358398438 -202.232421875 l 1
 372.671875 32.23046875 l 1
 465 32.23046875 l 5
 465 -32.2705078125 l 5
 413.79296875 -32.2705078125 l 1
 263.358398438 -354.889648438 l 1
 198.819335938 -354.889648438 l 1
 198.819335938 202.192382812 l 1
 89.505859375 -32.2705078125 l 1
 0 -32.2705078125 l 1
 0 0 l 1
 0 32.23046875 l 1xd0
EndSplineSet
Validated: 1
Substitution2: "Single Substitution lookup 11 subtable" k.init
Substitution2: "Single Substitution lookup 9 subtable" k.fina
Substitution2: "Single Substitution lookup 7 subtable" k.isol
EndChar

StartChar: e
Encoding: 42 101 9
Width: 644
Flags: W
HStem: -32.2695 64.5<0 146.307 499.212 648> 449.119 67.04<228.325 290.351 354.89 416.915>
VStem: 48.3857 64.5391<150.785 331.246> 290.351 64.5391<34.8105 449.079> 532.315 64.5391<150.805 331.245>
LayerCount: 2
Fore
SplineSet
322.620117188 516.159179688 m 0
 474.0859375 516.159179688 596.854492188 393.390625 596.854492188 241.96484375 c 0
 596.815429688 161.071289062 561.091796875 84.3466796875 499.211914062 32.23046875 c 1
 648 32.23046875 l 5
 648 -32.26953125 l 5
 0 -32.26953125 l 1
 0 0 l 1
 0 32.23046875 l 1
 146.306640625 32.23046875 l 1
 84.3466796875 84.2666015625 48.5048828125 161.032226562 48.3857421875 241.96484375 c 0
 48.3857421875 393.390625 171.154296875 516.159179688 322.620117188 516.159179688 c 0
290.350585938 449.119140625 m 1
 188.26171875 433.202148438 112.924804688 345.284179688 112.924804688 241.96484375 c 0
 112.924804688 138.60546875 188.26171875 50.6875 290.350585938 34.7705078125 c 1
 290.350585938 449.119140625 l 1
354.889648438 449.079101562 m 1
 354.889648438 34.810546875 l 1
 456.978515625 50.6875 532.275390625 138.60546875 532.315429688 241.96484375 c 0
 532.275390625 345.284179688 456.978515625 433.202148438 354.889648438 449.079101562 c 1
EndSplineSet
Validated: 1
Substitution2: "Single Substitution lookup 11 subtable" e.init
Substitution2: "Single Substitution lookup 9 subtable" e.fina
Substitution2: "Single Substitution lookup 7 subtable" e.isol
Substitution2: "CLOCK_LIG_2 subtable" e.lig2
Substitution2: "CLOCK_LIG_1 subtable" e.lig1
EndChar

StartChar: i
Encoding: 46 105 10
Width: 644
Flags: W
HStem: -32.2695 64.5<0.106156 146.307 231.738 415.224 499.212 648> 451.659 64.5<232.362 412.017>
VStem: 48.3857 64.5391<151.466 332.21> 532.315 64.5391<150.628 331.351>
LayerCount: 2
Fore
SplineSet
322.620117188 516.159179688 m 0
 473.966796875 516.159179688 596.854492188 393.311523438 596.854492188 241.96484375 c 0
 596.815429688 157.81640625 558.98828125 82.560546875 499.211914062 32.23046875 c 1
 648 32.23046875 l 5
 648 -32.26953125 l 5
 322.620117188 -32.26953125 l 1
 0 -32.26953125 l 1
 0 0 l 1
 0 32.23046875 l 1
 0 32.23046875 146.46484375 32.1904296875 146.306640625 32.23046875 c 0
 86.4501953125 82.48046875 48.5048828125 157.77734375 48.3857421875 241.96484375 c 0
 48.3857421875 393.311523438 171.2734375 516.159179688 322.620117188 516.159179688 c 0
322.620117188 451.659179688 m 0
 276.458007812 451.620117188 233.58984375 436.576171875 198.938476562 411.252929688 c 1
 198.938476562 411.252929688 492.02734375 118.481445312 491.908203125 118.283203125 c 1
 517.231445312 152.934570312 532.315429688 195.802734375 532.315429688 241.96484375 c 0
 532.315429688 357.66796875 438.36328125 451.659179688 322.620117188 451.659179688 c 0
153.33203125 365.606445312 m 1
 128.008789062 330.995117188 112.924804688 288.086914062 112.924804688 241.96484375 c 0
 112.924804688 126.221679688 206.876953125 32.23046875 322.620117188 32.23046875 c 0
 368.782226562 32.26953125 411.650390625 47.3134765625 446.301757812 72.6767578125 c 1
 153.33203125 365.606445312 l 1
EndSplineSet
Validated: 33
Substitution2: "Single Substitution lookup 11 subtable" i.init
Substitution2: "Single Substitution lookup 9 subtable" i.fina
Substitution2: "Single Substitution lookup 7 subtable" i.isol
Substitution2: "CLOCK_LIG_2 subtable" i.lig2
Substitution2: "CLOCK_LIG_1 subtable" i.lig1
EndChar

StartChar: m
Encoding: 50 109 11
Width: 322
Flags: W
HStem: -32.2695 64.5<0 209.694 274.234 326> 334.85 181.31G<48.3848 88.399> 334.85 20G<48.3848 88.385>
VStem: 209.694 64.54<32.2305 202.074 274.195 363.384>
LayerCount: 2
Fore
SplineSet
0 32.23046875 m 1xd0
 209.694335938 32.23046875 l 1
 209.694335938 202.07421875 l 1
 48.384765625 282.728515625 l 1
 48.384765625 354.849609375 l 1xb0
 209.694335938 274.1953125 l 1
 209.694335938 363.383789062 l 1
 48.384765625 444.0390625 l 1
 48.384765625 516.159179688 l 1
 274.234375 403.274414062 l 1
 274.234375 32.23046875 l 1
 326 32.23046875 l 5
 326 -32.26953125 l 5
 0 -32.26953125 l 1
 0 0 l 1
 0 32.23046875 l 1xd0
EndSplineSet
Validated: 1
Substitution2: "Single Substitution lookup 11 subtable" m.init
Substitution2: "Single Substitution lookup 9 subtable" m.fina
Substitution2: "Single Substitution lookup 7 subtable" m.isol
EndChar

StartChar: s
Encoding: 56 115 12
Width: 513
Flags: W
HStem: -32.2695 64.5<0 48.3857 466.028 517> 496.159 20G<48.3857 141.179>
LayerCount: 2
Fore
SplineSet
0 32.23046875 m 1
 48.3857421875 32.23046875 l 1
 217.83203125 274.1953125 l 1
 48.3857421875 516.159179688 l 1
 127.174804688 516.159179688 l 1
 466.028320312 32.23046875 l 1
 517 32.23046875 l 5
 517 -32.26953125 l 5
 432.409179688 -32.26953125 l 1
 257.20703125 217.951171875 l 1
 81.96484375 -32.26953125 l 1
 0 -32.26953125 l 1
 0 0 l 1
 0 32.23046875 l 1
EndSplineSet
Validated: 1
Substitution2: "Single Substitution lookup 11 subtable" s.init
Substitution2: "Single Substitution lookup 9 subtable" s.fina
Substitution2: "Single Substitution lookup 7 subtable" s.isol
EndChar

StartChar: p
Encoding: 53 112 13
Width: 402
Flags: W
HStem: -32.2695 64.5<0 48.3857 354.89 406> 209.694 64.501<177.426 263.598> 496.159 20G<48.3857 132.925>
VStem: 0 112.925<-32.2695 32.2305> 48.3857 64.5391<32.2305 182.981 274.195 424.907>
LayerCount: 2
Fore
SplineSet
48.3857421875 516.159179688 m 1xe8
 112.924804688 516.159179688 l 1
 354.889648438 274.1953125 l 1
 354.889648438 209.694335938 l 1
 177.42578125 209.694335938 l 1
 354.889648438 32.23046875 l 1
 406 32.23046875 l 5
 406 -32.26953125 l 5
 328.176757812 -32.26953125 l 1
 112.924804688 182.981445312 l 1xe8
 112.924804688 -32.26953125 l 1
 0 -32.26953125 l 1
 0 0 l 1
 0 32.23046875 l 1xf0
 48.3857421875 32.23046875 l 1
 48.3857421875 516.159179688 l 1xe8
112.924804688 424.907226562 m 1
 112.924804688 274.1953125 l 1
 263.59765625 274.1953125 l 1
 112.924804688 424.907226562 l 1
EndSplineSet
Validated: 1
Substitution2: "Single Substitution lookup 11 subtable" p.init
Substitution2: "Single Substitution lookup 9 subtable" p.fina
Substitution2: "Single Substitution lookup 7 subtable" p.isol
EndChar

StartChar: o
Encoding: 52 111 14
Width: 644
Flags: W
HStem: -32.2695 64.5<0.106156 146.307 230.016 413.502 499.212 648> 451.659 64.5<233.223 412.879>
VStem: 48.3857 64.5391<150.609 331.351> 532.315 64.5391<151.485 332.21>
LayerCount: 2
Fore
SplineSet
322.620117188 516.159179688 m 0
 473.966796875 516.159179688 596.854492188 393.311523438 596.854492188 241.96484375 c 0
 596.815429688 157.81640625 558.98828125 82.560546875 499.211914062 32.23046875 c 1
 648 32.23046875 l 5
 648 -32.26953125 l 5
 322.620117188 -32.26953125 l 1
 0 -32.26953125 l 1
 0 0 l 1
 0 32.23046875 l 1
 0 32.23046875 146.46484375 32.1904296875 146.306640625 32.23046875 c 0
 86.4501953125 82.48046875 48.5048828125 157.77734375 48.3857421875 241.96484375 c 0
 48.3857421875 393.311523438 171.2734375 516.159179688 322.620117188 516.159179688 c 0
322.620117188 451.659179688 m 0
 206.876953125 451.659179688 112.924804688 357.66796875 112.924804688 241.96484375 c 0
 112.924804688 195.802734375 128.008789062 152.934570312 153.33203125 118.283203125 c 1
 153.33203125 118.283203125 446.103515625 411.33203125 446.301757812 411.252929688 c 1
 411.650390625 436.576171875 368.782226562 451.620117188 322.620117188 451.659179688 c 0
491.908203125 365.606445312 m 1
 491.908203125 365.606445312 199.13671875 72.5576171875 198.938476562 72.6767578125 c 1
 233.58984375 47.3134765625 276.458007812 32.26953125 322.620117188 32.23046875 c 0
 438.36328125 32.23046875 532.315429688 126.221679688 532.315429688 241.96484375 c 0
 532.315429688 288.086914062 517.231445312 330.995117188 491.908203125 365.606445312 c 1
EndSplineSet
Validated: 33
Substitution2: "Single Substitution lookup 11 subtable" o.init
Substitution2: "Single Substitution lookup 9 subtable" o.fina
Substitution2: "Single Substitution lookup 7 subtable" o.isol
Substitution2: "CLOCK_LIG_2 subtable" o.lig2
Substitution2: "CLOCK_LIG_1 subtable" o.lig1
EndChar

StartChar: u
Encoding: 58 117 15
Width: 644
Flags: W
HStem: -32.2695 64.5<0.106156 146.307 230.016 415.224 499.212 648> 451.659 64.5<232.369 412.879>
VStem: 48.3857 64.5391<150.609 332.202> 532.315 64.5391<150.628 332.21>
LayerCount: 2
Fore
SplineSet
322.620117188 516.159179688 m 0
 473.966796875 516.159179688 596.854492188 393.311523438 596.854492188 241.96484375 c 0
 596.815429688 157.81640625 558.98828125 82.560546875 499.211914062 32.23046875 c 1
 648 32.23046875 l 5
 648 -32.26953125 l 5
 0 -32.26953125 l 1
 0 0 l 1
 0 32.23046875 l 1
 0 32.23046875 146.46484375 32.1904296875 146.306640625 32.23046875 c 0
 86.4501953125 82.48046875 48.5048828125 157.77734375 48.3857421875 241.96484375 c 0
 48.3857421875 393.311523438 171.2734375 516.159179688 322.620117188 516.159179688 c 0
322.620117188 451.659179688 m 0
 276.458007812 451.620117188 233.58984375 436.576171875 198.978515625 411.252929688 c 1
 322.620117188 287.571289062 l 1
 322.620117188 287.571289062 446.103515625 411.33203125 446.301757812 411.252929688 c 1
 411.650390625 436.576171875 368.782226562 451.620117188 322.620117188 451.659179688 c 0
491.908203125 365.606445312 m 1
 368.2265625 241.96484375 l 1
 368.2265625 241.96484375 492.02734375 118.481445312 491.908203125 118.283203125 c 1
 517.231445312 152.934570312 532.315429688 195.802734375 532.315429688 241.96484375 c 0
 532.315429688 288.086914062 517.231445312 330.995117188 491.908203125 365.606445312 c 1
153.33203125 365.606445312 m 1
 128.008789062 330.955078125 112.924804688 288.086914062 112.924804688 241.96484375 c 0
 112.924804688 195.802734375 128.008789062 152.934570312 153.33203125 118.283203125 c 1
 277.013671875 241.96484375 l 1
 153.33203125 365.606445312 l 1
322.620117188 196.318359375 m 1
 322.620117188 196.318359375 199.13671875 72.5576171875 198.938476562 72.6767578125 c 1
 233.58984375 47.3134765625 276.458007812 32.26953125 322.620117188 32.23046875 c 0
 368.782226562 32.26953125 411.650390625 47.3134765625 446.301757812 72.6767578125 c 1
 322.620117188 196.318359375 l 1
EndSplineSet
Validated: 33
Substitution2: "Single Substitution lookup 11 subtable" u.init
Substitution2: "Single Substitution lookup 9 subtable" u.fina
Substitution2: "Single Substitution lookup 7 subtable" u.isol
Substitution2: "CLOCK_LIG_2 subtable" u.lig2
Substitution2: "CLOCK_LIG_1 subtable" u.lig1
EndChar

StartChar: y
Encoding: 62 121 16
Width: 644
Flags: W
HStem: -32.2695 64.5<0.106156 146.307 231.335 413.897 499.212 648> 209.694 64.501<115.766 529.774> 451.659 64.5<233.021 412.215>
VStem: 529.774 67.0801<147.747 209.694 274.195 336.143>
CounterMasks: 1 e0
LayerCount: 2
Fore
SplineSet
322.620117188 516.159179688 m 0
 473.966796875 516.159179688 596.854492188 393.311523438 596.854492188 241.96484375 c 0
 596.815429688 157.81640625 558.98828125 82.560546875 499.211914062 32.23046875 c 1
 648 32.23046875 l 5
 648 -32.26953125 l 5
 0 -32.26953125 l 1
 0 0 l 1
 0 32.23046875 l 1
 0 32.23046875 146.46484375 32.1904296875 146.306640625 32.23046875 c 0
 86.4501953125 82.48046875 48.5048828125 157.77734375 48.3857421875 241.96484375 c 0
 48.3857421875 393.311523438 171.2734375 516.159179688 322.620117188 516.159179688 c 0
322.620117188 451.659179688 m 0
 217.951171875 451.620117188 131.064453125 374.537109375 115.465820312 274.1953125 c 1
 115.465820312 274.1953125 529.735351562 274.432617188 529.774414062 274.1953125 c 1
 514.135742188 374.537109375 427.2890625 451.620117188 322.620117188 451.659179688 c 0
115.465820312 209.694335938 m 1
 131.064453125 109.352539062 217.951171875 32.26953125 322.620117188 32.23046875 c 0
 427.2890625 32.26953125 514.135742188 109.352539062 529.774414062 209.694335938 c 1
 115.465820312 209.694335938 l 1
EndSplineSet
Validated: 33
Substitution2: "Single Substitution lookup 11 subtable" y.init
Substitution2: "Single Substitution lookup 9 subtable" y.fina
Substitution2: "Single Substitution lookup 7 subtable" y.isol
Substitution2: "CLOCK_LIG_2 subtable" y.lig2
Substitution2: "CLOCK_LIG_1 subtable" y.lig1
EndChar

StartChar: v
Encoding: 59 118 17
Width: 612
Flags: W
HStem: -32.2695 64.5<0 48.3848 564.227 616> 209.694 64.501<232.438 380.213> 496.159 20G<264.748 347.901>
LayerCount: 2
Fore
SplineSet
274.075195312 516.159179688 m 1
 338.575195312 516.159179688 l 1
 564.2265625 32.23046875 l 1
 616 32.23046875 l 5
 616 -32.26953125 l 5
 523.10546875 -32.26953125 l 1
 410.299804688 209.694335938 l 1
 202.311523438 209.694335938 l 1
 89.505859375 -32.26953125 l 1
 0 -32.26953125 l 1
 0 0 l 1
 0 32.23046875 l 1
 48.384765625 32.23046875 l 1
 274.075195312 516.159179688 l 1
306.305664062 432.686523438 m 1
 232.438476562 274.1953125 l 1
 380.212890625 274.1953125 l 1
 306.305664062 432.686523438 l 1
EndSplineSet
Validated: 1
Substitution2: "Single Substitution lookup 11 subtable" v.init
Substitution2: "Single Substitution lookup 9 subtable" v.fina
Substitution2: "Single Substitution lookup 7 subtable" v.isol
EndChar

StartChar: n
Encoding: 51 110 18
Width: 483
Flags: W
HStem: -32.2695 64.5<0 209.695 435.545 487> 334.85 181.31G<48.3848 88.399> 334.85 20G<48.3848 88.3852>
VStem: 209.695 64.5391<32.2305 202.074 274.195 363.384> 371.005 115.995<-32.2695 32.2305> 371.005 64.54<32.2305 153.213>
LayerCount: 2
Fore
SplineSet
0 32.23046875 m 1xd0
 209.6953125 32.23046875 l 1
 209.6953125 202.07421875 l 1
 48.384765625 282.728515625 l 1
 48.384765625 354.849609375 l 1xb0
 209.6953125 274.1953125 l 1
 209.6953125 363.383789062 l 1
 48.384765625 444.0390625 l 1
 48.384765625 516.159179688 l 1
 274.234375 403.274414062 l 1
 274.234375 -32.26953125 l 1
 0 -32.26953125 l 1
 0 0 l 1
 0 32.23046875 l 1xd0
371.004882812 153.212890625 m 1x94
 435.544921875 153.212890625 l 1
 435.544921875 32.23046875 l 1x94
 487 32.23046875 l 5
 487 -32.26953125 l 5
 371.004882812 -32.26953125 l 1x98
 371.004882812 153.212890625 l 1x94
EndSplineSet
Validated: 1
Substitution2: "Single Substitution lookup 11 subtable" n.init
Substitution2: "Single Substitution lookup 9 subtable" n.fina
Substitution2: "Single Substitution lookup 7 subtable" n.isol
EndChar

StartChar: t
Encoding: 57 116 19
Width: 483
Flags: W
HStem: -32.2695 64.5<0 209.695 274.234 487> 290.35 64.5<48.3848 209.695 274.234 435.545> 496.159 20G<209.695 274.234>
VStem: 209.695 64.5391<32.2305 290.35 354.85 516.159>
LayerCount: 2
Fore
SplineSet
0 32.23046875 m 1
 209.6953125 32.23046875 l 1
 209.6953125 290.349609375 l 1
 48.384765625 290.349609375 l 1
 48.384765625 354.849609375 l 1
 209.6953125 354.849609375 l 1
 209.6953125 516.159179688 l 1
 274.234375 516.159179688 l 1
 274.234375 354.849609375 l 1
 435.544921875 354.849609375 l 1
 435.544921875 290.349609375 l 1
 274.234375 290.349609375 l 1
 274.234375 32.23046875 l 1
 487 32.23046875 l 5
 487 -32.26953125 l 5
 0 -32.26953125 l 1
 0 0 l 1
 0 32.23046875 l 1
EndSplineSet
Validated: 1
Substitution2: "Single Substitution lookup 11 subtable" t.init
Substitution2: "Single Substitution lookup 9 subtable" t.fina
Substitution2: "Single Substitution lookup 7 subtable" t.isol
EndChar

StartChar: r
Encoding: 55 114 20
Width: 355
Flags: W
HStem: -32.2695 64.5<0 48.3848 276.497 359> 496.159 20G<48.3848 132.925>
VStem: 0 112.925<-32.2695 32.2305> 48.3848 64.54<32.2305 424.907> 242.123 66.8027<127.098 153.213>
LayerCount: 2
Fore
SplineSet
0 32.23046875 m 1xe8
 48.384765625 32.23046875 l 1
 48.384765625 516.159179688 l 1
 112.924804688 516.159179688 l 1
 308.92578125 320.158203125 l 1
 217.672851562 320.158203125 l 1
 112.924804688 424.907226562 l 1xd8
 112.924804688 -32.26953125 l 1
 0 -32.26953125 l 1
 0 0 l 1
 0 32.23046875 l 1xe8
359 32.23046875 m 1
 359 -32.26953125 l 1
 209.694335938 -32.26953125 l 1
 209.694335938 32.23046875 l 1
 242.123046875 153.212890625 l 1
 308.92578125 153.212890625 l 1
 276.497070312 32.23046875 l 1
 359 32.23046875 l 1
EndSplineSet
Validated: 1
Substitution2: "Single Substitution lookup 11 subtable" r.init
Substitution2: "Single Substitution lookup 9 subtable" r.fina
Substitution2: "Single Substitution lookup 7 subtable" r.isol
EndChar

StartChar: w
Encoding: 60 119 21
Width: 483
Flags: W
HStem: -32.2695 64.5<0 209.695 435.545 487> 209.694 64.501<125.944 209.695 274.234 371.005> 496.159 20G<196.362 274.234>
VStem: 209.695 64.5391<32.2305 209.694 274.195 399.861> 371.005 115.995<-32.2695 32.2305> 371.005 64.54<32.2305 209.694>
LayerCount: 2
Fore
SplineSet
209.6953125 516.159179688 m 1xf4
 274.234375 516.159179688 l 1
 274.234375 274.1953125 l 1
 435.544921875 274.1953125 l 1
 435.544921875 32.23046875 l 1xf4
 487 32.23046875 l 5
 487 -32.26953125 l 5
 371.004882812 -32.26953125 l 1xf8
 371.004882812 209.694335938 l 1
 274.234375 209.694335938 l 1
 274.234375 -32.26953125 l 1
 0 -32.26953125 l 1
 0 0 l 1
 0 32.23046875 l 1
 209.6953125 32.23046875 l 1
 209.6953125 209.694335938 l 1
 48.384765625 209.694335938 l 1
 48.384765625 274.1953125 l 1
 209.6953125 516.159179688 l 1xf4
209.6953125 399.861328125 m 1
 125.944335938 274.1953125 l 1
 209.6953125 274.1953125 l 1
 209.6953125 399.861328125 l 1
EndSplineSet
Validated: 1
Substitution2: "Single Substitution lookup 11 subtable" w.init
Substitution2: "Single Substitution lookup 9 subtable" w.fina
Substitution2: "Single Substitution lookup 7 subtable" w.isol
EndChar

StartChar: h
Encoding: 45 104 22
Width: 483
Flags: W
HStem: -32.2695 64.5<0 209.695 274.234 487> 404.352 111.808G<48.3848 98.4028 209.695 274.234 385.527 435.545>
VStem: 209.695 64.5391<32.2305 290.35 359.851 516.159>
LayerCount: 2
Fore
SplineSet
0 32.23046875 m 1
 209.6953125 32.23046875 l 1
 209.6953125 290.349609375 l 1
 48.384765625 354.849609375 l 1
 48.384765625 424.3515625 l 1
 209.6953125 359.850585938 l 1
 209.6953125 516.159179688 l 1
 274.234375 516.159179688 l 1
 274.234375 359.850585938 l 1
 435.544921875 424.3515625 l 1
 435.544921875 354.849609375 l 1
 274.234375 290.349609375 l 1
 274.234375 32.23046875 l 1
 487 32.23046875 l 5
 487 -32.26953125 l 5
 0 -32.26953125 l 1
 0 0 l 1
 0 32.23046875 l 1
EndSplineSet
Validated: 1
Substitution2: "Single Substitution lookup 11 subtable" h.init
Substitution2: "Single Substitution lookup 9 subtable" h.fina
Substitution2: "Single Substitution lookup 7 subtable" h.isol
EndChar

StartChar: numbersign
Encoding: 3 35 23
Width: 595
Flags: W
HStem: -32.2705 64.5<0 48.3848 259.39 356.159 427.367 599> 290.35 64.5<112.925 476.547>
VStem: 0 112.925<-32.2705 32.2295> 48.3848 64.54<32.2295 290.35>
LayerCount: 2
Fore
SplineSet
0 32.2294921875 m 1xe0
 48.384765625 32.2294921875 l 1
 48.384765625 354.849609375 l 1
 547.71484375 354.849609375 l 1
 547.71484375 290.349609375 l 1
 427.3671875 32.2294921875 l 1
 599 32.2294921875 l 5
 599 -32.2705078125 l 5
 188.181640625 -32.2705078125 l 1
 188.181640625 32.2294921875 l 1
 244.624023438 153.211914062 l 1
 315.791992188 153.211914062 l 1
 259.389648438 32.2294921875 l 1
 356.159179688 32.2294921875 l 1
 476.546875 290.349609375 l 1
 112.924804688 290.349609375 l 1xd0
 112.924804688 -32.2705078125 l 1
 0 -32.2705078125 l 1
 0 0 l 1
 0 32.2294921875 l 1xe0
EndSplineSet
Validated: 1
Substitution2: "Single Substitution lookup 11 subtable" numbersign.init
Substitution2: "Single Substitution lookup 9 subtable" numbersign.fina
Substitution2: "Single Substitution lookup 7 subtable" numbersign.isol
EndChar

StartChar: c
Encoding: 40 99 24
Width: 698
Flags: W
HStem: -32.2695 64.5<0 274.909 423.914 702> 375.455 20G<105.064 151.231 237.31 283.467 415.343 461.514 547.563 593.745>
LayerCount: 2
Fore
SplineSet
139.677734375 395.455078125 m 1
 188.102539062 311.625 l 1
 271.932617188 360.049804688 l 1
 304.163085938 304.163085938 l 1
 220.33203125 255.778320312 l 1
 349.412109375 32.23046875 l 1
 478.452148438 255.778320312 l 1
 394.62109375 304.163085938 l 1
 426.891601562 360.049804688 l 1
 510.721679688 311.625 l 1
 559.106445312 395.455078125 l 1
 614.994140625 363.185546875 l 1
 566.608398438 279.39453125 l 1
 650.399414062 230.969726562 l 1
 618.12890625 175.123046875 l 1
 534.338867188 223.5078125 l 1
 423.9140625 32.23046875 l 1
 702 32.23046875 l 5
 702 -32.26953125 l 5
 0 -32.26953125 l 1
 0 0 l 1
 0 32.23046875 l 1
 274.909179688 32.23046875 l 1
 164.485351562 223.5078125 l 1
 80.6552734375 175.123046875 l 1
 48.384765625 230.969726562 l 1
 132.21484375 279.39453125 l 1
 83.830078125 363.185546875 l 1
 139.677734375 395.455078125 l 1
EndSplineSet
Validated: 1
Substitution2: "Single Substitution lookup 11 subtable" c.init
Substitution2: "Single Substitution lookup 9 subtable" c.fina
Substitution2: "Single Substitution lookup 7 subtable" c.isol
EndChar

StartChar: z
Encoding: 63 122 25
Width: 548
Flags: W
HStem: -32.2705 64.5<0 48.3848 500.044 552> 129.039 64.501<194.212 354.248> 334.85 20G<48.3848 112.925 435.544 500.044> 334.85 20G<48.3848 112.925 435.544 500.044>
VStem: 0 112.925<-32.2705 32.2295> 48.3848 64.54<32.2295 197.032 274.565 354.85> 435.544 116.456<-32.2705 32.2295> 435.544 64.5<32.2295 197.032 274.565 354.85>
LayerCount: 2
Fore
SplineSet
48.384765625 354.849609375 m 1xe4
 112.924804688 354.849609375 l 1
 112.924804688 265.779296875 185.125 193.540039062 274.234375 193.540039062 c 0
 363.303710938 193.540039062 435.543945312 265.779296875 435.543945312 354.849609375 c 1
 500.043945312 354.849609375 l 1
 500.043945312 32.2294921875 l 1xe5
 552 32.2294921875 l 5
 552 -32.2705078125 l 5
 435.543945312 -32.2705078125 l 1xe2
 435.543945312 197.032226562 l 1
 393.11328125 153.609375 334.963867188 129.079101562 274.234375 129.0390625 c 0
 213.504882812 129.079101562 155.35546875 153.609375 112.924804688 197.032226562 c 1xe5
 112.924804688 -32.2705078125 l 1
 0 -32.2705078125 l 1
 0 0 l 1
 0 32.2294921875 l 1xe8
 48.384765625 32.2294921875 l 1
 48.384765625 354.849609375 l 1xe4
EndSplineSet
Validated: 1
Substitution2: "Single Substitution lookup 11 subtable" z.init
Substitution2: "Single Substitution lookup 9 subtable" z.fina
Substitution2: "Single Substitution lookup 7 subtable" z.isol
EndChar

StartChar: x
Encoding: 61 120 26
Width: 548
Flags: W
HStem: -32.2705 64.5<0 48.3848 500.044 552> 131.421 65.373<188.905 241.965 306.504 359.564> 334.85 20G<48.3848 112.925 435.544 500.044> 334.85 20G<48.3848 112.925 435.544 500.044>
VStem: 0 112.925<-32.2705 32.2295> 48.3848 64.54<32.2295 197.032 274.482 354.85> 241.965 64.5391<64.5 135.331 196.794 258.079> 435.544 116.456<-32.2705 32.2295> 435.544 64.5<32.2295 197.032 274.482 354.85>
LayerCount: 2
Fore
SplineSet
48.384765625 354.849609375 m 1xe6
 112.924804688 354.849609375 l 1
 112.924804688 276.814453125 168.334960938 211.71875 241.96484375 196.793945312 c 1
 241.96484375 258.079101562 l 1
 306.50390625 258.079101562 l 1
 306.50390625 196.793945312 l 1
 380.133789062 211.71875 435.543945312 276.814453125 435.543945312 354.849609375 c 1
 500.043945312 354.849609375 l 1
 500.043945312 32.2294921875 l 1xe680
 552 32.2294921875 l 5
 552 -32.2705078125 l 5
 435.543945312 -32.2705078125 l 1xe3
 435.543945312 197.032226562 l 1
 400.694335938 161.348632812 355.24609375 138.486328125 306.50390625 131.420898438 c 2
 306.50390625 64.5 l 1
 241.96484375 64.5 l 1
 241.96484375 131.420898438 l 2
 193.22265625 138.526367188 147.774414062 161.348632812 112.924804688 197.032226562 c 1xe680
 112.924804688 -32.2705078125 l 1
 0 -32.2705078125 l 1
 0 0 l 1
 0 32.2294921875 l 1xea
 48.384765625 32.2294921875 l 1
 48.384765625 354.849609375 l 1xe6
EndSplineSet
Validated: 1
Substitution2: "Single Substitution lookup 11 subtable" x.init
Substitution2: "Single Substitution lookup 9 subtable" x.fina
Substitution2: "Single Substitution lookup 7 subtable" x.isol
EndChar

StartChar: q
Encoding: 54 113 27
Width: 482
Flags: W
HStem: -32.2705 64.5<0 48.3848 209.695 486> 290.35 64.5<112.925 435.545>
VStem: 0 112.925<-32.2705 32.2295> 48.3848 64.54<32.2295 290.35>
LayerCount: 2
Fore
SplineSet
0 32.2294921875 m 1xe0
 48.384765625 32.2294921875 l 1
 48.384765625 354.849609375 l 1
 435.544921875 354.849609375 l 1
 435.544921875 290.349609375 l 1
 112.924804688 290.349609375 l 1xd0
 112.924804688 -32.2705078125 l 1
 0 -32.2705078125 l 1
 0 0 l 1
 0 32.2294921875 l 1xe0
209.6953125 32.2294921875 m 1
 486 32.2294921875 l 5
 486 -32.2705078125 l 5
 209.6953125 -32.2705078125 l 1
 209.6953125 32.2294921875 l 1
EndSplineSet
Validated: 1
Substitution2: "Single Substitution lookup 11 subtable" q.init
Substitution2: "Single Substitution lookup 9 subtable" q.fina
Substitution2: "Single Substitution lookup 7 subtable" q.isol
EndChar

StartChar: comma
Encoding: 5 44 28
Width: 281
Flags: W
HStem: -32.2705 64.501<0 78.1152 169.368 285>
VStem: 0 285<-32.2705 32.2305>
LayerCount: 2
Fore
SplineSet
0 32.23046875 m 1
 285 32.23046875 l 1
 285 -32.2705078125 l 1
 169.368164062 -32.2705078125 l 1
 48.3857421875 -153.252929688 l 1
 48.3857421875 -62 l 1
 78.115234375 -32.2705078125 l 1
 0 -32.2705078125 l 1
 0 0 l 1
 0 32.23046875 l 1
EndSplineSet
Validated: 1
Substitution2: "Single Substitution lookup 11 subtable" comma.init
Substitution2: "Single Substitution lookup 9 subtable" comma.fina
Substitution2: "Single Substitution lookup 7 subtable" comma.isol
EndChar

StartChar: period
Encoding: 7 46 29
Width: 338
Flags: W
HStem: -32.2705 64.501<0 78.1143 260.62 342>
LayerCount: 2
Fore
SplineSet
0 32.23046875 m 1
 342 32.23046875 l 1
 342 -32.2705078125 l 1
 260.620117188 -32.2705078125 l 1
 290.349609375 -62 l 1
 290.349609375 -153.252929688 l 1
 169.3671875 -32.2705078125 l 1
 48.384765625 -153.252929688 l 1
 48.384765625 -62 l 1
 78.1142578125 -32.2705078125 l 1
 0 -32.2705078125 l 1
 0 0 l 1
 0 32.23046875 l 1
EndSplineSet
Validated: 1
Substitution2: "Single Substitution lookup 11 subtable" period.init
Substitution2: "Single Substitution lookup 9 subtable" period.fina
Substitution2: "Single Substitution lookup 7 subtable" period.isol
EndChar

StartChar: exclam
Encoding: 1 33 30
Width: 338
Flags: W
HStem: -32.2705 64.501<0 48.3848 290.35 342>
LayerCount: 2
Fore
SplineSet
169.3671875 153.212890625 m 1
 290.349609375 32.23046875 l 1
 342 32.23046875 l 1
 342 -32.2705078125 l 1
 290.349609375 -32.2705078125 l 1
 169.3671875 -153.252929688 l 1
 48.384765625 -32.2705078125 l 1
 0 -32.2705078125 l 1
 0 0 l 1
 0 32.23046875 l 1
 48.384765625 32.23046875 l 1
 169.3671875 153.212890625 l 1
169.3671875 61.9990234375 m 1
 107.368164062 0 l 1
 169.3671875 -62 l 1
 231.366210938 0 l 1
 169.3671875 61.9990234375 l 1
EndSplineSet
Validated: 1
Substitution2: "Single Substitution lookup 11 subtable" exclam.init
Substitution2: "Single Substitution lookup 9 subtable" exclam.fina
Substitution2: "Single Substitution lookup 7 subtable" exclam.isol
EndChar

StartChar: b.init
Encoding: 64 -1 31
Width: 516
Flags: W
HStem: -32.2695 64.5<435.545 520> 451.659 64.5<128.365 388.271>
LayerCount: 2
Fore
SplineSet
48.3857421875 516.159179688 m 1
 468.250976562 516.159179688 l 1
 468.250976562 451.659179688 l 1
 298.2890625 219.618164062 l 1
 435.544921875 32.23046875 l 1
 520 32.23046875 l 5
 520 -32.26953125 l 5
 402.837890625 -32.26953125 l 1
 258.318359375 165.041015625 l 1
 113.798828125 -32.26953125 l 1
 33.818359375 -32.26953125 l 1
 81.091796875 32.23046875 l 1
 218.34765625 219.618164062 l 1
 48.3857421875 451.659179688 l 1
 48.3857421875 516.159179688 l 1
128.365234375 451.659179688 m 1
 258.318359375 274.1953125 l 1
 388.271484375 451.659179688 l 1
 128.365234375 451.659179688 l 1
EndSplineSet
Validated: 1
EndChar

StartChar: c.init
Encoding: 65 -1 32
Width: 698
Flags: W
HStem: -32.2695 64.5<423.914 702> 375.455 20G<105.064 151.231 237.31 283.467 415.343 461.514 547.563 593.745>
LayerCount: 2
Fore
SplineSet
139.677734375 395.455078125 m 1
 188.102539062 311.625 l 1
 271.932617188 360.049804688 l 1
 304.163085938 304.163085938 l 1
 220.33203125 255.778320312 l 1
 349.412109375 32.23046875 l 1
 478.452148438 255.778320312 l 1
 394.62109375 304.163085938 l 1
 426.891601562 360.049804688 l 1
 510.721679688 311.625 l 1
 559.106445312 395.455078125 l 1
 614.994140625 363.185546875 l 1
 566.608398438 279.39453125 l 1
 650.399414062 230.969726562 l 1
 618.12890625 175.123046875 l 1
 534.338867188 223.5078125 l 1
 423.9140625 32.23046875 l 1
 702 32.23046875 l 5
 702 -32.26953125 l 5
 312.140625 -32.26953125 l 1
 164.485351562 223.5078125 l 1
 80.6552734375 175.123046875 l 1
 48.384765625 230.969726562 l 1
 132.21484375 279.39453125 l 1
 83.830078125 363.185546875 l 1
 139.677734375 395.455078125 l 1
EndSplineSet
Validated: 1
EndChar

StartChar: d.init
Encoding: 66 -1 33
Width: 257
Flags: W
HStem: -32.2695 64.5<161.31 261> 496.159 20G<96.7705 161.31>
VStem: 96.7705 64.5391<32.2305 516.159>
LayerCount: 2
Fore
SplineSet
96.7705078125 516.159179688 m 1
 161.309570312 516.159179688 l 1
 161.309570312 32.23046875 l 1
 261 32.23046875 l 1
 261 -32.26953125 l 1
 96.7705078125 -32.26953125 l 1
 96.7705078125 516.159179688 l 1
EndSplineSet
Validated: 1
EndChar

StartChar: e.init
Encoding: 67 -1 34
Width: 644
Flags: W
HStem: -32.2695 64.5<234.707 290.351 499.212 648> 496.159 20G<246.947 405.041>
VStem: 48.3857 64.5391<152.356 331.557> 532.315 64.5391<151.288 331.557>
LayerCount: 2
Fore
SplineSet
322.620117188 516.159179688 m 0
 473.966796875 516.159179688 596.854492188 393.311523438 596.854492188 241.96484375 c 0
 596.815429688 157.81640625 558.98828125 82.560546875 499.211914062 32.23046875 c 1
 648 32.23046875 l 5
 648 -32.26953125 l 5
 322.620117188 -32.26953125 l 1
 171.2734375 -32.26953125 48.3857421875 90.6171875 48.3857421875 241.96484375 c 0
 48.3857421875 393.311523438 171.2734375 516.159179688 322.620117188 516.159179688 c 0
290.350585938 449.119140625 m 1
 190.047851562 433.48046875 112.924804688 346.633789062 112.924804688 241.96484375 c 0
 112.924804688 137.255859375 190.047851562 50.4091796875 290.350585938 34.7705078125 c 1
 290.350585938 449.119140625 l 1
354.889648438 449.079101562 m 1
 354.889648438 449.079101562 355.088867188 34.810546875 354.889648438 34.810546875 c 1
 455.192382812 50.4091796875 532.275390625 137.295898438 532.315429688 241.96484375 c 0
 532.275390625 346.633789062 455.192382812 433.48046875 354.889648438 449.079101562 c 1
0 32.23046875 m 1
 0 0 l 1
 0 32.23046875 l 1
EndSplineSet
Validated: 33
EndChar

StartChar: f.init
Encoding: 68 -1 35
Width: 366
Flags: W
HStem: -32.2705 64.501<112.925 241.688 318.214 370> 334.85 20G<48.3857 125.651> 334.85 20G<48.3857 125.651>
VStem: 48.3857 64.5391<-234.661 -32.2705 32.2305 234.621>
LayerCount: 2
Fore
SplineSet
48.3857421875 354.849609375 m 1xd0
 112.924804688 354.849609375 l 1
 318.213867188 32.23046875 l 1
 370 32.23046875 l 1
 370 -32.2705078125 l 1
 318.213867188 -32.2705078125 l 1
 112.924804688 -354.889648438 l 1
 48.3857421875 -354.889648438 l 1
 48.3857421875 354.849609375 l 1xd0
112.924804688 234.62109375 m 1
 112.924804688 32.23046875 l 1
 241.6875 32.23046875 l 1
 112.924804688 234.62109375 l 1
112.924804688 -32.2705078125 m 1
 112.924804688 -234.661132812 l 1
 241.6875 -32.2705078125 l 1
 112.924804688 -32.2705078125 l 1
EndSplineSet
Validated: 1
EndChar

StartChar: g.init
Encoding: 69 -1 36
Width: 677
Flags: W
HStem: -32.2705 64.5<480.119 681> 290.35 64.5<122.888 554.621>
LayerCount: 2
Fore
SplineSet
48.384765625 354.849609375 m 1
 629.124023438 354.849609375 l 1
 629.124023438 290.349609375 l 1
 480.119140625 32.2294921875 l 1
 681 32.2294921875 l 5
 681 -32.2705078125 l 5
 405.576171875 -32.2705078125 l 1
 405.576171875 32.2294921875 l 1
 554.62109375 290.349609375 l 1
 122.887695312 290.349609375 l 1
 271.932617188 32.2294921875 l 1
 271.892578125 -32.2705078125 l 1
 234.661132812 -32.2705078125 l 1
 48.384765625 290.349609375 l 1
 48.384765625 354.849609375 l 1
EndSplineSet
Validated: 1
EndChar

StartChar: h.init
Encoding: 70 -1 37
Width: 483
Flags: W
HStem: -32.2695 64.5<274.234 487> 404.352 111.808G<48.3848 98.4028 209.695 274.234 385.527 435.545>
VStem: 209.695 64.5391<32.2305 290.35 359.851 516.159>
LayerCount: 2
Fore
SplineSet
209.6953125 -32.26953125 m 1
 209.6953125 290.349609375 l 1
 48.384765625 354.849609375 l 1
 48.384765625 424.3515625 l 1
 209.6953125 359.850585938 l 1
 209.6953125 516.159179688 l 1
 274.234375 516.159179688 l 1
 274.234375 359.850585938 l 1
 435.544921875 424.3515625 l 1
 435.544921875 354.849609375 l 1
 274.234375 290.349609375 l 1
 274.234375 32.23046875 l 1
 487 32.23046875 l 1
 487 -32.26953125 l 1
 209.6953125 -32.26953125 l 1
EndSplineSet
Validated: 1
EndChar

StartChar: i.init
Encoding: 71 -1 38
Width: 644
Flags: W
HStem: -32.2695 64.5<234.707 415.224 499.212 648> 451.659 64.5<232.362 412.017>
VStem: 48.3857 64.5391<152.564 332.21> 532.315 64.5391<150.628 331.351>
LayerCount: 2
Fore
SplineSet
322.620117188 516.159179688 m 0
 473.966796875 516.159179688 596.854492188 393.311523438 596.854492188 241.96484375 c 0
 596.815429688 157.81640625 558.98828125 82.560546875 499.211914062 32.23046875 c 1
 648 32.23046875 l 1
 648 -32.26953125 l 1
 322.620117188 -32.26953125 l 1
 171.2734375 -32.26953125 48.3857421875 90.6171875 48.3857421875 241.96484375 c 0
 48.3857421875 393.311523438 171.2734375 516.159179688 322.620117188 516.159179688 c 0
322.620117188 451.659179688 m 0
 276.458007812 451.620117188 233.58984375 436.576171875 198.938476562 411.252929688 c 1
 198.938476562 411.252929688 492.02734375 118.481445312 491.908203125 118.283203125 c 1
 517.231445312 152.934570312 532.315429688 195.802734375 532.315429688 241.96484375 c 0
 532.315429688 357.66796875 438.36328125 451.659179688 322.620117188 451.659179688 c 0
153.33203125 365.606445312 m 1
 128.008789062 330.995117188 112.924804688 288.086914062 112.924804688 241.96484375 c 0
 112.924804688 126.221679688 206.876953125 32.23046875 322.620117188 32.23046875 c 0
 368.782226562 32.26953125 411.650390625 47.3134765625 446.301757812 72.6767578125 c 1
 153.33203125 365.606445312 l 1
EndSplineSet
Validated: 33
EndChar

StartChar: j.init
Encoding: 72 -1 39
Width: 644
Flags: W
HStem: -32.2695 64.5<435.545 648> 209.694 64.501<125.944 209.695 274.235 371.005 435.545 519.296> 496.159 20G<196.362 274.235 371.005 448.878>
VStem: 209.695 64.54<-32.2695 209.694 274.195 399.861> 371.005 64.54<32.2305 209.694 274.195 399.861>
LayerCount: 2
Fore
SplineSet
209.6953125 516.159179688 m 1
 274.235351562 516.159179688 l 1
 274.235351562 274.1953125 l 1
 371.004882812 274.1953125 l 1
 371.004882812 516.159179688 l 1
 435.544921875 516.159179688 l 1
 596.854492188 274.1953125 l 1
 596.854492188 209.694335938 l 1
 435.544921875 209.694335938 l 1
 435.544921875 32.23046875 l 1
 648 32.23046875 l 1
 648 -32.26953125 l 1
 371.004882812 -32.26953125 l 1
 371.004882812 209.694335938 l 1
 274.235351562 209.694335938 l 1
 274.235351562 -32.26953125 l 1
 209.6953125 -32.26953125 l 1
 209.6953125 209.694335938 l 1
 48.3857421875 209.694335938 l 1
 48.3857421875 274.1953125 l 1
 209.6953125 516.159179688 l 1
209.6953125 399.861328125 m 1
 125.944335938 274.1953125 l 1
 209.6953125 274.1953125 l 1
 209.6953125 399.861328125 l 1
435.544921875 399.861328125 m 1
 435.544921875 274.1953125 l 1
 519.295898438 274.1953125 l 1
 435.544921875 399.861328125 l 1
EndSplineSet
Validated: 1
EndChar

StartChar: k.init
Encoding: 73 -1 40
Width: 461
Flags: W
HStem: -32.2705 64.501<413.793 465> 334.85 20G<189.493 263.358> 334.85 20G<189.493 263.358>
VStem: 198.819 64.5391<-202.232 202.192>
LayerCount: 2
Fore
SplineSet
18.2978515625 -32.2705078125 m 1xd0
 198.819335938 354.849609375 l 1
 263.358398438 354.849609375 l 1
 263.358398438 -202.232421875 l 1
 372.671875 32.23046875 l 1
 465 32.23046875 l 1
 465 -32.2705078125 l 1
 413.79296875 -32.2705078125 l 1
 263.358398438 -354.889648438 l 1
 198.819335938 -354.889648438 l 1
 198.819335938 202.192382812 l 1
 89.505859375 -32.2705078125 l 1
 18.2978515625 -32.2705078125 l 1xd0
EndSplineSet
Validated: 1
EndChar

StartChar: l.init
Encoding: 74 -1 41
Width: 366
Flags: W
HStem: -32.2705 64.501<112.925 241.727 318.214 370> 334.85 20G<48.3857 125.651> 334.85 20G<48.3857 125.651>
VStem: 48.3857 64.5391<-354.89 -32.2705 32.2305 234.621>
LayerCount: 2
Fore
SplineSet
48.3857421875 354.849609375 m 1xd0
 112.924804688 354.849609375 l 1
 318.213867188 32.23046875 l 1
 370 32.23046875 l 5
 370 -32.2705078125 l 5
 112.924804688 -32.2705078125 l 1
 112.924804688 -354.889648438 l 1
 48.3857421875 -354.889648438 l 1
 48.3857421875 354.849609375 l 1xd0
112.924804688 234.62109375 m 1
 112.924804688 32.23046875 l 1
 241.7265625 32.23046875 l 1
 112.924804688 234.62109375 l 1
EndSplineSet
Validated: 1
EndChar

StartChar: m.init
Encoding: 75 -1 42
Width: 322
Flags: W
HStem: -32.2695 64.5<274.234 326> 334.85 181.31G<48.3848 88.399> 334.85 20G<48.3848 88.385>
VStem: 209.694 116.306<-32.2695 32.2305> 209.694 64.54<32.2305 202.074 274.195 363.384>
LayerCount: 2
Fore
SplineSet
209.694335938 202.07421875 m 1xc8
 48.384765625 282.728515625 l 1
 48.384765625 354.849609375 l 1xa8
 209.694335938 274.1953125 l 1
 209.694335938 363.383789062 l 1
 48.384765625 444.0390625 l 1
 48.384765625 516.159179688 l 1
 274.234375 403.274414062 l 1
 274.234375 32.23046875 l 1xc8
 326 32.23046875 l 1
 326 -32.26953125 l 1
 209.694335938 -32.26953125 l 1xd0
 209.694335938 202.07421875 l 1xc8
EndSplineSet
Validated: 1
EndChar

StartChar: n.init
Encoding: 76 -1 43
Width: 483
Flags: W
HStem: -32.2695 64.5<435.545 487> 334.85 181.31G<48.3848 88.399> 334.85 20G<48.3848 88.3852>
VStem: 209.695 64.5391<-32.2695 202.074 274.195 363.384> 371.005 115.995<-32.2695 32.2305> 371.005 64.54<32.2305 153.213>
LayerCount: 2
Fore
SplineSet
209.6953125 202.07421875 m 1xd0
 48.384765625 282.728515625 l 1
 48.384765625 354.849609375 l 1xb0
 209.6953125 274.1953125 l 1
 209.6953125 363.383789062 l 1
 48.384765625 444.0390625 l 1
 48.384765625 516.159179688 l 1
 274.234375 403.274414062 l 1
 274.234375 -32.26953125 l 1
 209.6953125 -32.26953125 l 1
 209.6953125 202.07421875 l 1xd0
371.004882812 153.212890625 m 1x94
 435.544921875 153.212890625 l 1
 435.544921875 32.23046875 l 1x94
 487 32.23046875 l 1
 487 -32.26953125 l 1
 371.004882812 -32.26953125 l 1x98
 371.004882812 153.212890625 l 1x94
EndSplineSet
Validated: 1
EndChar

StartChar: o.init
Encoding: 77 -1 44
Width: 644
Flags: W
HStem: -32.2695 64.5<234.707 413.502 499.212 648> 451.659 64.5<233.223 412.871>
VStem: 48.3857 64.5391<151.706 331.351> 532.315 64.5391<151.485 332.202>
LayerCount: 2
Fore
SplineSet
322.620117188 516.159179688 m 0
 473.966796875 516.159179688 596.854492188 393.311523438 596.854492188 241.96484375 c 0
 596.815429688 157.81640625 558.98828125 82.560546875 499.211914062 32.23046875 c 1
 648 32.23046875 l 1
 648 -32.26953125 l 1
 322.620117188 -32.26953125 l 1
 171.2734375 -32.26953125 48.3857421875 90.6171875 48.3857421875 241.96484375 c 0
 48.3857421875 393.311523438 171.2734375 516.159179688 322.620117188 516.159179688 c 0
322.620117188 451.659179688 m 0
 206.876953125 451.659179688 112.924804688 357.66796875 112.924804688 241.96484375 c 0
 112.924804688 195.802734375 128.008789062 152.934570312 153.33203125 118.283203125 c 1
 153.33203125 118.283203125 446.063476562 411.33203125 446.26171875 411.252929688 c 1
 411.650390625 436.576171875 368.782226562 451.620117188 322.620117188 451.659179688 c 0
491.908203125 365.606445312 m 1
 491.908203125 365.606445312 199.13671875 72.5576171875 198.938476562 72.6767578125 c 1
 233.58984375 47.3134765625 276.458007812 32.26953125 322.620117188 32.23046875 c 0
 438.36328125 32.23046875 532.315429688 126.221679688 532.315429688 241.96484375 c 0
 532.315429688 288.086914062 517.231445312 330.955078125 491.908203125 365.606445312 c 1
EndSplineSet
Validated: 33
EndChar

StartChar: p.init
Encoding: 78 -1 45
Width: 402
Flags: W
HStem: -32.2695 64.5<354.89 406> 209.694 64.501<177.426 263.598> 496.159 20G<48.3857 132.925>
VStem: 48.3857 64.5391<-32.2695 182.981 274.195 424.907>
LayerCount: 2
Fore
SplineSet
48.3857421875 516.159179688 m 1
 112.924804688 516.159179688 l 1
 354.889648438 274.1953125 l 1
 354.889648438 209.694335938 l 1
 177.42578125 209.694335938 l 1
 354.889648438 32.23046875 l 1
 406 32.23046875 l 1
 406 -32.26953125 l 1
 328.176757812 -32.26953125 l 1
 112.924804688 182.981445312 l 1
 112.924804688 -32.26953125 l 1
 48.3857421875 -32.26953125 l 1
 48.3857421875 516.159179688 l 1
112.924804688 424.907226562 m 1
 112.924804688 274.1953125 l 1
 263.59765625 274.1953125 l 1
 112.924804688 424.907226562 l 1
EndSplineSet
Validated: 1
EndChar

StartChar: q.init
Encoding: 79 -1 46
Width: 482
Flags: W
HStem: -32.2705 64.5<209.695 486> 290.35 64.5<112.925 435.545>
VStem: 48.3848 64.54<-32.2705 290.35>
LayerCount: 2
Fore
SplineSet
48.384765625 354.849609375 m 1
 435.544921875 354.849609375 l 1
 435.544921875 290.349609375 l 1
 112.924804688 290.349609375 l 1
 112.924804688 -32.2705078125 l 1
 48.384765625 -32.2705078125 l 1
 48.384765625 354.849609375 l 1
209.6953125 32.2294921875 m 1
 486 32.2294921875 l 1
 486 -32.2705078125 l 1
 209.6953125 -32.2705078125 l 1
 209.6953125 32.2294921875 l 1
EndSplineSet
Validated: 1
EndChar

StartChar: r.init
Encoding: 80 -1 47
Width: 355
Flags: W
HStem: -32.2695 64.5<276.497 359> 496.159 20G<48.3848 132.925>
VStem: 48.3848 64.54<-32.2695 424.907> 242.123 66.8027<127.098 153.213>
LayerCount: 2
Fore
SplineSet
48.384765625 516.159179688 m 1
 112.924804688 516.159179688 l 1
 308.92578125 320.158203125 l 1
 217.672851562 320.158203125 l 1
 112.924804688 424.907226562 l 1
 112.924804688 -32.26953125 l 1
 48.384765625 -32.26953125 l 1
 48.384765625 516.159179688 l 1
359 32.23046875 m 1
 359 -32.26953125 l 1
 209.694335938 -32.26953125 l 1
 209.694335938 32.23046875 l 1
 242.123046875 153.212890625 l 1
 308.92578125 153.212890625 l 1
 276.497070312 32.23046875 l 1
 359 32.23046875 l 1
EndSplineSet
Validated: 1
EndChar

StartChar: s.init
Encoding: 81 -1 48
Width: 513
Flags: W
HStem: -32.2695 64.5<466.028 517> 496.159 20G<48.3857 141.179>
LayerCount: 2
Fore
SplineSet
217.83203125 274.1953125 m 1
 48.3857421875 516.159179688 l 1
 127.174804688 516.159179688 l 1
 466.028320312 32.23046875 l 1
 517 32.23046875 l 1
 517 -32.26953125 l 1
 432.409179688 -32.26953125 l 1
 257.20703125 217.951171875 l 1
 81.96484375 -32.26953125 l 1
 3.2158203125 -32.26953125 l 1
 217.83203125 274.1953125 l 1
EndSplineSet
Validated: 1
EndChar

StartChar: t.init
Encoding: 82 -1 49
Width: 483
Flags: W
HStem: -32.2695 64.5<274.234 487> 290.35 64.5<48.3848 209.695 274.234 435.545> 496.159 20G<209.695 274.234>
VStem: 209.695 64.5391<32.2305 290.35 354.85 516.159>
LayerCount: 2
Fore
SplineSet
209.6953125 290.349609375 m 1
 48.384765625 290.349609375 l 1
 48.384765625 354.849609375 l 1
 209.6953125 354.849609375 l 1
 209.6953125 516.159179688 l 1
 274.234375 516.159179688 l 1
 274.234375 354.849609375 l 1
 435.544921875 354.849609375 l 1
 435.544921875 290.349609375 l 1
 274.234375 290.349609375 l 1
 274.234375 32.23046875 l 1
 487 32.23046875 l 1
 487 -32.26953125 l 1
 209.6953125 -32.26953125 l 1
 209.6953125 290.349609375 l 1
EndSplineSet
Validated: 1
EndChar

StartChar: u.init
Encoding: 83 -1 50
Width: 644
Flags: W
HStem: -32.2695 64.5<234.707 415.224 499.212 648> 451.659 64.5<232.362 412.879>
VStem: 48.3857 64.5391<151.706 332.21> 532.315 64.5391<150.628 332.202>
LayerCount: 2
Fore
SplineSet
322.620117188 516.159179688 m 0
 473.966796875 516.159179688 596.854492188 393.311523438 596.854492188 241.96484375 c 0
 596.815429688 157.81640625 558.98828125 82.560546875 499.211914062 32.23046875 c 1
 648 32.23046875 l 1
 648 -32.26953125 l 1
 322.620117188 -32.26953125 l 1
 171.2734375 -32.26953125 48.3857421875 90.6171875 48.3857421875 241.96484375 c 0
 48.3857421875 393.311523438 171.2734375 516.159179688 322.620117188 516.159179688 c 0
322.620117188 451.659179688 m 0
 276.458007812 451.620117188 233.58984375 436.576171875 198.938476562 411.252929688 c 1
 322.620117188 287.571289062 l 1
 322.620117188 287.571289062 446.103515625 411.33203125 446.301757812 411.252929688 c 1
 411.650390625 436.576171875 368.782226562 451.620117188 322.620117188 451.659179688 c 0
153.33203125 365.606445312 m 1
 128.008789062 330.995117188 112.924804688 288.086914062 112.924804688 241.96484375 c 0
 112.924804688 195.802734375 128.008789062 152.934570312 153.33203125 118.283203125 c 1
 277.013671875 241.96484375 l 1
 153.33203125 365.606445312 l 1
491.908203125 365.606445312 m 1
 368.266601562 241.96484375 l 1
 368.266601562 241.96484375 492.02734375 118.481445312 491.908203125 118.283203125 c 1
 517.231445312 152.934570312 532.315429688 195.802734375 532.315429688 241.96484375 c 0
 532.315429688 288.086914062 517.231445312 330.955078125 491.908203125 365.606445312 c 1
322.620117188 196.318359375 m 1
 322.620117188 196.318359375 199.13671875 72.5576171875 198.938476562 72.6767578125 c 1
 233.58984375 47.3134765625 276.458007812 32.26953125 322.620117188 32.23046875 c 0
 368.782226562 32.26953125 411.650390625 47.3134765625 446.301757812 72.6767578125 c 1
 322.620117188 196.318359375 l 1
EndSplineSet
Validated: 33
EndChar

StartChar: v.init
Encoding: 84 -1 51
Width: 612
Flags: W
HStem: -32.2695 64.5<564.227 616> 209.694 64.501<232.438 380.213> 496.159 20G<264.748 347.901>
LayerCount: 2
Fore
SplineSet
274.075195312 516.159179688 m 1
 338.575195312 516.159179688 l 1
 564.2265625 32.23046875 l 1
 616 32.23046875 l 1
 616 -32.26953125 l 1
 523.10546875 -32.26953125 l 1
 410.299804688 209.694335938 l 1
 202.311523438 209.694335938 l 1
 89.505859375 -32.26953125 l 1
 18.2978515625 -32.26953125 l 1
 274.075195312 516.159179688 l 1
306.305664062 432.686523438 m 1
 232.438476562 274.1953125 l 1
 380.212890625 274.1953125 l 1
 306.305664062 432.686523438 l 1
EndSplineSet
Validated: 1
EndChar

StartChar: w.init
Encoding: 85 -1 52
Width: 483
Flags: W
HStem: -32.2695 64.5<435.545 487> 209.694 64.501<125.944 209.695 274.234 371.005> 496.159 20G<196.362 274.234>
VStem: 209.695 64.5391<-32.2695 209.694 274.195 399.861> 371.005 115.995<-32.2695 32.2305> 371.005 64.54<32.2305 209.694>
LayerCount: 2
Fore
SplineSet
209.6953125 516.159179688 m 1xf4
 274.234375 516.159179688 l 1
 274.234375 274.1953125 l 1
 435.544921875 274.1953125 l 1
 435.544921875 32.23046875 l 1xf4
 487 32.23046875 l 1
 487 -32.26953125 l 1
 371.004882812 -32.26953125 l 1xf8
 371.004882812 209.694335938 l 1
 274.234375 209.694335938 l 1
 274.234375 -32.26953125 l 1
 209.6953125 -32.26953125 l 1
 209.6953125 209.694335938 l 1
 48.384765625 209.694335938 l 1
 48.384765625 274.1953125 l 1
 209.6953125 516.159179688 l 1xf4
209.6953125 399.861328125 m 1
 125.944335938 274.1953125 l 1
 209.6953125 274.1953125 l 1
 209.6953125 399.861328125 l 1
EndSplineSet
Validated: 1
EndChar

StartChar: x.init
Encoding: 86 -1 53
Width: 548
Flags: W
HStem: -32.2705 64.5<500.044 552> 131.421 65.373<188.905 241.965 306.504 359.564> 334.85 20G<48.3848 112.925 435.544 500.044> 334.85 20G<48.3848 112.925 435.544 500.044>
VStem: 48.3848 64.54<-32.2705 197.032 274.482 354.85> 241.965 64.5391<64.5 135.331 196.794 258.079> 435.544 116.456<-32.2705 32.2295> 435.544 64.5<32.2295 197.032 274.482 354.85>
LayerCount: 2
Fore
SplineSet
48.384765625 354.849609375 m 1xed
 112.924804688 354.849609375 l 1
 112.924804688 276.814453125 168.334960938 211.71875 241.96484375 196.793945312 c 1
 241.96484375 258.079101562 l 1
 306.50390625 258.079101562 l 1
 306.50390625 196.793945312 l 1
 380.133789062 211.71875 435.543945312 276.814453125 435.543945312 354.849609375 c 1
 500.043945312 354.849609375 l 1
 500.043945312 32.2294921875 l 1xed
 552 32.2294921875 l 1
 552 -32.2705078125 l 1
 435.543945312 -32.2705078125 l 1xee
 435.543945312 197.032226562 l 1
 400.694335938 161.348632812 355.24609375 138.486328125 306.50390625 131.420898438 c 2
 306.50390625 64.5 l 1
 241.96484375 64.5 l 1
 241.96484375 131.420898438 l 2
 193.22265625 138.526367188 147.774414062 161.348632812 112.924804688 197.032226562 c 1
 112.924804688 -32.2705078125 l 1
 48.384765625 -32.2705078125 l 1
 48.384765625 354.849609375 l 1xed
EndSplineSet
Validated: 1
EndChar

StartChar: y.init
Encoding: 87 -1 54
Width: 644
Flags: W
HStem: -32.2695 64.5<234.707 413.897 499.212 648> 209.694 64.501<115.766 529.774> 451.659 64.5<233.021 412.215>
VStem: 529.774 67.0801<147.747 209.694 274.195 336.143>
CounterMasks: 1 e0
LayerCount: 2
Fore
SplineSet
322.620117188 516.159179688 m 0
 473.966796875 516.159179688 596.854492188 393.311523438 596.854492188 241.96484375 c 0
 596.815429688 157.81640625 558.98828125 82.560546875 499.211914062 32.23046875 c 1
 648 32.23046875 l 5
 648 -32.26953125 l 5
 322.620117188 -32.26953125 l 1
 171.2734375 -32.26953125 48.3857421875 90.6171875 48.3857421875 241.96484375 c 0
 48.3857421875 393.311523438 171.2734375 516.159179688 322.620117188 516.159179688 c 0
322.620117188 451.659179688 m 0
 217.951171875 451.620117188 131.064453125 374.537109375 115.465820312 274.1953125 c 1
 115.465820312 274.1953125 529.735351562 274.432617188 529.774414062 274.1953125 c 1
 514.135742188 374.537109375 427.2890625 451.620117188 322.620117188 451.659179688 c 0
115.465820312 209.694335938 m 1
 131.064453125 109.352539062 217.951171875 32.26953125 322.620117188 32.23046875 c 0
 427.2890625 32.26953125 514.135742188 109.352539062 529.774414062 209.694335938 c 1
 115.465820312 209.694335938 l 1
EndSplineSet
Validated: 33
EndChar

StartChar: z.init
Encoding: 88 -1 55
Width: 548
Flags: W
HStem: -32.2705 64.5<500.044 552> 129.039 64.501<194.212 354.248> 334.85 20G<48.3848 112.925 435.544 500.044> 334.85 20G<48.3848 112.925 435.544 500.044>
VStem: 48.3848 64.54<-32.2705 197.032 274.565 354.85> 435.544 116.456<-32.2705 32.2295> 435.544 64.5<32.2295 197.032 274.565 354.85>
LayerCount: 2
Fore
SplineSet
48.384765625 354.849609375 m 1xea
 112.924804688 354.849609375 l 1
 112.924804688 265.779296875 185.125 193.540039062 274.234375 193.540039062 c 0
 363.303710938 193.540039062 435.543945312 265.779296875 435.543945312 354.849609375 c 1
 500.043945312 354.849609375 l 1
 500.043945312 32.2294921875 l 1xea
 552 32.2294921875 l 1
 552 -32.2705078125 l 1
 435.543945312 -32.2705078125 l 1xec
 435.543945312 197.032226562 l 1
 393.11328125 153.609375 334.963867188 129.079101562 274.234375 129.0390625 c 0
 213.504882812 129.079101562 155.35546875 153.609375 112.924804688 197.032226562 c 1
 112.924804688 -32.2705078125 l 1
 48.384765625 -32.2705078125 l 1
 48.384765625 354.849609375 l 1xea
EndSplineSet
Validated: 1
EndChar

StartChar: numbersign.init
Encoding: 89 -1 56
Width: 595
Flags: W
HStem: -32.2705 64.5<259.39 356.159 427.367 599> 290.35 64.5<112.925 476.547>
VStem: 48.3848 64.54<-32.2705 290.35>
LayerCount: 2
Fore
SplineSet
48.384765625 354.849609375 m 1
 547.71484375 354.849609375 l 1
 547.71484375 290.349609375 l 1
 427.3671875 32.2294921875 l 1
 599 32.2294921875 l 1
 599 -32.2705078125 l 1
 188.181640625 -32.2705078125 l 1
 188.181640625 32.2294921875 l 1
 244.624023438 153.211914062 l 1
 315.791992188 153.211914062 l 1
 259.389648438 32.2294921875 l 1
 356.159179688 32.2294921875 l 1
 476.546875 290.349609375 l 1
 112.924804688 290.349609375 l 1
 112.924804688 -32.2705078125 l 1
 48.384765625 -32.2705078125 l 1
 48.384765625 354.849609375 l 1
EndSplineSet
Validated: 1
EndChar

StartChar: exclam.init
Encoding: 90 -1 57
Width: 338
Flags: W
HStem: -32.2705 64.501<290.35 342>
VStem: 16.1152 325.885
LayerCount: 2
Fore
SplineSet
169.3671875 153.212890625 m 1
 290.349609375 32.23046875 l 1
 342 32.23046875 l 1
 342 -32.2705078125 l 1
 290.349609375 -32.2705078125 l 1
 169.3671875 -153.252929688 l 1
 16.115234375 0 l 1
 169.3671875 153.212890625 l 1
169.3671875 61.9990234375 m 1
 107.368164062 0 l 1
 169.3671875 -62 l 1
 231.366210938 0 l 1
 169.3671875 61.9990234375 l 1
EndSplineSet
Validated: 1
EndChar

StartChar: comma.init
Encoding: 91 -1 58
Width: 281
Flags: W
HStem: -32.2705 64.501<169.368 285>
VStem: 48.3857 236.614
LayerCount: 2
Fore
SplineSet
142.655273438 32.23046875 m 1
 285 32.23046875 l 5
 285 -32.2705078125 l 5
 169.368164062 -32.2705078125 l 1
 48.3857421875 -153.252929688 l 1
 48.3857421875 -62 l 1
 142.655273438 32.23046875 l 1
EndSplineSet
Validated: 1
EndChar

StartChar: period.init
Encoding: 92 -1 59
Width: 338
Flags: W
HStem: -32.2705 64.501<260.62 342>
VStem: 48.3848 293.615
LayerCount: 2
Fore
SplineSet
342 32.23046875 m 1
 342 -32.2705078125 l 1
 260.620117188 -32.2705078125 l 1
 290.349609375 -62 l 1
 290.349609375 -153.252929688 l 1
 169.3671875 -32.2705078125 l 1
 48.384765625 -153.252929688 l 1
 48.384765625 -62 l 1
 142.654296875 32.23046875 l 1
 342 32.23046875 l 1
EndSplineSet
Validated: 1
EndChar

StartChar: question.init
Encoding: 93 -1 60
Width: 338
Flags: W
HStem: -126.539 64.5391<122.963 215.442> -32.2705 64.501<284.413 342> 61.999 64.5<122.723 215.847>
VStem: 42.8281 64.54<-46.6527 46.6267> 231.366 110.634<-32.1642 32.1371>
LayerCount: 2
Fore
SplineSet
169.3671875 126.499023438 m 0
 226.762695312 126.419921875 276.893554688 87.7197265625 291.500976562 32.23046875 c 1
 342 32.23046875 l 1
 342 -32.2705078125 l 1
 291.500976562 -32.2705078125 l 1
 276.893554688 -87.759765625 226.762695312 -126.459960938 169.3671875 -126.5390625 c 0
 99.46875 -126.5390625 42.828125 -69.8984375 42.828125 0 c 0
 42.828125 69.8583984375 99.46875 126.499023438 169.3671875 126.499023438 c 0
169.3671875 61.9990234375 m 0
 135.112304688 61.9990234375 107.368164062 34.21484375 107.368164062 0 c 0
 107.368164062 -34.2548828125 135.112304688 -62.0390625 169.3671875 -62 c 0
 203.622070312 -62.0390625 231.366210938 -34.2548828125 231.366210938 0 c 0
 231.366210938 34.21484375 203.622070312 61.9990234375 169.3671875 61.9990234375 c 0
EndSplineSet
Validated: 33
EndChar

StartChar: a.isol
Encoding: 94 -1 61
Width: 644
Flags: W
HStem: -32.2695 64.5<233.223 412.017> 451.659 64.5<233.223 412.017>
VStem: 48.3848 64.54<152.564 331.351> 532.314 64.54<152.564 331.351>
LayerCount: 2
Fore
SplineSet
322.620117188 516.159179688 m 0
 473.966796875 516.159179688 596.854492188 393.311523438 596.854492188 241.96484375 c 0
 596.854492188 90.6171875 473.966796875 -32.26953125 322.620117188 -32.26953125 c 0
 171.272460938 -32.26953125 48.384765625 90.6171875 48.384765625 241.96484375 c 0
 48.384765625 393.311523438 171.272460938 516.159179688 322.620117188 516.159179688 c 0
322.620117188 451.659179688 m 0
 206.876953125 451.659179688 112.924804688 357.66796875 112.924804688 241.96484375 c 0
 112.924804688 126.221679688 206.876953125 32.23046875 322.620117188 32.23046875 c 0
 438.362304688 32.23046875 532.314453125 126.221679688 532.314453125 241.96484375 c 0
 532.314453125 357.66796875 438.362304688 451.659179688 322.620117188 451.659179688 c 0
EndSplineSet
Validated: 1
EndChar

StartChar: b.isol
Encoding: 95 -1 62
Width: 516
Flags: W
HStem: -32.2695 21G<33.8174 128.447 388.189 482.778> 451.659 64.5<128.365 388.271>
LayerCount: 2
Fore
SplineSet
48.384765625 516.159179688 m 1
 468.250976562 516.159179688 l 1
 468.250976562 451.659179688 l 1
 298.288085938 219.618164062 l 1
 482.778320312 -32.26953125 l 1
 402.837890625 -32.26953125 l 1
 258.318359375 165.041015625 l 1
 113.797851562 -32.26953125 l 1
 33.8173828125 -32.26953125 l 1
 218.34765625 219.618164062 l 1
 48.384765625 451.659179688 l 1
 48.384765625 516.159179688 l 1
128.365234375 451.659179688 m 1
 258.318359375 274.1953125 l 1
 388.270507812 451.659179688 l 1
 128.365234375 451.659179688 l 1
EndSplineSet
Validated: 1
EndChar

StartChar: c.isol
Encoding: 96 -1 63
Width: 698
Flags: W
HStem: -32.2695 21G<300.595 398.228> 375.455 20G<105.064 151.23 237.309 283.466 415.342 461.514 547.563 593.744>
LayerCount: 2
Fore
SplineSet
139.676757812 395.455078125 m 1
 188.1015625 311.625 l 1
 271.931640625 360.049804688 l 1
 304.162109375 304.163085938 l 1
 220.33203125 255.778320312 l 1
 349.411132812 32.23046875 l 1
 478.451171875 255.778320312 l 1
 394.62109375 304.163085938 l 1
 426.890625 360.049804688 l 1
 510.721679688 311.625 l 1
 559.106445312 395.455078125 l 1
 614.993164062 363.185546875 l 1
 566.608398438 279.39453125 l 1
 650.3984375 230.969726562 l 1
 618.12890625 175.123046875 l 1
 534.338867188 223.5078125 l 1
 386.682617188 -32.26953125 l 1
 312.140625 -32.26953125 l 1
 164.484375 223.5078125 l 1
 80.654296875 175.123046875 l 1
 48.384765625 230.969726562 l 1
 132.21484375 279.39453125 l 1
 83.830078125 363.185546875 l 1
 139.676757812 395.455078125 l 1
EndSplineSet
Validated: 1
EndChar

StartChar: d.isol
Encoding: 97 -1 64
Width: 257
Flags: W
HStem: -32.2695 21G<96.7705 161.311> 496.159 20G<96.7705 161.311>
VStem: 96.7705 64.54<-32.2695 516.159>
LayerCount: 2
Fore
SplineSet
96.7705078125 516.159179688 m 1
 161.310546875 516.159179688 l 1
 161.310546875 -32.26953125 l 1
 96.7705078125 -32.26953125 l 1
 96.7705078125 516.159179688 l 1
EndSplineSet
Validated: 1
EndChar

StartChar: e.isol
Encoding: 98 -1 65
Width: 644
Flags: W
HStem: -32.2695 21G<246.946 398.293> 496.159 20G<246.946 405.041>
VStem: 48.3848 64.54<152.356 331.557> 532.314 64.54<152.366 331.557>
LayerCount: 2
Fore
SplineSet
322.620117188 516.159179688 m 0
 473.966796875 516.159179688 596.854492188 393.311523438 596.854492188 241.96484375 c 0
 596.854492188 90.6171875 473.966796875 -32.26953125 322.620117188 -32.26953125 c 0
 171.272460938 -32.26953125 48.384765625 90.6171875 48.384765625 241.96484375 c 0
 48.384765625 393.311523438 171.272460938 516.159179688 322.620117188 516.159179688 c 0
290.349609375 449.119140625 m 1
 190.046875 433.48046875 112.924804688 346.633789062 112.924804688 241.96484375 c 0
 112.924804688 137.255859375 190.046875 50.4091796875 290.349609375 34.7705078125 c 1
 290.349609375 449.119140625 l 1
354.889648438 449.079101562 m 1
 354.889648438 449.079101562 355.087890625 34.810546875 354.889648438 34.810546875 c 1
 455.192382812 50.4091796875 532.275390625 137.295898438 532.314453125 241.96484375 c 0
 532.275390625 346.633789062 455.192382812 433.48046875 354.889648438 449.079101562 c 1
EndSplineSet
Validated: 33
EndChar

StartChar: f.isol
Encoding: 99 -1 66
Width: 366
Flags: W
HStem: -32.2705 64.501<112.925 241.687> 334.85 20G<48.3848 125.652> 334.85 20G<48.3848 125.652>
VStem: 48.3848 64.54<-234.661 -32.2705 32.2305 234.621>
LayerCount: 2
Fore
SplineSet
48.384765625 354.849609375 m 1xd0
 112.924804688 354.849609375 l 1
 338.734375 0 l 1
 112.924804688 -354.889648438 l 1
 48.384765625 -354.889648438 l 1
 48.384765625 354.849609375 l 1xd0
112.924804688 234.62109375 m 1
 112.924804688 32.23046875 l 1
 241.686523438 32.23046875 l 1
 112.924804688 234.62109375 l 1
112.924804688 -32.2705078125 m 1
 112.924804688 -234.661132812 l 1
 241.686523438 -32.2705078125 l 1
 112.924804688 -32.2705078125 l 1
EndSplineSet
Validated: 1
EndChar

StartChar: g.isol
Encoding: 100 -1 67
Width: 677
Flags: W
HStem: -32.2705 21G<223.114 271.933 405.577 454.396> 290.35 64.5<122.888 554.622>
LayerCount: 2
Fore
SplineSet
48.3857421875 354.849609375 m 1
 629.125 354.849609375 l 1
 629.125 290.349609375 l 1
 442.848632812 -32.2705078125 l 1
 405.577148438 -32.2705078125 l 1
 405.577148438 32.2294921875 l 1
 554.622070312 290.349609375 l 1
 122.887695312 290.349609375 l 1
 271.932617188 32.2294921875 l 1
 271.932617188 -32.2705078125 l 1
 234.662109375 -32.2705078125 l 1
 48.3857421875 290.349609375 l 1
 48.3857421875 354.849609375 l 1
EndSplineSet
Validated: 1
EndChar

StartChar: h.isol
Encoding: 101 -1 68
Width: 483
Flags: W
HStem: -32.2695 21G<209.694 274.234> 404.352 111.808G<48.3848 98.4025 209.694 274.234 385.526 435.544>
VStem: 209.694 64.54<-32.2695 290.35 359.851 516.159>
LayerCount: 2
Fore
SplineSet
209.694335938 290.349609375 m 1
 48.384765625 354.849609375 l 1
 48.384765625 424.3515625 l 1
 209.694335938 359.850585938 l 1
 209.694335938 516.159179688 l 1
 274.234375 516.159179688 l 1
 274.234375 359.850585938 l 1
 435.543945312 424.3515625 l 1
 435.543945312 354.849609375 l 1
 274.234375 290.349609375 l 1
 274.234375 -32.26953125 l 1
 209.694335938 -32.26953125 l 1
 209.694335938 290.349609375 l 1
EndSplineSet
Validated: 1
EndChar

StartChar: i.isol
Encoding: 102 -1 69
Width: 644
Flags: W
HStem: -32.2695 64.5<233.223 412.878> 451.659 64.5<232.369 412.017>
VStem: 48.3848 64.54<152.564 332.21> 532.314 64.54<151.706 331.351>
LayerCount: 2
Fore
SplineSet
322.620117188 516.159179688 m 0
 473.966796875 516.159179688 596.854492188 393.311523438 596.854492188 241.96484375 c 0
 596.854492188 90.6171875 473.966796875 -32.26953125 322.620117188 -32.26953125 c 0
 171.272460938 -32.26953125 48.384765625 90.6171875 48.384765625 241.96484375 c 0
 48.384765625 393.311523438 171.272460938 516.159179688 322.620117188 516.159179688 c 0
322.620117188 451.659179688 m 0
 276.45703125 451.620117188 233.58984375 436.576171875 198.977539062 411.252929688 c 1
 198.977539062 411.252929688 492.026367188 118.481445312 491.908203125 118.283203125 c 1
 517.231445312 152.934570312 532.314453125 195.802734375 532.314453125 241.96484375 c 0
 532.314453125 357.66796875 438.362304688 451.659179688 322.620117188 451.659179688 c 0
153.33203125 365.606445312 m 1
 128.0078125 330.995117188 112.924804688 288.086914062 112.924804688 241.96484375 c 0
 112.924804688 126.221679688 206.876953125 32.23046875 322.620117188 32.23046875 c 0
 368.782226562 32.26953125 411.649414062 47.3134765625 446.30078125 72.6767578125 c 1
 153.33203125 365.606445312 l 1
EndSplineSet
Validated: 33
EndChar

StartChar: j.isol
Encoding: 103 -1 70
Width: 644
Flags: W
HStem: -32.2695 21G<209.695 274.234 371.005 435.545> 209.694 64.501<125.944 209.695 274.234 371.005 435.545 519.296> 496.159 20G<196.362 274.234 371.005 448.878>
VStem: 209.695 64.5391<-32.2695 209.694 274.195 399.861> 371.005 64.54<-32.2695 209.694 274.195 399.861>
LayerCount: 2
Fore
SplineSet
209.6953125 516.159179688 m 1
 274.234375 516.159179688 l 1
 274.234375 274.1953125 l 1
 371.004882812 274.1953125 l 1
 371.004882812 516.159179688 l 1
 435.544921875 516.159179688 l 1
 596.854492188 274.1953125 l 1
 596.854492188 209.694335938 l 1
 435.544921875 209.694335938 l 1
 435.544921875 -32.26953125 l 1
 371.004882812 -32.26953125 l 1
 371.004882812 209.694335938 l 1
 274.234375 209.694335938 l 1
 274.234375 -32.26953125 l 1
 209.6953125 -32.26953125 l 1
 209.6953125 209.694335938 l 1
 48.384765625 209.694335938 l 1
 48.384765625 274.1953125 l 1
 209.6953125 516.159179688 l 1
209.6953125 399.861328125 m 1
 125.944335938 274.1953125 l 1
 209.6953125 274.1953125 l 1
 209.6953125 399.861328125 l 1
435.544921875 399.861328125 m 1
 435.544921875 274.1953125 l 1
 519.295898438 274.1953125 l 1
 435.544921875 399.861328125 l 1
EndSplineSet
Validated: 1
EndChar

StartChar: k.isol
Encoding: 104 -1 71
Width: 461
Flags: W
HStem: -32.2705 21G<18.2979 98.8304> 334.85 20G<189.493 263.359> 334.85 20G<189.493 263.359>
VStem: 198.819 64.54<-202.232 202.192>
LayerCount: 2
Fore
SplineSet
198.819335938 354.849609375 m 1xd0
 263.359375 354.849609375 l 1
 263.359375 -202.232421875 l 1
 372.671875 32.23046875 l 1
 443.879882812 32.23046875 l 1
 263.359375 -354.889648438 l 1
 198.819335938 -354.889648438 l 1
 198.819335938 202.192382812 l 1
 89.505859375 -32.2705078125 l 1
 18.2978515625 -32.2705078125 l 1
 198.819335938 354.849609375 l 1xd0
EndSplineSet
Validated: 1
EndChar

StartChar: l.isol
Encoding: 105 -1 72
Width: 366
Flags: W
HStem: -32.2705 64.501<112.925 241.727> 334.85 20G<48.3848 125.651> 334.85 20G<48.3848 125.651>
VStem: 48.3848 64.54<-354.89 -32.2705 32.2305 234.621>
LayerCount: 2
Fore
SplineSet
48.384765625 354.849609375 m 1xd0
 112.924804688 354.849609375 l 1
 318.213867188 32.23046875 l 1
 318.213867188 -32.2705078125 l 1
 112.924804688 -32.2705078125 l 1
 112.924804688 -354.889648438 l 1
 48.384765625 -354.889648438 l 1
 48.384765625 354.849609375 l 1xd0
112.924804688 234.62109375 m 1
 112.924804688 32.23046875 l 1
 241.7265625 32.23046875 l 1
 112.924804688 234.62109375 l 1
EndSplineSet
Validated: 1
EndChar

StartChar: m.isol
Encoding: 106 -1 73
Width: 322
Flags: W
HStem: -32.2695 21G<209.695 274.235> 334.85 181.31G<48.3857 88.3999> 334.85 20G<48.3857 88.386>
VStem: 209.695 64.54<-32.2695 202.074 274.195 363.384>
LayerCount: 2
Fore
SplineSet
209.6953125 202.07421875 m 1xd0
 48.3857421875 282.728515625 l 1
 48.3857421875 354.849609375 l 1xb0
 209.6953125 274.1953125 l 1
 209.6953125 363.383789062 l 1
 48.3857421875 444.0390625 l 1
 48.3857421875 516.159179688 l 1
 274.235351562 403.274414062 l 1
 274.235351562 -32.26953125 l 1
 209.6953125 -32.26953125 l 1
 209.6953125 202.07421875 l 1xd0
EndSplineSet
Validated: 1
EndChar

StartChar: n.isol
Encoding: 107 -1 74
Width: 483
Flags: W
HStem: -32.2695 21G<209.694 274.234 371.005 435.544> 334.85 181.31G<48.3848 88.399> 334.85 20G<48.3848 88.385>
VStem: 209.694 64.54<-32.2695 202.074 274.195 363.384> 371.005 64.5391<-32.2695 153.213>
LayerCount: 2
Fore
SplineSet
209.694335938 202.07421875 m 1xd8
 48.384765625 282.728515625 l 1
 48.384765625 354.849609375 l 1xb8
 209.694335938 274.1953125 l 1
 209.694335938 363.383789062 l 1
 48.384765625 444.0390625 l 1
 48.384765625 516.159179688 l 1
 274.234375 403.274414062 l 1
 274.234375 -32.26953125 l 1
 209.694335938 -32.26953125 l 1
 209.694335938 202.07421875 l 1xd8
371.004882812 153.212890625 m 1
 435.543945312 153.212890625 l 1
 435.543945312 -32.26953125 l 1
 371.004882812 -32.26953125 l 1
 371.004882812 153.212890625 l 1
EndSplineSet
Validated: 1
EndChar

StartChar: o.isol
Encoding: 108 -1 75
Width: 644
Flags: W
HStem: -32.2695 64.5<232.361 412.017> 451.659 64.5<233.223 412.878>
VStem: 48.3848 64.54<151.706 331.351> 532.314 64.54<152.564 332.21>
LayerCount: 2
Fore
SplineSet
322.620117188 516.159179688 m 0
 473.966796875 516.159179688 596.854492188 393.311523438 596.854492188 241.96484375 c 0
 596.854492188 90.6171875 473.966796875 -32.26953125 322.620117188 -32.26953125 c 0
 171.272460938 -32.26953125 48.384765625 90.6171875 48.384765625 241.96484375 c 0
 48.384765625 393.311523438 171.272460938 516.159179688 322.620117188 516.159179688 c 0
322.620117188 451.659179688 m 0
 206.876953125 451.659179688 112.924804688 357.66796875 112.924804688 241.96484375 c 0
 112.924804688 195.802734375 128.0078125 152.934570312 153.33203125 118.283203125 c 1
 153.33203125 118.283203125 446.102539062 411.33203125 446.30078125 411.252929688 c 1
 411.649414062 436.576171875 368.782226562 451.620117188 322.620117188 451.659179688 c 0
491.908203125 365.606445312 m 1
 491.908203125 365.606445312 199.13671875 72.5576171875 198.938476562 72.6767578125 c 1
 233.58984375 47.3134765625 276.45703125 32.26953125 322.620117188 32.23046875 c 0
 438.362304688 32.23046875 532.314453125 126.221679688 532.314453125 241.96484375 c 0
 532.314453125 288.086914062 517.231445312 330.995117188 491.908203125 365.606445312 c 1
EndSplineSet
Validated: 33
EndChar

StartChar: p.isol
Encoding: 109 -1 76
Width: 402
Flags: W
HStem: -32.2695 21G<48.3848 112.925 308.177 354.89> 209.694 64.501<177.425 263.597> 496.159 20G<48.3848 132.925>
VStem: 48.3848 64.54<-32.2695 182.981 274.195 424.907>
LayerCount: 2
Fore
SplineSet
48.384765625 516.159179688 m 1
 112.924804688 516.159179688 l 1
 354.889648438 274.1953125 l 1
 354.889648438 209.694335938 l 1
 177.424804688 209.694335938 l 1
 354.889648438 32.23046875 l 1
 354.889648438 -32.26953125 l 1
 328.176757812 -32.26953125 l 1
 112.924804688 182.981445312 l 1
 112.924804688 -32.26953125 l 1
 48.384765625 -32.26953125 l 1
 48.384765625 516.159179688 l 1
112.924804688 424.907226562 m 1
 112.924804688 274.1953125 l 1
 263.596679688 274.1953125 l 1
 112.924804688 424.907226562 l 1
EndSplineSet
Validated: 1
EndChar

StartChar: r.isol
Encoding: 110 -1 77
Width: 355
Flags: W
HStem: -32.2695 21G<48.3857 112.926 209.695 276.498> 496.159 20G<48.3857 132.926>
VStem: 48.3857 64.54<-32.2695 424.907> 209.695 66.8027<-32.2695 58.3455>
LayerCount: 2
Fore
SplineSet
48.3857421875 516.159179688 m 1
 112.92578125 516.159179688 l 1
 308.926757812 320.158203125 l 1
 217.673828125 320.158203125 l 1
 112.92578125 424.907226562 l 1
 112.92578125 -32.26953125 l 1
 48.3857421875 -32.26953125 l 1
 48.3857421875 516.159179688 l 1
276.498046875 32.23046875 m 1
 276.498046875 -32.26953125 l 1
 209.6953125 -32.26953125 l 1
 209.6953125 32.23046875 l 1
 242.124023438 153.212890625 l 1
 308.926757812 153.212890625 l 1
 276.498046875 32.23046875 l 1
EndSplineSet
Validated: 1
EndChar

StartChar: q.isol
Encoding: 111 -1 78
Width: 482
Flags: W
HStem: -32.2705 64.5<209.694 435.544> 290.35 64.5<112.925 435.544>
VStem: 48.3848 64.54<-32.2705 290.35>
LayerCount: 2
Fore
SplineSet
48.384765625 354.849609375 m 1
 435.543945312 354.849609375 l 1
 435.543945312 290.349609375 l 1
 112.924804688 290.349609375 l 1
 112.924804688 -32.2705078125 l 1
 48.384765625 -32.2705078125 l 1
 48.384765625 354.849609375 l 1
209.694335938 32.2294921875 m 1
 435.543945312 32.2294921875 l 1
 435.543945312 -32.2705078125 l 1
 209.694335938 -32.2705078125 l 1
 209.694335938 32.2294921875 l 1
EndSplineSet
Validated: 1
EndChar

StartChar: s.isol
Encoding: 112 -1 79
Width: 513
Flags: W
HStem: -32.2695 21G<3.21484 95.9719 418.405 511.198> 496.159 20G<48.3848 141.179>
LayerCount: 2
Fore
SplineSet
217.83203125 274.1953125 m 1
 48.384765625 516.159179688 l 1
 127.174804688 516.159179688 l 1
 511.198242188 -32.26953125 l 1
 432.409179688 -32.26953125 l 1
 257.20703125 217.951171875 l 1
 81.96484375 -32.26953125 l 1
 3.21484375 -32.26953125 l 1
 217.83203125 274.1953125 l 1
EndSplineSet
Validated: 1
EndChar

StartChar: t.isol
Encoding: 113 -1 80
Width: 483
Flags: W
HStem: -32.2695 21G<209.694 274.234> 290.35 64.5<48.3848 209.694 274.234 435.544> 496.159 20G<209.694 274.234>
VStem: 209.694 64.54<-32.2695 290.35 354.85 516.159>
LayerCount: 2
Fore
SplineSet
209.694335938 290.349609375 m 1
 48.384765625 290.349609375 l 1
 48.384765625 354.849609375 l 1
 209.694335938 354.849609375 l 1
 209.694335938 516.159179688 l 1
 274.234375 516.159179688 l 1
 274.234375 354.849609375 l 1
 435.543945312 354.849609375 l 1
 435.543945312 290.349609375 l 1
 274.234375 290.349609375 l 1
 274.234375 -32.26953125 l 1
 209.694335938 -32.26953125 l 1
 209.694335938 290.349609375 l 1
EndSplineSet
Validated: 1
EndChar

StartChar: u.isol
Encoding: 114 -1 81
Width: 644
Flags: W
HStem: -32.2695 64.5<232.361 412.878> 451.659 64.5<232.361 412.878>
VStem: 48.3848 64.54<151.706 332.21> 532.314 64.54<151.706 332.21>
LayerCount: 2
Fore
SplineSet
322.620117188 516.159179688 m 0
 473.966796875 516.159179688 596.854492188 393.311523438 596.854492188 241.96484375 c 0
 596.854492188 90.6171875 473.966796875 -32.26953125 322.620117188 -32.26953125 c 0
 171.272460938 -32.26953125 48.384765625 90.6171875 48.384765625 241.96484375 c 0
 48.384765625 393.311523438 171.272460938 516.159179688 322.620117188 516.159179688 c 0
322.620117188 451.659179688 m 0
 276.45703125 451.620117188 233.58984375 436.576171875 198.938476562 411.252929688 c 1
 322.620117188 287.571289062 l 1
 322.620117188 287.571289062 446.102539062 411.33203125 446.30078125 411.252929688 c 1
 411.649414062 436.576171875 368.782226562 451.620117188 322.620117188 451.659179688 c 0
153.33203125 365.606445312 m 1
 128.0078125 330.995117188 112.924804688 288.086914062 112.924804688 241.96484375 c 0
 112.924804688 195.802734375 128.0078125 152.934570312 153.33203125 118.283203125 c 1
 277.013671875 241.96484375 l 1
 153.33203125 365.606445312 l 1
491.908203125 365.606445312 m 1
 368.265625 241.96484375 l 1
 368.265625 241.96484375 492.026367188 118.481445312 491.908203125 118.283203125 c 1
 517.231445312 152.934570312 532.314453125 195.802734375 532.314453125 241.96484375 c 0
 532.314453125 288.086914062 517.231445312 330.995117188 491.908203125 365.606445312 c 1
322.620117188 196.318359375 m 1
 322.620117188 196.318359375 199.13671875 72.5576171875 198.938476562 72.6767578125 c 1
 233.58984375 47.3134765625 276.45703125 32.26953125 322.620117188 32.23046875 c 0
 368.782226562 32.26953125 411.649414062 47.3134765625 446.30078125 72.6767578125 c 1
 322.620117188 196.318359375 l 1
EndSplineSet
Validated: 33
EndChar

StartChar: v.isol
Encoding: 115 -1 82
Width: 612
Flags: W
HStem: -32.2695 21G<18.2979 98.83 513.781 594.313> 209.694 64.501<232.438 380.213> 496.159 20G<264.748 347.902>
LayerCount: 2
Fore
SplineSet
274.075195312 516.159179688 m 1
 338.576171875 516.159179688 l 1
 594.313476562 -32.26953125 l 1
 523.10546875 -32.26953125 l 1
 410.299804688 209.694335938 l 1
 202.311523438 209.694335938 l 1
 89.505859375 -32.26953125 l 1
 18.2978515625 -32.26953125 l 1
 274.075195312 516.159179688 l 1
306.305664062 432.686523438 m 1
 232.438476562 274.1953125 l 1
 380.212890625 274.1953125 l 1
 306.305664062 432.686523438 l 1
EndSplineSet
Validated: 1
EndChar

StartChar: w.isol
Encoding: 116 -1 83
Width: 483
Flags: W
HStem: -32.2695 21G<209.694 274.234 371.005 435.544> 209.694 64.501<125.943 209.694 274.234 371.005> 496.159 20G<196.361 274.234>
VStem: 209.694 64.54<-32.2695 209.694 274.195 399.861> 371.005 64.5391<-32.2695 209.694>
LayerCount: 2
Fore
SplineSet
209.694335938 516.159179688 m 1
 274.234375 516.159179688 l 1
 274.234375 274.1953125 l 1
 435.543945312 274.1953125 l 1
 435.543945312 -32.26953125 l 1
 371.004882812 -32.26953125 l 1
 371.004882812 209.694335938 l 1
 274.234375 209.694335938 l 1
 274.234375 -32.26953125 l 1
 209.694335938 -32.26953125 l 1
 209.694335938 209.694335938 l 1
 48.384765625 209.694335938 l 1
 48.384765625 274.1953125 l 1
 209.694335938 516.159179688 l 1
209.694335938 399.861328125 m 1
 125.943359375 274.1953125 l 1
 209.694335938 274.1953125 l 1
 209.694335938 399.861328125 l 1
EndSplineSet
Validated: 1
EndChar

StartChar: x.isol
Encoding: 117 -1 84
Width: 548
Flags: W
HStem: -32.2705 21G<48.3848 112.925 435.545 500.045> 131.421 65.373<188.905 241.965 306.505 359.565> 334.85 20G<48.3848 112.925 435.545 500.045> 334.85 20G<48.3848 112.925 435.545 500.045>
VStem: 48.3848 64.54<-32.2705 197.032 274.482 354.85> 241.965 64.54<64.5 135.331 196.794 258.079> 435.545 64.5<-32.2705 197.032 274.482 354.85>
LayerCount: 2
Fore
SplineSet
48.384765625 354.849609375 m 1xee
 112.924804688 354.849609375 l 1
 112.924804688 276.814453125 168.3359375 211.71875 241.96484375 196.793945312 c 1
 241.96484375 258.079101562 l 1
 306.504882812 258.079101562 l 1
 306.504882812 196.793945312 l 1
 380.133789062 211.71875 435.544921875 276.814453125 435.544921875 354.849609375 c 1
 500.044921875 354.849609375 l 1
 500.044921875 -32.2705078125 l 1
 435.544921875 -32.2705078125 l 1
 435.544921875 197.032226562 l 1
 400.694335938 161.348632812 355.247070312 138.486328125 306.504882812 131.420898438 c 2
 306.504882812 64.5 l 1
 241.96484375 64.5 l 1
 241.96484375 131.420898438 l 2
 193.22265625 138.526367188 147.774414062 161.348632812 112.924804688 197.032226562 c 1
 112.924804688 -32.2705078125 l 1
 48.384765625 -32.2705078125 l 1
 48.384765625 354.849609375 l 1xee
EndSplineSet
Validated: 1
EndChar

StartChar: y.isol
Encoding: 118 -1 85
Width: 644
Flags: W
HStem: -32.2695 64.5<233.021 412.215> 209.694 64.501<115.765 529.774> 451.659 64.5<233.021 412.215>
VStem: 529.774 67.0801<147.747 209.694 274.195 336.143>
CounterMasks: 1 e0
LayerCount: 2
Fore
SplineSet
322.620117188 516.159179688 m 0
 473.966796875 516.159179688 596.854492188 393.311523438 596.854492188 241.96484375 c 0
 596.854492188 90.6171875 473.966796875 -32.26953125 322.620117188 -32.26953125 c 0
 171.272460938 -32.26953125 48.384765625 90.6171875 48.384765625 241.96484375 c 0
 48.384765625 393.311523438 171.272460938 516.159179688 322.620117188 516.159179688 c 0
322.620117188 451.659179688 m 0
 217.951171875 451.620117188 131.064453125 374.537109375 115.46484375 274.1953125 c 1
 115.46484375 274.1953125 529.734375 274.432617188 529.774414062 274.1953125 c 1
 514.135742188 374.537109375 427.288085938 451.620117188 322.620117188 451.659179688 c 0
115.46484375 209.694335938 m 1
 131.064453125 109.352539062 217.951171875 32.26953125 322.620117188 32.23046875 c 0
 427.288085938 32.26953125 514.135742188 109.352539062 529.774414062 209.694335938 c 1
 115.46484375 209.694335938 l 1
EndSplineSet
Validated: 33
EndChar

StartChar: z.isol
Encoding: 119 -1 86
Width: 548
Flags: W
HStem: -32.2705 21G<48.3848 112.925 435.545 500.045> 129.039 64.501<194.212 354.248> 334.85 20G<48.3848 112.925 435.545 500.045> 334.85 20G<48.3848 112.925 435.545 500.045>
VStem: 48.3848 64.54<-32.2705 197.032 274.565 354.85> 435.545 64.5<-32.2705 197.032 274.565 354.85>
LayerCount: 2
Fore
SplineSet
48.384765625 354.849609375 m 1xec
 112.924804688 354.849609375 l 1
 112.924804688 265.779296875 185.125 193.540039062 274.234375 193.540039062 c 0
 363.3046875 193.540039062 435.544921875 265.779296875 435.544921875 354.849609375 c 1
 500.044921875 354.849609375 l 1
 500.044921875 -32.2705078125 l 1
 435.544921875 -32.2705078125 l 1
 435.544921875 197.032226562 l 1
 393.11328125 153.609375 334.963867188 129.079101562 274.234375 129.0390625 c 0
 213.505859375 129.079101562 155.356445312 153.609375 112.924804688 197.032226562 c 1
 112.924804688 -32.2705078125 l 1
 48.384765625 -32.2705078125 l 1
 48.384765625 354.849609375 l 1xec
EndSplineSet
Validated: 1
EndChar

StartChar: numbersign.isol
Encoding: 120 -1 87
Width: 595
Flags: W
HStem: -32.2705 64.5<259.39 356.16> 290.35 64.5<112.925 476.547>
VStem: 48.3857 64.5391<-32.2705 290.35>
LayerCount: 2
Fore
SplineSet
48.3857421875 354.849609375 m 1
 547.715820312 354.849609375 l 1
 547.715820312 290.349609375 l 1
 397.28125 -32.2705078125 l 1
 188.181640625 -32.2705078125 l 1
 188.181640625 32.2294921875 l 1
 244.624023438 153.211914062 l 1
 315.79296875 153.211914062 l 1
 259.389648438 32.2294921875 l 1
 356.16015625 32.2294921875 l 1
 476.546875 290.349609375 l 1
 112.924804688 290.349609375 l 1
 112.924804688 -32.2705078125 l 1
 48.3857421875 -32.2705078125 l 1
 48.3857421875 354.849609375 l 1
EndSplineSet
Validated: 1
EndChar

StartChar: exclam.isol
Encoding: 121 -1 88
Width: 338
Flags: W
HStem: -153.253 306.466
VStem: 16.1152 306.504
LayerCount: 2
Fore
SplineSet
169.3671875 153.212890625 m 1
 322.619140625 0 l 1
 169.3671875 -153.252929688 l 1
 16.115234375 0 l 1
 169.3671875 153.212890625 l 1
169.3671875 61.9990234375 m 1
 107.368164062 0 l 1
 169.3671875 -62 l 1
 231.366210938 0 l 1
 169.3671875 61.9990234375 l 1
EndSplineSet
Validated: 1
EndChar

StartChar: comma.isol
Encoding: 122 -1 89
Width: 281
Flags: W
HStem: -153.253 185.483
VStem: 48.3848 185.522
LayerCount: 2
Fore
SplineSet
142.654296875 32.23046875 m 1
 233.907226562 32.23046875 l 1
 48.384765625 -153.252929688 l 1
 48.384765625 -62 l 1
 142.654296875 32.23046875 l 1
EndSplineSet
Validated: 1
EndChar

StartChar: period.isol
Encoding: 123 -1 90
Width: 338
Flags: W
HStem: -153.253 185.483
VStem: 48.3857 241.965
LayerCount: 2
Fore
SplineSet
142.655273438 32.23046875 m 1
 196.120117188 32.23046875 l 1
 290.350585938 -62 l 1
 290.350585938 -153.252929688 l 1
 169.368164062 -32.2705078125 l 1
 48.3857421875 -153.252929688 l 1
 48.3857421875 -62 l 1
 142.655273438 32.23046875 l 1
EndSplineSet
Validated: 1
EndChar

StartChar: question.isol
Encoding: 124 -1 91
Width: 338
Flags: W
HStem: -126.539 64.5391<122.746 215.989> 61.999 64.5<122.746 215.989>
VStem: 42.8281 64.54<-46.6298 46.6185> 231.367 64.54<-46.6298 46.6185>
LayerCount: 2
Fore
SplineSet
169.3671875 126.499023438 m 0
 239.186523438 126.499023438 295.907226562 69.818359375 295.907226562 0 c 0
 295.907226562 -69.8583984375 239.186523438 -126.5390625 169.3671875 -126.5390625 c 0
 99.548828125 -126.5390625 42.828125 -69.8583984375 42.828125 0 c 0
 42.828125 69.818359375 99.548828125 126.499023438 169.3671875 126.499023438 c 0
169.3671875 61.9990234375 m 0
 135.15234375 61.9990234375 107.368164062 34.21484375 107.368164062 0 c 0
 107.368164062 -34.21484375 135.15234375 -62 169.3671875 -62 c 0
 203.58203125 -62 231.3671875 -34.21484375 231.3671875 0 c 0
 231.3671875 34.21484375 203.58203125 61.9990234375 169.3671875 61.9990234375 c 0
EndSplineSet
Validated: 1
EndChar

StartChar: a.fina
Encoding: 125 -1 92
Width: 644
Flags: W
HStem: -32.2695 64.5<0.106156 146.307 231.738 410.533> 451.659 64.5<233.223 412.017>
VStem: 48.3848 64.54<151.466 331.351> 532.314 64.54<152.564 331.351>
LayerCount: 2
Fore
SplineSet
322.620117188 516.159179688 m 0
 473.966796875 516.159179688 596.854492188 393.311523438 596.854492188 241.96484375 c 0
 596.854492188 90.6171875 473.966796875 -32.26953125 322.620117188 -32.26953125 c 2
 0 -32.26953125 l 1
 0 0 l 1
 0 32.23046875 l 1
 0 32.23046875 146.46484375 32.1904296875 146.306640625 32.23046875 c 0
 86.4501953125 82.48046875 48.50390625 157.77734375 48.384765625 241.96484375 c 0
 48.384765625 393.311523438 171.272460938 516.159179688 322.620117188 516.159179688 c 0
322.620117188 451.659179688 m 0
 206.876953125 451.659179688 112.924804688 357.66796875 112.924804688 241.96484375 c 0
 112.924804688 126.221679688 206.876953125 32.23046875 322.620117188 32.23046875 c 0
 438.362304688 32.23046875 532.314453125 126.221679688 532.314453125 241.96484375 c 0
 532.314453125 357.66796875 438.362304688 451.659179688 322.620117188 451.659179688 c 0
EndSplineSet
Validated: 33
EndChar

StartChar: b.fina
Encoding: 126 -1 93
Width: 516
Flags: W
HStem: -32.2695 64.5<0 81.0918> 451.659 64.5<128.365 388.271>
LayerCount: 2
Fore
SplineSet
48.384765625 516.159179688 m 5
 468.250976562 516.159179688 l 5
 468.250976562 451.659179688 l 5
 298.288085938 219.618164062 l 5
 482.778320312 -32.26953125 l 5
 402.837890625 -32.26953125 l 5
 258.318359375 165.041015625 l 5
 113.797851562 -32.26953125 l 5
 0 -32.26953125 l 5
 0 0 l 5
 0 32.23046875 l 5
 81.091796875 32.23046875 l 5
 218.34765625 219.618164062 l 5
 48.384765625 451.659179688 l 5
 48.384765625 516.159179688 l 5
128.365234375 451.659179688 m 5
 258.318359375 274.1953125 l 5
 388.270507812 451.659179688 l 5
 128.365234375 451.659179688 l 5
EndSplineSet
Validated: 1
EndChar

StartChar: c.fina
Encoding: 127 -1 94
Width: 698
Flags: W
HStem: -32.2695 64.5<0 274.909> 375.455 20G<105.064 151.23 237.309 283.466 415.342 461.514 547.563 593.744>
LayerCount: 2
Fore
SplineSet
139.676757812 395.455078125 m 1
 188.1015625 311.625 l 1
 271.931640625 360.049804688 l 1
 304.162109375 304.163085938 l 1
 220.33203125 255.778320312 l 1
 349.411132812 32.23046875 l 1
 478.451171875 255.778320312 l 1
 394.62109375 304.163085938 l 1
 426.890625 360.049804688 l 1
 510.721679688 311.625 l 1
 559.106445312 395.455078125 l 1
 614.993164062 363.185546875 l 1
 566.608398438 279.39453125 l 1
 650.3984375 230.969726562 l 1
 618.12890625 175.123046875 l 1
 534.338867188 223.5078125 l 1
 386.682617188 -32.26953125 l 1
 0 -32.26953125 l 1
 0 0 l 1
 0 32.23046875 l 1
 274.909179688 32.23046875 l 1
 164.484375 223.5078125 l 1
 80.654296875 175.123046875 l 1
 48.384765625 230.969726562 l 1
 132.21484375 279.39453125 l 1
 83.830078125 363.185546875 l 1
 139.676757812 395.455078125 l 1
EndSplineSet
Validated: 1
EndChar

StartChar: d.fina
Encoding: 128 -1 95
Width: 257
Flags: W
HStem: -32.2695 64.5<0 96.7705> 496.159 20G<96.7705 161.311>
VStem: 96.7705 64.54<32.2305 516.159>
LayerCount: 2
Fore
SplineSet
0 32.23046875 m 5
 96.7705078125 32.23046875 l 5
 96.7705078125 516.159179688 l 5
 161.310546875 516.159179688 l 5
 161.310546875 -32.26953125 l 5
 0 -32.26953125 l 5
 0 0 l 5
 0 32.23046875 l 5
EndSplineSet
Validated: 1
EndChar

StartChar: e.fina
Encoding: 129 -1 96
Width: 644
Flags: W
HStem: -32.2695 64.5<0.106156 146.307 232.549 290.35> 496.159 20G<246.946 405.041>
VStem: 48.3848 64.54<151.259 331.557> 532.314 64.54<152.366 331.557>
LayerCount: 2
Fore
SplineSet
322.620117188 516.159179688 m 4
 473.966796875 516.159179688 596.854492188 393.311523438 596.854492188 241.96484375 c 4
 596.854492188 90.6171875 473.966796875 -32.26953125 322.620117188 -32.26953125 c 6
 0 -32.26953125 l 5
 0 0 l 5
 0 32.23046875 l 5
 0 32.23046875 146.46484375 32.1904296875 146.306640625 32.23046875 c 4
 86.4501953125 82.48046875 48.50390625 157.77734375 48.384765625 241.96484375 c 4
 48.384765625 393.311523438 171.272460938 516.159179688 322.620117188 516.159179688 c 4
290.349609375 449.119140625 m 5
 190.046875 433.48046875 112.924804688 346.633789062 112.924804688 241.96484375 c 4
 112.924804688 137.255859375 190.046875 50.4091796875 290.349609375 34.7705078125 c 5
 290.349609375 449.119140625 l 5
354.889648438 449.079101562 m 5
 354.889648438 449.079101562 355.087890625 34.810546875 354.889648438 34.810546875 c 5
 455.192382812 50.4091796875 532.275390625 137.295898438 532.314453125 241.96484375 c 4
 532.275390625 346.633789062 455.192382812 433.48046875 354.889648438 449.079101562 c 5
EndSplineSet
Validated: 33
EndChar

StartChar: f.fina
Encoding: 130 -1 97
Width: 366
Flags: W
HStem: -32.2705 64.501<0 48.3848 112.925 241.687> 334.85 20G<48.3848 125.652> 334.85 20G<48.3848 125.652>
VStem: 48.3848 64.54<-234.661 -32.2705 32.2305 234.621>
LayerCount: 2
Fore
SplineSet
48.384765625 354.849609375 m 1xd0
 112.924804688 354.849609375 l 1
 338.734375 0 l 1
 112.924804688 -354.889648438 l 1
 48.384765625 -354.889648438 l 1
 48.384765625 -32.2705078125 l 1
 0 -32.2705078125 l 1
 0 0 l 1
 0 32.23046875 l 1
 48.384765625 32.23046875 l 1
 48.384765625 354.849609375 l 1xd0
112.924804688 234.62109375 m 1
 112.924804688 32.23046875 l 1
 241.686523438 32.23046875 l 1
 112.924804688 234.62109375 l 1
112.924804688 -32.2705078125 m 1
 112.924804688 -234.661132812 l 1
 241.686523438 -32.2705078125 l 1
 112.924804688 -32.2705078125 l 1
EndSplineSet
Validated: 1
EndChar

StartChar: g.fina
Encoding: 131 -1 98
Width: 677
Flags: W
HStem: -32.2705 64.5<0 197.391> 290.35 64.5<122.888 554.622>
LayerCount: 2
Fore
SplineSet
48.3857421875 354.849609375 m 5
 629.125 354.849609375 l 5
 629.125 290.349609375 l 5
 442.848632812 -32.2705078125 l 5
 405.577148438 -32.2705078125 l 5
 405.577148438 32.2294921875 l 5
 554.622070312 290.349609375 l 5
 122.887695312 290.349609375 l 5
 271.932617188 32.2294921875 l 5
 271.932617188 -32.2705078125 l 5
 0 -32.2705078125 l 5
 0 0 l 5
 0 32.2294921875 l 5
 197.390625 32.2294921875 l 5
 48.3857421875 290.349609375 l 5
 48.3857421875 354.849609375 l 5
EndSplineSet
Validated: 1
EndChar

StartChar: h.fina
Encoding: 132 -1 99
Width: 483
Flags: W
HStem: -32.2695 64.5<0 209.694> 404.352 111.808G<48.3848 98.4025 209.694 274.234 385.526 435.544>
VStem: 209.694 64.54<32.2305 290.35 359.851 516.159>
LayerCount: 2
Fore
SplineSet
0 32.23046875 m 5
 209.694335938 32.23046875 l 5
 209.694335938 290.349609375 l 5
 48.384765625 354.849609375 l 5
 48.384765625 424.3515625 l 5
 209.694335938 359.850585938 l 5
 209.694335938 516.159179688 l 5
 274.234375 516.159179688 l 5
 274.234375 359.850585938 l 5
 435.543945312 424.3515625 l 5
 435.543945312 354.849609375 l 5
 274.234375 290.349609375 l 5
 274.234375 -32.26953125 l 5
 0 -32.26953125 l 5
 0 0 l 5
 0 32.23046875 l 5
EndSplineSet
Validated: 1
EndChar

StartChar: i.fina
Encoding: 133 -1 100
Width: 644
Flags: W
HStem: -32.2695 64.5<0.106156 146.307 231.738 410.533> 451.659 64.5<232.361 412.017>
VStem: 48.3848 64.54<151.466 332.202> 532.314 64.54<151.706 331.351>
LayerCount: 2
Fore
SplineSet
322.620117188 516.159179688 m 4
 473.966796875 516.159179688 596.854492188 393.311523438 596.854492188 241.96484375 c 4
 596.854492188 90.6171875 473.966796875 -32.26953125 322.620117188 -32.26953125 c 6
 0 -32.26953125 l 5
 0 0 l 5
 0 32.23046875 l 5
 0 32.23046875 146.46484375 32.1904296875 146.306640625 32.23046875 c 4
 86.4501953125 82.48046875 48.50390625 157.77734375 48.384765625 241.96484375 c 4
 48.384765625 393.311523438 171.272460938 516.159179688 322.620117188 516.159179688 c 4
322.620117188 451.659179688 m 4
 276.45703125 451.620117188 233.58984375 436.576171875 198.938476562 411.252929688 c 5
 198.938476562 411.252929688 492.026367188 118.481445312 491.908203125 118.283203125 c 5
 517.231445312 152.934570312 532.314453125 195.802734375 532.314453125 241.96484375 c 4
 532.314453125 357.66796875 438.362304688 451.659179688 322.620117188 451.659179688 c 4
153.33203125 365.606445312 m 5
 128.0078125 330.955078125 112.924804688 288.086914062 112.924804688 241.96484375 c 4
 112.924804688 126.221679688 206.876953125 32.23046875 322.620117188 32.23046875 c 4
 368.782226562 32.26953125 411.649414062 47.3525390625 446.26171875 72.6767578125 c 5
 153.33203125 365.606445312 l 5
EndSplineSet
Validated: 33
EndChar

StartChar: j.fina
Encoding: 134 -1 101
Width: 644
Flags: W
HStem: -32.2695 64.5<0 209.695> 209.694 64.501<125.944 209.695 274.234 371.005 435.545 519.296> 496.159 20G<196.362 274.234 371.005 448.878>
VStem: 209.695 64.5391<32.2305 209.694 274.195 399.861> 371.005 64.54<-32.2695 209.694 274.195 399.861>
LayerCount: 2
Fore
SplineSet
209.6953125 516.159179688 m 5
 274.234375 516.159179688 l 5
 274.234375 274.1953125 l 5
 371.004882812 274.1953125 l 5
 371.004882812 516.159179688 l 5
 435.544921875 516.159179688 l 5
 596.854492188 274.1953125 l 5
 596.854492188 209.694335938 l 5
 435.544921875 209.694335938 l 5
 435.544921875 -32.26953125 l 5
 371.004882812 -32.26953125 l 5
 371.004882812 209.694335938 l 5
 274.234375 209.694335938 l 5
 274.234375 -32.26953125 l 5
 0 -32.26953125 l 5
 0 0 l 5
 0 32.23046875 l 5
 209.6953125 32.23046875 l 5
 209.6953125 209.694335938 l 5
 48.384765625 209.694335938 l 5
 48.384765625 274.1953125 l 5
 209.6953125 516.159179688 l 5
209.6953125 399.861328125 m 5
 125.944335938 274.1953125 l 5
 209.6953125 274.1953125 l 5
 209.6953125 399.861328125 l 5
435.544921875 399.861328125 m 5
 435.544921875 274.1953125 l 5
 519.295898438 274.1953125 l 5
 435.544921875 399.861328125 l 5
EndSplineSet
Validated: 1
EndChar

StartChar: k.fina
Encoding: 135 -1 102
Width: 461
Flags: W
HStem: -32.2705 64.501<0 48.3848> 334.85 20G<189.494 263.359> 334.85 20G<189.494 263.359>
VStem: 198.819 64.54<-202.232 202.192>
LayerCount: 2
Fore
SplineSet
0 32.23046875 m 5xd0
 48.384765625 32.23046875 l 5
 198.819335938 354.849609375 l 5
 263.359375 354.849609375 l 5
 263.359375 -202.232421875 l 5
 372.671875 32.23046875 l 5
 443.879882812 32.23046875 l 5
 263.359375 -354.889648438 l 5
 198.819335938 -354.889648438 l 5
 198.819335938 202.192382812 l 5
 89.505859375 -32.2705078125 l 5
 0 -32.2705078125 l 5
 0 0 l 5
 0 32.23046875 l 5xd0
EndSplineSet
Validated: 1
EndChar

StartChar: l.fina
Encoding: 136 -1 103
Width: 366
Flags: W
HStem: -32.2705 64.501<0 48.3848 112.925 241.727> 334.85 20G<48.3848 125.651> 334.85 20G<48.3848 125.651>
VStem: 48.3848 64.54<-354.89 -32.2705 32.2305 234.621>
LayerCount: 2
Fore
SplineSet
48.384765625 354.849609375 m 5xd0
 112.924804688 354.849609375 l 5
 318.213867188 32.23046875 l 5
 318.213867188 -32.2705078125 l 5
 112.924804688 -32.2705078125 l 5
 112.924804688 -354.889648438 l 5
 48.384765625 -354.889648438 l 5
 48.384765625 -32.2705078125 l 5
 0 -32.2705078125 l 5
 0 0 l 5
 0 32.23046875 l 5
 48.384765625 32.23046875 l 5
 48.384765625 354.849609375 l 5xd0
112.924804688 234.62109375 m 5
 112.924804688 32.23046875 l 5
 241.7265625 32.23046875 l 5
 112.924804688 234.62109375 l 5
EndSplineSet
Validated: 1
EndChar

StartChar: m.fina
Encoding: 137 -1 104
Width: 322
Flags: W
HStem: -32.2695 64.5<0 209.695> 334.85 181.31G<48.3857 88.3999> 334.85 20G<48.3857 88.386>
VStem: 209.695 64.54<32.2305 202.074 274.195 363.384>
LayerCount: 2
Fore
SplineSet
0 32.23046875 m 5xd0
 209.6953125 32.23046875 l 5
 209.6953125 202.07421875 l 5
 48.3857421875 282.728515625 l 5
 48.3857421875 354.849609375 l 5xb0
 209.6953125 274.1953125 l 5
 209.6953125 363.383789062 l 5
 48.3857421875 444.0390625 l 5
 48.3857421875 516.159179688 l 5
 274.235351562 403.274414062 l 5
 274.235351562 -32.26953125 l 5
 0 -32.26953125 l 5
 0 0 l 5
 0 32.23046875 l 5xd0
EndSplineSet
Validated: 1
EndChar

StartChar: n.fina
Encoding: 138 -1 105
Width: 483
Flags: W
HStem: -32.2695 64.5<0 209.694> 334.85 181.31G<48.3848 88.399> 334.85 20G<48.3848 88.385>
VStem: 209.694 64.54<32.2305 202.074 274.195 363.384> 371.005 64.5391<-32.2695 153.213>
LayerCount: 2
Fore
SplineSet
0 32.23046875 m 1xd8
 209.694335938 32.23046875 l 1
 209.694335938 202.07421875 l 1
 48.384765625 282.728515625 l 1
 48.384765625 354.849609375 l 1xb8
 209.694335938 274.1953125 l 1
 209.694335938 363.383789062 l 1
 48.384765625 444.0390625 l 1
 48.384765625 516.159179688 l 1
 274.234375 403.274414062 l 1
 274.234375 -32.26953125 l 1
 0 -32.26953125 l 1
 0 0 l 1
 0 32.23046875 l 1xd8
371.004882812 153.212890625 m 1
 435.543945312 153.212890625 l 1
 435.543945312 -32.26953125 l 1
 371.004882812 -32.26953125 l 1
 371.004882812 153.212890625 l 1
EndSplineSet
Validated: 1
EndChar

StartChar: o.fina
Encoding: 139 -1 106
Width: 644
Flags: W
HStem: -32.2695 64.5<0.106156 146.307 230.016 410.533> 451.659 64.5<233.223 412.878>
VStem: 48.3848 64.54<150.609 331.351> 532.314 64.54<152.564 332.21>
LayerCount: 2
Fore
SplineSet
322.620117188 516.159179688 m 4
 473.966796875 516.159179688 596.854492188 393.311523438 596.854492188 241.96484375 c 4
 596.854492188 90.6171875 473.966796875 -32.26953125 322.620117188 -32.26953125 c 6
 0 -32.26953125 l 5
 0 0 l 5
 0 32.23046875 l 5
 0 32.23046875 146.46484375 32.1904296875 146.306640625 32.23046875 c 4
 86.4501953125 82.48046875 48.50390625 157.77734375 48.384765625 241.96484375 c 4
 48.384765625 393.311523438 171.272460938 516.159179688 322.620117188 516.159179688 c 4
322.620117188 451.659179688 m 4
 206.876953125 451.659179688 112.924804688 357.66796875 112.924804688 241.96484375 c 4
 112.924804688 195.802734375 128.0078125 152.934570312 153.33203125 118.283203125 c 5
 153.33203125 118.283203125 446.102539062 411.33203125 446.30078125 411.252929688 c 5
 411.649414062 436.576171875 368.782226562 451.620117188 322.620117188 451.659179688 c 4
491.908203125 365.606445312 m 5
 491.908203125 365.606445312 199.13671875 72.5576171875 198.938476562 72.6767578125 c 5
 233.58984375 47.3134765625 276.45703125 32.26953125 322.620117188 32.23046875 c 4
 438.362304688 32.23046875 532.314453125 126.221679688 532.314453125 241.96484375 c 4
 532.314453125 288.086914062 517.231445312 330.995117188 491.908203125 365.606445312 c 5
EndSplineSet
Validated: 33
EndChar

StartChar: p.fina
Encoding: 140 -1 107
Width: 402
Flags: W
HStem: -32.2695 64.5<0 48.3848> 209.694 64.501<177.425 263.597> 496.159 20G<48.3848 132.925>
VStem: 0 112.925<-32.2695 32.2305> 48.3848 64.54<32.2305 182.981 274.195 424.907>
LayerCount: 2
Fore
SplineSet
48.384765625 516.159179688 m 5xe8
 112.924804688 516.159179688 l 5
 354.889648438 274.1953125 l 5
 354.889648438 209.694335938 l 5
 177.424804688 209.694335938 l 5
 354.889648438 32.23046875 l 5
 354.889648438 -32.26953125 l 5
 328.176757812 -32.26953125 l 5
 112.924804688 182.981445312 l 5xe8
 112.924804688 -32.26953125 l 5
 0 -32.26953125 l 5
 0 0 l 5
 0 32.23046875 l 5xf0
 48.384765625 32.23046875 l 5
 48.384765625 516.159179688 l 5xe8
112.924804688 424.907226562 m 5
 112.924804688 274.1953125 l 5
 263.596679688 274.1953125 l 5
 112.924804688 424.907226562 l 5
EndSplineSet
Validated: 1
EndChar

StartChar: q.fina
Encoding: 141 -1 108
Width: 482
Flags: W
HStem: -32.2705 64.5<0 48.3848 209.694 435.544> 290.35 64.5<112.925 435.544>
VStem: 0 112.925<-32.2705 32.2295> 48.3848 64.54<32.2295 290.35>
LayerCount: 2
Fore
SplineSet
0 32.2294921875 m 5xe0
 48.384765625 32.2294921875 l 5
 48.384765625 354.849609375 l 5
 435.543945312 354.849609375 l 5
 435.543945312 290.349609375 l 5
 112.924804688 290.349609375 l 5xd0
 112.924804688 -32.2705078125 l 5
 0 -32.2705078125 l 5
 0 0 l 5
 0 32.2294921875 l 5xe0
209.694335938 32.2294921875 m 5
 435.543945312 32.2294921875 l 5
 435.543945312 -32.2705078125 l 5
 209.694335938 -32.2705078125 l 5
 209.694335938 32.2294921875 l 5
EndSplineSet
Validated: 1
EndChar

StartChar: r.fina
Encoding: 142 -1 109
Width: 355
Flags: W
HStem: -32.2695 64.5<0 48.3857> 496.159 20G<48.3857 132.926>
VStem: 0 112.926<-32.2695 32.2305> 48.3857 64.54<32.2305 424.907> 209.695 66.8027<-32.2695 58.3455>
LayerCount: 2
Fore
SplineSet
0 32.23046875 m 5xe8
 48.3857421875 32.23046875 l 5
 48.3857421875 516.159179688 l 5
 112.92578125 516.159179688 l 5
 308.926757812 320.158203125 l 5
 217.673828125 320.158203125 l 5
 112.92578125 424.907226562 l 5xd8
 112.92578125 -32.26953125 l 5
 0 -32.26953125 l 5
 0 0 l 5
 0 32.23046875 l 5xe8
276.498046875 32.23046875 m 5
 276.498046875 -32.26953125 l 5
 209.6953125 -32.26953125 l 5
 209.6953125 32.23046875 l 5
 242.124023438 153.212890625 l 5
 308.926757812 153.212890625 l 5
 276.498046875 32.23046875 l 5
EndSplineSet
Validated: 1
EndChar

StartChar: s.fina
Encoding: 143 -1 110
Width: 513
Flags: W
HStem: -32.2695 64.5<0 48.3848> 496.159 20G<48.3848 141.179>
LayerCount: 2
Fore
SplineSet
0 32.23046875 m 5
 48.384765625 32.23046875 l 5
 217.83203125 274.1953125 l 5
 48.384765625 516.159179688 l 5
 127.174804688 516.159179688 l 5
 511.198242188 -32.26953125 l 5
 432.409179688 -32.26953125 l 5
 257.20703125 217.951171875 l 5
 81.96484375 -32.26953125 l 5
 0 -32.26953125 l 5
 0 0 l 5
 0 32.23046875 l 5
EndSplineSet
Validated: 1
EndChar

StartChar: t.fina
Encoding: 144 -1 111
Width: 483
Flags: W
HStem: -32.2695 64.5<0 209.694> 290.35 64.5<48.3848 209.694 274.234 435.544> 496.159 20G<209.694 274.234>
VStem: 209.694 64.54<32.2305 290.35 354.85 516.159>
LayerCount: 2
Fore
SplineSet
0 32.23046875 m 5
 209.694335938 32.23046875 l 5
 209.694335938 290.349609375 l 5
 48.384765625 290.349609375 l 5
 48.384765625 354.849609375 l 5
 209.694335938 354.849609375 l 5
 209.694335938 516.159179688 l 5
 274.234375 516.159179688 l 5
 274.234375 354.849609375 l 5
 435.543945312 354.849609375 l 5
 435.543945312 290.349609375 l 5
 274.234375 290.349609375 l 5
 274.234375 -32.26953125 l 5
 0 -32.26953125 l 5
 0 0 l 5
 0 32.23046875 l 5
EndSplineSet
Validated: 1
EndChar

StartChar: u.fina
Encoding: 145 -1 112
Width: 644
Flags: W
HStem: -32.2695 64.5<0.106156 146.307 230.016 410.533> 451.659 64.5<232.361 412.878>
VStem: 48.3848 64.54<150.609 332.21> 532.314 64.54<151.706 332.21>
LayerCount: 2
Fore
SplineSet
322.620117188 516.159179688 m 4
 473.966796875 516.159179688 596.854492188 393.311523438 596.854492188 241.96484375 c 4
 596.854492188 90.6171875 473.966796875 -32.26953125 322.620117188 -32.26953125 c 6
 0 -32.26953125 l 5
 0 0 l 5
 0 32.23046875 l 5
 0 32.23046875 146.46484375 32.1904296875 146.306640625 32.23046875 c 4
 86.4501953125 82.48046875 48.50390625 157.77734375 48.384765625 241.96484375 c 4
 48.384765625 393.311523438 171.272460938 516.159179688 322.620117188 516.159179688 c 4
322.620117188 451.659179688 m 4
 276.45703125 451.620117188 233.58984375 436.576171875 198.938476562 411.252929688 c 5
 322.620117188 287.571289062 l 5
 322.620117188 287.571289062 446.102539062 411.33203125 446.30078125 411.252929688 c 5
 411.649414062 436.576171875 368.782226562 451.620117188 322.620117188 451.659179688 c 4
153.33203125 365.606445312 m 5
 128.0078125 330.995117188 112.924804688 288.086914062 112.924804688 241.96484375 c 4
 112.924804688 195.802734375 128.0078125 152.934570312 153.33203125 118.283203125 c 5
 277.013671875 241.96484375 l 5
 153.33203125 365.606445312 l 5
491.908203125 365.606445312 m 5
 368.2265625 241.96484375 l 5
 368.2265625 241.96484375 492.026367188 118.481445312 491.908203125 118.283203125 c 5
 517.231445312 152.934570312 532.314453125 195.802734375 532.314453125 241.96484375 c 4
 532.314453125 288.086914062 517.231445312 330.995117188 491.908203125 365.606445312 c 5
322.620117188 196.318359375 m 5
 322.620117188 196.318359375 199.13671875 72.5576171875 198.938476562 72.6767578125 c 5
 233.58984375 47.3134765625 276.45703125 32.26953125 322.620117188 32.23046875 c 4
 368.782226562 32.26953125 411.649414062 47.3134765625 446.30078125 72.6767578125 c 5
 322.620117188 196.318359375 l 5
EndSplineSet
Validated: 33
EndChar

StartChar: v.fina
Encoding: 146 -1 113
Width: 612
Flags: W
HStem: -32.2695 64.5<0 48.3848> 209.694 64.501<232.438 380.213> 496.159 20G<264.748 347.902>
LayerCount: 2
Fore
SplineSet
274.075195312 516.159179688 m 5
 338.576171875 516.159179688 l 5
 594.313476562 -32.26953125 l 5
 523.10546875 -32.26953125 l 5
 410.299804688 209.694335938 l 5
 202.311523438 209.694335938 l 5
 89.505859375 -32.26953125 l 5
 0 -32.26953125 l 5
 0 0 l 5
 0 32.23046875 l 5
 48.384765625 32.23046875 l 5
 274.075195312 516.159179688 l 5
306.305664062 432.686523438 m 5
 232.438476562 274.1953125 l 5
 380.212890625 274.1953125 l 5
 306.305664062 432.686523438 l 5
EndSplineSet
Validated: 1
EndChar

StartChar: w.fina
Encoding: 147 -1 114
Width: 483
Flags: W
HStem: -32.2695 64.5<0 209.694> 209.694 64.501<125.943 209.694 274.234 371.005> 496.159 20G<196.361 274.234>
VStem: 209.694 64.54<32.2305 209.694 274.195 399.861> 371.005 64.5391<-32.2695 209.694>
LayerCount: 2
Fore
SplineSet
209.694335938 516.159179688 m 5
 274.234375 516.159179688 l 5
 274.234375 274.1953125 l 5
 435.543945312 274.1953125 l 5
 435.543945312 -32.26953125 l 5
 371.004882812 -32.26953125 l 5
 371.004882812 209.694335938 l 5
 274.234375 209.694335938 l 5
 274.234375 -32.26953125 l 5
 0 -32.26953125 l 5
 0 0 l 5
 0 32.23046875 l 5
 209.694335938 32.23046875 l 5
 209.694335938 209.694335938 l 5
 48.384765625 209.694335938 l 5
 48.384765625 274.1953125 l 5
 209.694335938 516.159179688 l 5
209.694335938 399.861328125 m 5
 125.943359375 274.1953125 l 5
 209.694335938 274.1953125 l 5
 209.694335938 399.861328125 l 5
EndSplineSet
Validated: 1
EndChar

StartChar: x.fina
Encoding: 148 -1 115
Width: 548
Flags: W
HStem: -32.2705 64.5<0 48.3848> 131.421 65.373<188.905 241.965 306.505 359.565> 334.85 20G<48.3848 112.925 435.545 500.045> 334.85 20G<48.3848 112.925 435.545 500.045>
VStem: 0 112.925<-32.2705 32.2295> 48.3848 64.54<32.2295 197.032 274.482 354.85> 241.965 64.54<64.5 135.331 196.794 258.079> 435.545 64.5<-32.2705 197.032 274.482 354.85>
LayerCount: 2
Fore
SplineSet
48.384765625 354.849609375 m 5xe7
 112.924804688 354.849609375 l 5
 112.924804688 276.814453125 168.3359375 211.71875 241.96484375 196.793945312 c 5
 241.96484375 258.079101562 l 5
 306.504882812 258.079101562 l 5
 306.504882812 196.793945312 l 5
 380.133789062 211.71875 435.544921875 276.814453125 435.544921875 354.849609375 c 5
 500.044921875 354.849609375 l 5
 500.044921875 -32.2705078125 l 5
 435.544921875 -32.2705078125 l 5
 435.544921875 197.032226562 l 5
 400.694335938 161.348632812 355.247070312 138.486328125 306.504882812 131.420898438 c 6
 306.504882812 64.5 l 5
 241.96484375 64.5 l 5
 241.96484375 131.420898438 l 6
 193.22265625 138.526367188 147.774414062 161.348632812 112.924804688 197.032226562 c 5xe7
 112.924804688 -32.2705078125 l 5
 0 -32.2705078125 l 5
 0 0 l 5
 0 32.2294921875 l 5xeb
 48.384765625 32.2294921875 l 5
 48.384765625 354.849609375 l 5xe7
EndSplineSet
Validated: 1
EndChar

StartChar: y.fina
Encoding: 149 -1 116
Width: 644
Flags: W
HStem: -32.2695 64.5<0.106156 146.307 231.335 410.533> 209.694 64.501<115.765 529.774> 451.659 64.5<233.021 412.215>
VStem: 529.774 67.0801<147.747 209.694 274.195 336.143>
CounterMasks: 1 e0
LayerCount: 2
Fore
SplineSet
322.620117188 516.159179688 m 4
 473.966796875 516.159179688 596.854492188 393.311523438 596.854492188 241.96484375 c 4
 596.854492188 90.6171875 473.966796875 -32.26953125 322.620117188 -32.26953125 c 6
 0 -32.26953125 l 5
 0 0 l 5
 0 32.23046875 l 5
 0 32.23046875 146.46484375 32.1904296875 146.306640625 32.23046875 c 4
 86.4501953125 82.48046875 48.50390625 157.77734375 48.384765625 241.96484375 c 4
 48.384765625 393.311523438 171.272460938 516.159179688 322.620117188 516.159179688 c 4
322.620117188 451.659179688 m 4
 217.951171875 451.620117188 131.064453125 374.537109375 115.46484375 274.1953125 c 5
 115.46484375 274.1953125 529.734375 274.432617188 529.774414062 274.1953125 c 5
 514.135742188 374.537109375 427.288085938 451.620117188 322.620117188 451.659179688 c 4
115.46484375 209.694335938 m 5
 131.064453125 109.352539062 217.951171875 32.26953125 322.620117188 32.23046875 c 4
 427.288085938 32.26953125 514.135742188 109.352539062 529.774414062 209.694335938 c 5
 115.46484375 209.694335938 l 5
EndSplineSet
Validated: 33
EndChar

StartChar: z.fina
Encoding: 150 -1 117
Width: 548
Flags: W
HStem: -32.2705 64.5<0 48.3848> 129.039 64.501<194.212 354.248> 334.85 20G<48.3848 112.925 435.545 500.045> 334.85 20G<48.3848 112.925 435.545 500.045>
VStem: 0 112.925<-32.2705 32.2295> 48.3848 64.54<32.2295 197.032 274.565 354.85> 435.545 64.5<-32.2705 197.032 274.565 354.85>
LayerCount: 2
Fore
SplineSet
48.384765625 354.849609375 m 5xe6
 112.924804688 354.849609375 l 5
 112.924804688 265.779296875 185.125 193.540039062 274.234375 193.540039062 c 4
 363.3046875 193.540039062 435.544921875 265.779296875 435.544921875 354.849609375 c 5
 500.044921875 354.849609375 l 5
 500.044921875 -32.2705078125 l 5
 435.544921875 -32.2705078125 l 5
 435.544921875 197.032226562 l 5
 393.11328125 153.609375 334.963867188 129.079101562 274.234375 129.0390625 c 4
 213.505859375 129.079101562 155.356445312 153.609375 112.924804688 197.032226562 c 5xe6
 112.924804688 -32.2705078125 l 5
 0 -32.2705078125 l 5
 0 0 l 5
 0 32.2294921875 l 5xea
 48.384765625 32.2294921875 l 5
 48.384765625 354.849609375 l 5xe6
EndSplineSet
Validated: 1
EndChar

StartChar: numbersign.fina
Encoding: 151 -1 118
Width: 595
Flags: W
HStem: -32.2705 64.5<0 48.3857 259.39 356.16> 290.35 64.5<112.925 476.547>
VStem: 0 112.925<-32.2705 32.2295> 48.3857 64.5391<32.2295 290.35>
LayerCount: 2
Fore
SplineSet
0 32.2294921875 m 5xe0
 48.3857421875 32.2294921875 l 5
 48.3857421875 354.849609375 l 5
 547.715820312 354.849609375 l 5
 547.715820312 290.349609375 l 5
 397.28125 -32.2705078125 l 5
 188.181640625 -32.2705078125 l 5
 188.181640625 32.2294921875 l 5
 244.624023438 153.211914062 l 5
 315.79296875 153.211914062 l 5
 259.389648438 32.2294921875 l 5
 356.16015625 32.2294921875 l 5
 476.546875 290.349609375 l 5
 112.924804688 290.349609375 l 5xd0
 112.924804688 -32.2705078125 l 5
 0 -32.2705078125 l 5
 0 0 l 5
 0 32.2294921875 l 5xe0
EndSplineSet
Validated: 1
EndChar

StartChar: exclam.fina
Encoding: 152 -1 119
Width: 338
Flags: W
HStem: -32.2705 64.501<0 48.3848>
VStem: 0 322.619
LayerCount: 2
Fore
SplineSet
169.3671875 153.212890625 m 1
 322.619140625 0 l 1
 169.3671875 -153.252929688 l 1
 48.384765625 -32.2705078125 l 1
 0 -32.2705078125 l 1
 0 0 l 1
 0 32.23046875 l 1
 48.384765625 32.23046875 l 1
 169.3671875 153.212890625 l 1
169.3671875 61.9990234375 m 1
 107.368164062 0 l 1
 169.3671875 -62 l 1
 231.366210938 0 l 1
 169.3671875 61.9990234375 l 1
EndSplineSet
Validated: 1
EndChar

StartChar: comma.fina
Encoding: 153 -1 120
Width: 281
Flags: W
HStem: -32.2705 64.501<0 78.1152>
VStem: 0 233.907
LayerCount: 2
Fore
SplineSet
0 32.23046875 m 1
 233.907226562 32.23046875 l 1
 48.3857421875 -153.252929688 l 1
 48.3857421875 -62 l 1
 78.115234375 -32.2705078125 l 1
 0 -32.2705078125 l 1
 0 0 l 1
 0 32.23046875 l 1
EndSplineSet
Validated: 1
EndChar

StartChar: period.fina
Encoding: 154 -1 121
Width: 338
Flags: W
HStem: -32.2705 64.501<0 78.1143>
VStem: 0 290.35
LayerCount: 2
Fore
SplineSet
0 32.23046875 m 1
 196.120117188 32.23046875 l 1
 290.349609375 -62 l 1
 290.349609375 -153.252929688 l 1
 169.3671875 -32.2705078125 l 1
 48.384765625 -153.252929688 l 1
 48.384765625 -62 l 1
 78.1142578125 -32.2705078125 l 1
 0 -32.2705078125 l 1
 0 0 l 1
 0 32.23046875 l 1
EndSplineSet
Validated: 1
EndChar

StartChar: question.fina
Encoding: 155 -1 122
Width: 338
Flags: W
HStem: -126.539 64.5391<122.607 215.989> 61.999 64.5<122.607 215.989>
VStem: 0 107.368<-32.1373 32.1371> 231.366 64.54<-46.6298 46.6185>
LayerCount: 2
Fore
SplineSet
169.3671875 126.499023438 m 0
 239.186523438 126.499023438 295.90625 69.818359375 295.90625 0 c 0
 295.90625 -69.8583984375 239.186523438 -126.5390625 169.3671875 -126.5390625 c 0
 110.78125 -126.459960938 61.5234375 -86.41015625 47.2333984375 -32.2705078125 c 2
 0 -32.2705078125 l 1
 0 0 l 1
 0 32.23046875 l 1
 0 32.23046875 47.2333984375 32.26953125 47.2333984375 32.23046875 c 1
 61.5234375 86.3701171875 110.78125 126.419921875 169.3671875 126.499023438 c 0
169.3671875 61.9990234375 m 0
 135.15234375 61.9990234375 107.368164062 34.21484375 107.368164062 0 c 0
 107.368164062 -34.21484375 135.15234375 -62 169.3671875 -62 c 0
 203.58203125 -62 231.366210938 -34.21484375 231.366210938 0 c 0
 231.366210938 34.21484375 203.58203125 61.9990234375 169.3671875 61.9990234375 c 0
EndSplineSet
Validated: 33
EndChar

StartChar: question
Encoding: 10 63 123
Width: 338
Flags: W
HStem: -126.539 64.5391<122.607 216.167> 61.999 64.5<122.607 216.167>
VStem: 0 107.368<-32.1373 32.1371> 231.366 110.634<-32.1373 32.1371>
LayerCount: 2
Fore
SplineSet
169.3671875 126.499023438 m 0
 228.032226562 126.499023438 277.44921875 86.4501953125 291.739257812 32.23046875 c 1
 342 32.23046875 l 1
 342 -32.2705078125 l 1
 342 -32.2705078125 291.739257812 -32.3095703125 291.739257812 -32.2705078125 c 1
 277.44921875 -86.490234375 228.032226562 -126.5390625 169.3671875 -126.5390625 c 0
 110.78125 -126.459960938 61.5234375 -86.41015625 47.2333984375 -32.2705078125 c 2
 0 -32.2705078125 l 1
 0 0 l 1
 0 32.23046875 l 1
 0 32.23046875 47.2333984375 32.26953125 47.2333984375 32.23046875 c 1
 61.5234375 86.3701171875 110.78125 126.419921875 169.3671875 126.499023438 c 0
169.3671875 61.9990234375 m 0
 135.15234375 61.9990234375 107.368164062 34.21484375 107.368164062 0 c 0
 107.368164062 -34.21484375 135.15234375 -62 169.3671875 -62 c 0
 203.58203125 -62 231.366210938 -34.21484375 231.366210938 0 c 0
 231.366210938 34.21484375 203.58203125 61.9990234375 169.3671875 61.9990234375 c 0
EndSplineSet
Validated: 33
Substitution2: "Single Substitution lookup 11 subtable" question.init
Substitution2: "Single Substitution lookup 9 subtable" question.fina
Substitution2: "Single Substitution lookup 7 subtable" question.isol
EndChar

StartChar: a.init
Encoding: 156 -1 124
Width: 644
Flags: W
HStem: -32.2695 64.5<234.707 413.502 499.212 648> 451.659 64.5<233.223 412.017>
VStem: 48.3857 64.5391<152.564 331.351> 532.315 64.5391<151.485 331.351>
LayerCount: 2
Fore
SplineSet
322.620117188 516.159179688 m 0
 473.966796875 516.159179688 596.854492188 393.311523438 596.854492188 241.96484375 c 0
 596.815429688 157.81640625 558.98828125 82.560546875 499.211914062 32.23046875 c 1
 648 32.23046875 l 1
 648 -32.26953125 l 1
 322.620117188 -32.26953125 l 1
 171.2734375 -32.26953125 48.3857421875 90.6171875 48.3857421875 241.96484375 c 0
 48.3857421875 393.311523438 171.2734375 516.159179688 322.620117188 516.159179688 c 0
322.620117188 451.659179688 m 0
 206.876953125 451.659179688 112.924804688 357.66796875 112.924804688 241.96484375 c 0
 112.924804688 126.221679688 206.876953125 32.23046875 322.620117188 32.23046875 c 0
 438.36328125 32.23046875 532.315429688 126.221679688 532.315429688 241.96484375 c 0
 532.315429688 357.66796875 438.36328125 451.659179688 322.620117188 451.659179688 c 0
EndSplineSet
Validated: 1
EndChar

StartChar: quotesingle
Encoding: 4 39 151
Width: 160
Flags: W
HStem: -32.2705 64.501<0 48.3857 112.925 164>
VStem: 48.3857 64.5391<-153.253 -32.2705 32.2305 153.213>
LayerCount: 2
Fore
SplineSet
0 0 m 1
 0 32.23046875 l 1
 48.3857421875 32.23046875 l 1
 48.3857421875 153.212890625 l 1
 112.924804688 153.212890625 l 1
 112.924804688 32.23046875 l 1
 164 32.23046875 l 1
 164 -32.2705078125 l 1
 112.924804688 -32.2705078125 l 1
 112.924804688 -153.252929688 l 1
 48.3857421875 -153.252929688 l 1
 48.3857421875 -32.2705078125 l 1
 0 -32.2705078125 l 1
 0 0 l 1
EndSplineSet
Validated: 1
Substitution2: "Single Substitution lookup 11 subtable" quotesingle.init
Substitution2: "Single Substitution lookup 9 subtable" quotesingle.fina
Substitution2: "Single Substitution lookup 7 subtable" quotesingle.isol
EndChar

StartChar: quotesingle.init
Encoding: 157 -1 152
Width: 160
Flags: W
HStem: -32.2705 64.501<112.925 164>
VStem: 48.3857 115.614<-32.2705 32.2305> 48.3857 64.5391<-153.253 -32.2705 32.2305 153.213>
LayerCount: 2
Fore
SplineSet
48.3857421875 153.212890625 m 1xa0
 112.924804688 153.212890625 l 1
 112.924804688 32.23046875 l 1xa0
 164 32.23046875 l 1
 164 -32.2705078125 l 1xc0
 112.924804688 -32.2705078125 l 1
 112.924804688 -153.252929688 l 1
 48.3857421875 -153.252929688 l 1
 48.3857421875 153.212890625 l 1xa0
EndSplineSet
Validated: 1
EndChar

StartChar: quotesingle.isol
Encoding: 158 -1 153
Width: 160
Flags: W
HStem: -153.253 306.466<48.3848 112.925>
VStem: 48.3848 64.54<-153.253 153.213>
LayerCount: 2
Fore
SplineSet
48.384765625 153.212890625 m 1
 112.924804688 153.212890625 l 1
 112.924804688 -153.252929688 l 1
 48.384765625 -153.252929688 l 1
 48.384765625 153.212890625 l 1
EndSplineSet
Validated: 1
EndChar

StartChar: quotesingle.fina
Encoding: 159 -1 154
Width: 160
Flags: W
HStem: -32.2705 64.501<0 48.3848>
VStem: 0 112.925<-32.2705 32.2305> 48.3848 64.54<-153.253 -32.2705 32.2305 153.213>
LayerCount: 2
Fore
SplineSet
0 0 m 5xc0
 0 32.23046875 l 5xc0
 48.384765625 32.23046875 l 5
 48.384765625 153.212890625 l 5
 112.924804688 153.212890625 l 5
 112.924804688 -153.252929688 l 5
 48.384765625 -153.252929688 l 5
 48.384765625 -32.2705078125 l 5xa0
 0 -32.2705078125 l 5
 0 0 l 5xc0
EndSplineSet
Validated: 1
EndChar

StartChar: quotedbl
Encoding: 2 34 155
Width: 257
Flags: W
HStem: -32.2705 64.501<0 96.7705 161.31 261>
VStem: 96.7705 64.5391<-153.253 -32.2705>
LayerCount: 2
Fore
SplineSet
0 0 m 1
 0 32.23046875 l 1
 261 32.23046875 l 1
 261 -32.2705078125 l 1
 161.309570312 -32.2705078125 l 1
 161.309570312 -153.252929688 l 1
 96.7705078125 -153.252929688 l 1
 96.7705078125 -32.2705078125 l 1
 0 -32.2705078125 l 1
 0 0 l 1
EndSplineSet
Validated: 1
Substitution2: "Single Substitution lookup 11 subtable" quotedbl.init
Substitution2: "Single Substitution lookup 9 subtable" quotedbl.fina
Substitution2: "Single Substitution lookup 7 subtable" quotedbl.isol
EndChar

StartChar: quotedbl.init
Encoding: 160 -1 156
Width: 209
Flags: W
HStem: -153.253 64.501<112.925 161.31> -32.2705 64.501<112.925 213>
VStem: 48.3848 112.925<-153.253 -88.752> 48.3848 64.54<-88.752 -32.2705>
LayerCount: 2
Fore
SplineSet
48.384765625 32.23046875 m 1xd0
 213 32.23046875 l 1
 213 -32.2705078125 l 1
 112.924804688 -32.2705078125 l 1
 112.924804688 -88.751953125 l 1xd0
 161.309570312 -88.751953125 l 1
 161.309570312 -153.252929688 l 1
 48.384765625 -153.252929688 l 1xe0
 48.384765625 32.23046875 l 1xd0
EndSplineSet
Validated: 1
EndChar

StartChar: quotedbl.isol
Encoding: 161 -1 157
Width: 160
Flags: W
HStem: -153.253 185.483<48.3857 112.925>
VStem: 48.3857 64.5391<-153.253 32.2305>
LayerCount: 2
Fore
SplineSet
112.924804688 32.23046875 m 1
 112.924804688 -153.252929688 l 1
 48.3857421875 -153.252929688 l 1
 48.3857421875 32.23046875 l 1
 112.924804688 32.23046875 l 1
EndSplineSet
Validated: 1
EndChar

StartChar: quotedbl.fina
Encoding: 162 -1 158
Width: 209
Flags: W
HStem: -153.253 64.501<48.3848 96.7695> -32.2705 64.501<0 96.7695>
VStem: 48.3848 112.925<-153.253 -88.752> 96.7695 64.54<-88.752 -32.2705>
LayerCount: 2
Fore
SplineSet
0 0 m 1xd0
 0 32.23046875 l 1
 161.309570312 32.23046875 l 1xd0
 161.309570312 -153.252929688 l 1
 48.384765625 -153.252929688 l 1
 48.384765625 -88.751953125 l 1xe0
 96.76953125 -88.751953125 l 1
 96.76953125 -32.2705078125 l 1
 0 -32.2705078125 l 1
 0 0 l 1xd0
EndSplineSet
Validated: 1
EndChar

StartChar: hyphen
Encoding: 6 45 159
Width: 310
Flags: W
HStem: -32.2705 64.501<0 104.828 206.083 314>
VStem: 0 314<-32.2705 32.2305>
LayerCount: 2
Fore
SplineSet
0 32.23046875 m 1
 134.915039062 32.23046875 l 1
 191.317382812 153.212890625 l 1
 262.525390625 153.212890625 l 1
 206.083007812 32.23046875 l 1
 314 32.23046875 l 1
 314 -32.2705078125 l 1
 175.99609375 -32.2705078125 l 1
 119.59375 -153.252929688 l 1
 48.3857421875 -153.252929688 l 1
 104.828125 -32.2705078125 l 1
 0 -32.2705078125 l 1
 0 0 l 1
 0 32.23046875 l 1
EndSplineSet
Validated: 1
Substitution2: "Single Substitution lookup 11 subtable" hyphen.init
Substitution2: "Single Substitution lookup 9 subtable" hyphen.fina
Substitution2: "Single Substitution lookup 7 subtable" hyphen.isol
EndChar

StartChar: hyphen.init
Encoding: 163 -1 160
Width: 310
Flags: W
HStem: -32.2705 64.501<206.083 314>
VStem: 48.3857 265.614
LayerCount: 2
Fore
SplineSet
191.317382812 153.212890625 m 1
 262.525390625 153.212890625 l 1
 206.083007812 32.23046875 l 1
 314 32.23046875 l 1
 314 -32.2705078125 l 1
 175.99609375 -32.2705078125 l 1
 119.59375 -153.252929688 l 1
 48.3857421875 -153.252929688 l 1
 191.317382812 153.212890625 l 1
EndSplineSet
Validated: 1
EndChar

StartChar: hyphen.isol
Encoding: 164 -1 161
Width: 310
Flags: W
HStem: -153.253 306.466
VStem: 48.3848 214.141
LayerCount: 2
Fore
SplineSet
191.317382812 153.212890625 m 1
 262.525390625 153.212890625 l 1
 119.592773438 -153.252929688 l 1
 48.384765625 -153.252929688 l 1
 191.317382812 153.212890625 l 1
EndSplineSet
Validated: 1
EndChar

StartChar: hyphen.fina
Encoding: 165 -1 162
Width: 310
Flags: W
HStem: -32.2705 64.501<0 104.827>
VStem: 0 262.525
LayerCount: 2
Fore
SplineSet
0 32.23046875 m 5
 134.9140625 32.23046875 l 5
 191.317382812 153.212890625 l 5
 262.525390625 153.212890625 l 5
 119.592773438 -153.252929688 l 5
 48.384765625 -153.252929688 l 5
 104.827148438 -32.2705078125 l 5
 0 -32.2705078125 l 5
 0 0 l 5
 0 32.23046875 l 5
EndSplineSet
Validated: 1
EndChar

StartChar: semicolon
Encoding: 9 59 163
Width: 249
Flags: W
HStem: -32.2705 64.501<0 78.1143 169.367 253>
VStem: 0 253<-32.2705 32.2305>
LayerCount: 2
Fore
SplineSet
0 32.23046875 m 1
 78.1142578125 32.23046875 l 1
 48.384765625 61.9599609375 l 1
 48.384765625 153.212890625 l 1
 169.3671875 32.23046875 l 1
 253 32.23046875 l 1
 253 -32.2705078125 l 1
 169.3671875 -32.2705078125 l 1
 48.384765625 -153.252929688 l 1
 48.384765625 -62 l 1
 78.1142578125 -32.2705078125 l 1
 0 -32.2705078125 l 1
 0 0 l 1
 0 32.23046875 l 1
EndSplineSet
Validated: 1
Substitution2: "Single Substitution lookup 11 subtable" semicolon.init
Substitution2: "Single Substitution lookup 9 subtable" semicolon.fina
Substitution2: "Single Substitution lookup 7 subtable" semicolon.isol
EndChar

StartChar: colon
Encoding: 8 58 164
Width: 217
Flags: W
HStem: -32.2705 64.501<0 78.1143 169.367 221>
VStem: 104.867 64.5<32.2305 153.213>
LayerCount: 2
Fore
SplineSet
0 32.23046875 m 1
 104.8671875 32.23046875 l 1
 104.8671875 153.212890625 l 1
 169.3671875 153.212890625 l 1
 169.3671875 32.23046875 l 1
 221 32.23046875 l 1
 221 -32.2705078125 l 1
 169.3671875 -32.2705078125 l 1
 48.384765625 -153.252929688 l 1
 48.384765625 -62 l 1
 78.1142578125 -32.2705078125 l 1
 0 -32.2705078125 l 1
 0 0 l 1
 0 32.23046875 l 1
EndSplineSet
Validated: 1
Substitution2: "Single Substitution lookup 11 subtable" colon.init
Substitution2: "Single Substitution lookup 9 subtable" colon.fina
Substitution2: "Single Substitution lookup 7 subtable" colon.isol
EndChar

StartChar: colon.init
Encoding: 166 -1 165
Width: 217
Flags: W
HStem: -32.2705 64.501<169.367 221>
VStem: 104.867 64.5<32.2305 153.213>
LayerCount: 2
Fore
SplineSet
104.8671875 -5.556640625 m 1
 104.8671875 153.212890625 l 1
 169.3671875 153.212890625 l 1
 169.3671875 32.23046875 l 1
 221 32.23046875 l 1
 221 -32.2705078125 l 1
 169.3671875 -32.2705078125 l 1
 48.384765625 -153.252929688 l 1
 48.384765625 -62 l 1
 104.8671875 -5.556640625 l 1
EndSplineSet
Validated: 1
EndChar

StartChar: colon.isol
Encoding: 167 -1 166
Width: 217
Flags: W
HStem: -153.253 306.466
VStem: 104.867 64.501<-5.55664 153.213>
LayerCount: 2
Fore
SplineSet
104.8671875 153.212890625 m 1
 169.368164062 153.212890625 l 1
 169.368164062 -32.2705078125 l 1
 48.3857421875 -153.252929688 l 1
 48.3857421875 -62 l 1
 104.8671875 -5.556640625 l 1
 104.8671875 153.212890625 l 1
EndSplineSet
Validated: 1
EndChar

StartChar: colon.fina
Encoding: 168 -1 167
Width: 217
Flags: W
HStem: -32.2705 64.501<0 78.1152>
VStem: 104.867 64.501<32.2305 153.213>
LayerCount: 2
Fore
SplineSet
0 32.23046875 m 1
 104.8671875 32.23046875 l 1
 104.8671875 153.212890625 l 1
 169.368164062 153.212890625 l 1
 169.368164062 -32.2705078125 l 1
 48.3857421875 -153.252929688 l 1
 48.3857421875 -62 l 1
 78.115234375 -32.2705078125 l 1
 0 -32.2705078125 l 1
 0 0 l 1
 0 32.23046875 l 1
EndSplineSet
Validated: 1
EndChar

StartChar: semicolon.init
Encoding: 169 -1 168
Width: 249
Flags: W
HStem: -32.2705 64.501<169.367 253>
VStem: 48.3848 204.615
LayerCount: 2
Fore
SplineSet
48.384765625 61.9599609375 m 1
 48.384765625 153.212890625 l 1
 169.3671875 32.23046875 l 1
 253 32.23046875 l 1
 253 -32.2705078125 l 1
 169.3671875 -32.2705078125 l 1
 48.384765625 -153.252929688 l 1
 48.384765625 -62 l 1
 110.384765625 0 l 1
 48.384765625 61.9599609375 l 1
EndSplineSet
Validated: 1
EndChar

StartChar: semicolon.isol
Encoding: 170 -1 169
Width: 249
Flags: W
HStem: -153.253 306.466
VStem: 48.3848 153.252
LayerCount: 2
Fore
SplineSet
48.384765625 61.9599609375 m 1
 48.384765625 153.212890625 l 1
 201.63671875 0 l 1
 48.384765625 -153.252929688 l 1
 48.384765625 -62 l 1
 110.383789062 0 l 1
 48.384765625 61.9599609375 l 1
EndSplineSet
Validated: 1
EndChar

StartChar: semicolon.fina
Encoding: 171 -1 170
Width: 249
Flags: W
HStem: -32.2705 64.501<0 78.1143>
VStem: 0 201.637
LayerCount: 2
Fore
SplineSet
0 32.23046875 m 1
 78.1142578125 32.23046875 l 1
 48.384765625 61.9599609375 l 1
 48.384765625 153.212890625 l 1
 201.63671875 0 l 1
 48.384765625 -153.252929688 l 1
 48.384765625 -62 l 1
 78.1142578125 -32.2705078125 l 1
 0 -32.2705078125 l 1
 0 0 l 1
 0 32.23046875 l 1
EndSplineSet
Validated: 1
EndChar

StartChar: a.lig1
Encoding: 172 -1 171
Width: 0
Flags: W
HStem: -32.2695 64.5<0.106156 146.307 231.738 410.533> 451.659 64.5<233.223 412.017>
VStem: 48.3848 64.54<151.466 331.351> 532.314 64.54<152.564 331.351>
LayerCount: 2
Fore
SplineSet
322.620117188 516.159179688 m 0
 473.966796875 516.159179688 596.854492188 393.311523438 596.854492188 241.96484375 c 0
 596.854492188 90.6171875 473.966796875 -32.26953125 322.620117188 -32.26953125 c 2
 0 -32.26953125 l 1
 0 0 l 1
 0 32.23046875 l 1
 0 32.23046875 146.46484375 32.1904296875 146.306640625 32.23046875 c 0
 86.4501953125 82.48046875 48.50390625 157.77734375 48.384765625 241.96484375 c 0
 48.384765625 393.311523438 171.272460938 516.159179688 322.620117188 516.159179688 c 0
322.620117188 451.659179688 m 0
 206.876953125 451.659179688 112.924804688 357.66796875 112.924804688 241.96484375 c 0
 112.924804688 126.221679688 206.876953125 32.23046875 322.620117188 32.23046875 c 0
 438.362304688 32.23046875 532.314453125 126.221679688 532.314453125 241.96484375 c 0
 532.314453125 357.66796875 438.362304688 451.659179688 322.620117188 451.659179688 c 0
EndSplineSet
Validated: 33
Substitution2: "Single Substitution lookup 11 subtable" a.lig1.init
Substitution2: "Single Substitution lookup 9 subtable" a.lig1.fina
Substitution2: "Single Substitution lookup 7 subtable" a.lig1.isol
EndChar

StartChar: a.lig2
Encoding: 173 -1 172
Width: 644
Flags: W
HStem: -32.2705 64.501<322.62 648>
VStem: 322.62 325.38<-32.2705 32.2305>
LayerCount: 2
Fore
SplineSet
322.620117188 32.23046875 m 1
 648 32.23046875 l 1
 648 -32.2705078125 l 1
 322.620117188 -32.2705078125 l 1
 322.620117188 32.23046875 l 1
EndSplineSet
Validated: 1
Substitution2: "Single Substitution lookup 11 subtable" a.lig2.init
Substitution2: "Single Substitution lookup 9 subtable" a.lig2.fina
Substitution2: "Single Substitution lookup 7 subtable" a.lig2.isol
EndChar

StartChar: e.lig1
Encoding: 174 -1 173
Width: 0
Flags: W
HStem: -32.2695 64.5<0.106156 146.307 231.738 410.533> 449.119 67.04<228.418 290.35 354.89 416.817>
VStem: 48.3848 64.54<151.466 331.557> 290.35 64.54<211.39 449.079> 532.314 64.54<152.564 331.557>
CounterMasks: 1 38
LayerCount: 2
Fore
SplineSet
322.620117188 516.159179688 m 4
 473.966796875 516.159179688 596.854492188 393.311523438 596.854492188 241.96484375 c 4
 596.854492188 90.6171875 473.966796875 -32.26953125 322.620117188 -32.26953125 c 6
 0 -32.26953125 l 5
 0 0 l 5
 0 32.23046875 l 5
 0 32.23046875 146.46484375 32.1904296875 146.306640625 32.23046875 c 4
 86.4501953125 82.48046875 48.50390625 157.77734375 48.384765625 241.96484375 c 4
 48.384765625 393.311523438 171.272460938 516.159179688 322.620117188 516.159179688 c 4
290.349609375 449.119140625 m 5
 190.046875 433.48046875 112.924804688 346.633789062 112.924804688 241.96484375 c 4
 112.924804688 126.221679688 206.876953125 32.23046875 322.620117188 32.23046875 c 4
 438.362304688 32.23046875 532.314453125 126.221679688 532.314453125 241.96484375 c 4
 532.275390625 346.633789062 455.192382812 433.48046875 354.889648438 449.079101562 c 5
 354.889648438 241.96484375 l 5
 354.889648438 224.142578125 340.44140625 209.694335938 322.620117188 209.694335938 c 4
 304.797851562 209.694335938 290.349609375 224.142578125 290.349609375 241.96484375 c 6
 290.349609375 449.119140625 l 5
EndSplineSet
Validated: 33
Substitution2: "Single Substitution lookup 11 subtable" e.lig1.init
Substitution2: "Single Substitution lookup 9 subtable" e.lig1.fina
Substitution2: "Single Substitution lookup 7 subtable" e.lig1.isol
EndChar

StartChar: e.lig2
Encoding: 175 -1 174
Width: 644
Flags: W
HStem: -32.2705 64.501<354.89 648>
VStem: 290.351 64.5391<32.2305 272.5>
LayerCount: 2
Fore
SplineSet
322.620117188 274.1953125 m 0
 340.442382812 274.1953125 354.889648438 259.747070312 354.889648438 241.96484375 c 2
 354.889648438 32.23046875 l 1
 648 32.23046875 l 1
 648 -32.2705078125 l 1
 322.620117188 -32.2705078125 l 1
 322.620117188 0 l 1
 290.350585938 0 l 1
 290.350585938 241.96484375 l 1
 290.350585938 259.747070312 304.797851562 274.1953125 322.620117188 274.1953125 c 0
EndSplineSet
Validated: 1
Substitution2: "Single Substitution lookup 11 subtable" e.lig2.init
Substitution2: "Single Substitution lookup 9 subtable" e.lig2.fina
Substitution2: "Single Substitution lookup 7 subtable" e.lig2.isol
EndChar

StartChar: i.lig1
Encoding: 176 -1 175
Width: 0
Flags: W
HStem: -32.2695 64.5<0.106156 146.307 231.738 410.533> 345.606 20G<140.67 153.272> 451.659 64.5<232.361 412.017>
VStem: 48.3848 64.54<151.466 332.21> 532.314 64.54<152.564 331.351>
LayerCount: 2
Fore
SplineSet
322.620117188 516.159179688 m 4
 473.966796875 516.159179688 596.854492188 393.311523438 596.854492188 241.96484375 c 4
 596.854492188 90.6171875 473.966796875 -32.26953125 322.620117188 -32.26953125 c 6
 0 -32.26953125 l 5
 0 0 l 5
 0 32.23046875 l 5
 0 32.23046875 146.46484375 32.1904296875 146.306640625 32.23046875 c 4
 86.4501953125 82.48046875 48.50390625 157.77734375 48.384765625 241.96484375 c 4
 48.384765625 393.311523438 171.272460938 516.159179688 322.620117188 516.159179688 c 4
322.620117188 451.659179688 m 4
 276.45703125 451.620117188 233.58984375 436.576171875 198.938476562 411.252929688 c 5
 345.443359375 264.748046875 l 5
 351.27734375 258.913085938 354.889648438 250.85546875 354.889648438 241.96484375 c 4
 354.889648438 224.142578125 340.44140625 209.694335938 322.620117188 209.694335938 c 4
 313.728515625 209.694335938 305.670898438 213.346679688 299.8359375 219.181640625 c 5
 299.796875 219.141601562 l 5
 299.796875 219.141601562 153.212890625 365.447265625 153.33203125 365.606445312 c 5
 128.0078125 330.995117188 112.924804688 288.086914062 112.924804688 241.96484375 c 4
 112.924804688 126.221679688 206.876953125 32.23046875 322.620117188 32.23046875 c 4
 438.362304688 32.23046875 532.314453125 126.221679688 532.314453125 241.96484375 c 4
 532.314453125 357.66796875 438.362304688 451.659179688 322.620117188 451.659179688 c 4
EndSplineSet
Validated: 33
Substitution2: "Single Substitution lookup 11 subtable" i.lig1.init
Substitution2: "Single Substitution lookup 9 subtable" i.lig1.fina
Substitution2: "Single Substitution lookup 7 subtable" i.lig1.isol
EndChar

StartChar: i.lig2
Encoding: 177 -1 176
Width: 644
Flags: W
HStem: -32.2705 64.501<322.62 648>
LayerCount: 2
Fore
SplineSet
322.620117188 32.23046875 m 1
 648 32.23046875 l 1
 648 -32.2705078125 l 1
 322.620117188 -32.2705078125 l 1
 322.620117188 32.23046875 l 1
322.620117188 274.1953125 m 0
 331.510742188 274.1953125 339.608398438 270.583007812 345.443359375 264.748046875 c 2
 516.517578125 93.673828125 l 1
 470.911132812 48.02734375 l 1
 299.796875 219.141601562 l 1
 299.796875 219.141601562 299.875976562 219.181640625 299.836914062 219.181640625 c 1
 294.001953125 225.015625 290.389648438 233.073242188 290.350585938 241.96484375 c 0
 290.350585938 259.747070312 304.797851562 274.1953125 322.620117188 274.1953125 c 0
EndSplineSet
Validated: 1
Substitution2: "Single Substitution lookup 11 subtable" i.lig2.init
Substitution2: "Single Substitution lookup 9 subtable" i.lig2.fina
Substitution2: "Single Substitution lookup 7 subtable" i.lig2.isol
EndChar

StartChar: o.lig1
Encoding: 178 -1 177
Width: 0
Flags: W
HStem: -32.2695 64.5<0.106156 146.307 230.016 410.533> 451.659 64.5<233.223 412.017>
VStem: 48.3848 64.54<150.609 331.351> 532.314 64.54<152.564 331.351>
LayerCount: 2
Fore
SplineSet
322.620117188 516.159179688 m 4
 473.966796875 516.159179688 596.854492188 393.311523438 596.854492188 241.96484375 c 4
 596.854492188 90.6171875 473.966796875 -32.26953125 322.620117188 -32.26953125 c 6
 0 -32.26953125 l 5
 0 0 l 5
 0 32.23046875 l 5
 0 32.23046875 146.46484375 32.1904296875 146.306640625 32.23046875 c 4
 86.4501953125 82.48046875 48.50390625 157.77734375 48.384765625 241.96484375 c 4
 48.384765625 393.311523438 171.272460938 516.159179688 322.620117188 516.159179688 c 4
322.620117188 451.659179688 m 4
 206.876953125 451.659179688 112.924804688 357.66796875 112.924804688 241.96484375 c 4
 112.924804688 195.802734375 128.0078125 152.934570312 153.33203125 118.283203125 c 5
 299.796875 264.748046875 l 5
 299.796875 264.748046875 299.875976562 264.708007812 299.8359375 264.708007812 c 5
 305.670898438 270.583007812 313.728515625 274.1953125 322.620117188 274.1953125 c 4
 340.44140625 274.1953125 354.889648438 259.747070312 354.889648438 241.96484375 c 4
 354.849609375 233.073242188 351.23828125 225.015625 345.403320312 219.181640625 c 5
 345.443359375 219.141601562 l 5
 345.443359375 219.141601562 199.13671875 72.5576171875 198.938476562 72.6767578125 c 5
 233.58984375 47.3134765625 276.45703125 32.26953125 322.620117188 32.23046875 c 4
 438.362304688 32.23046875 532.314453125 126.221679688 532.314453125 241.96484375 c 4
 532.314453125 357.66796875 438.362304688 451.659179688 322.620117188 451.659179688 c 4
EndSplineSet
Validated: 37
Substitution2: "Single Substitution lookup 11 subtable" o.lig1.init
Substitution2: "Single Substitution lookup 9 subtable" o.lig1.fina
Substitution2: "Single Substitution lookup 7 subtable" o.lig1.isol
EndChar

StartChar: o.lig2
Encoding: 179 -1 178
Width: 644
Flags: W
HStem: -32.2705 64.501<322.62 648> 415.862 20G<450.911 490.911>
LayerCount: 2
Fore
SplineSet
322.620117188 32.23046875 m 1
 648 32.23046875 l 1
 648 -32.2705078125 l 1
 322.620117188 -32.2705078125 l 1
 322.620117188 32.23046875 l 1
470.911132812 435.862304688 m 1
 516.517578125 390.254882812 l 1
 345.443359375 219.141601562 l 1
 345.443359375 219.141601562 345.364257812 219.181640625 345.403320312 219.181640625 c 1
 339.568359375 213.346679688 331.510742188 209.694335938 322.620117188 209.694335938 c 0
 304.797851562 209.694335938 290.350585938 224.142578125 290.350585938 241.96484375 c 0
 290.389648438 250.85546875 294.001953125 258.913085938 299.836914062 264.708007812 c 1
 299.796875 264.748046875 l 1
 470.911132812 435.862304688 l 1
EndSplineSet
Validated: 5
Substitution2: "Single Substitution lookup 11 subtable" o.lig2.init
Substitution2: "Single Substitution lookup 9 subtable" o.lig2.fina
Substitution2: "Single Substitution lookup 7 subtable" o.lig2.isol
EndChar

StartChar: u.lig1
Encoding: 180 -1 179
Width: 0
Flags: W
HStem: -32.2695 64.5<0.106156 146.307 230.016 410.533> 451.659 64.5<232.361 412.017>
VStem: 48.3848 64.54<150.609 332.202> 532.314 64.54<152.564 331.351>
LayerCount: 2
Fore
SplineSet
322.620117188 516.159179688 m 4
 473.966796875 516.159179688 596.854492188 393.311523438 596.854492188 241.96484375 c 4
 596.854492188 90.6171875 473.966796875 -32.26953125 322.620117188 -32.26953125 c 6
 0 -32.26953125 l 5
 0 0 l 5
 0 32.23046875 l 5
 0 32.23046875 146.46484375 32.1904296875 146.306640625 32.23046875 c 4
 86.4501953125 82.48046875 48.50390625 157.77734375 48.384765625 241.96484375 c 4
 48.384765625 393.311523438 171.272460938 516.159179688 322.620117188 516.159179688 c 4
322.620117188 451.659179688 m 4
 276.45703125 451.620117188 233.58984375 436.576171875 198.938476562 411.252929688 c 5
 345.443359375 264.748046875 l 5
 351.27734375 258.913085938 354.889648438 250.85546875 354.889648438 241.96484375 c 4
 354.849609375 233.073242188 351.23828125 225.015625 345.403320312 219.181640625 c 5
 345.443359375 219.141601562 l 5
 345.443359375 219.141601562 199.13671875 72.5576171875 198.938476562 72.6767578125 c 5
 233.58984375 47.3134765625 276.45703125 32.26953125 322.620117188 32.23046875 c 4
 438.362304688 32.23046875 532.314453125 126.221679688 532.314453125 241.96484375 c 4
 532.314453125 357.66796875 438.362304688 451.659179688 322.620117188 451.659179688 c 4
153.33203125 365.606445312 m 5
 128.0078125 330.955078125 112.924804688 288.086914062 112.924804688 241.96484375 c 4
 112.924804688 195.802734375 128.0078125 152.934570312 153.33203125 118.283203125 c 5
 277.013671875 241.96484375 l 5
 153.33203125 365.606445312 l 5
EndSplineSet
Validated: 33
Substitution2: "Single Substitution lookup 11 subtable" u.lig1.init
Substitution2: "Single Substitution lookup 9 subtable" u.lig1.fina
Substitution2: "Single Substitution lookup 7 subtable" u.lig1.isol
EndChar

StartChar: u.lig2
Encoding: 181 -1 180
Width: 644
Flags: W
HStem: -32.2705 64.501<322.62 648> 415.862 20G<450.911 490.911>
LayerCount: 2
Fore
SplineSet
322.620117188 32.23046875 m 1
 648 32.23046875 l 1
 648 -32.2705078125 l 1
 322.620117188 -32.2705078125 l 1
 322.620117188 32.23046875 l 1
470.911132812 435.862304688 m 1
 516.517578125 390.254882812 l 1
 368.2265625 241.96484375 l 1
 516.517578125 93.673828125 l 1
 470.911132812 48.02734375 l 1
 299.796875 219.141601562 l 1
 299.796875 219.141601562 299.875976562 219.181640625 299.836914062 219.181640625 c 1
 294.001953125 225.015625 290.389648438 233.073242188 290.350585938 241.96484375 c 0
 290.389648438 250.85546875 294.001953125 258.913085938 299.836914062 264.708007812 c 1
 299.796875 264.748046875 l 1
 470.911132812 435.862304688 l 1
EndSplineSet
Validated: 1
Substitution2: "Single Substitution lookup 11 subtable" u.lig2.init
Substitution2: "Single Substitution lookup 9 subtable" u.lig2.fina
Substitution2: "Single Substitution lookup 7 subtable" u.lig2.isol
EndChar

StartChar: y.lig1
Encoding: 182 -1 181
Width: 0
Flags: W
HStem: -32.2695 64.5<0.106156 146.307 231.335 410.533> 209.694 64.501<322.62 353.194> 451.659 64.5<233.021 412.017>
VStem: 532.314 64.54<152.564 331.351>
CounterMasks: 1 e0
LayerCount: 2
Fore
SplineSet
322.620117188 516.159179688 m 4
 473.966796875 516.159179688 596.854492188 393.311523438 596.854492188 241.96484375 c 4
 596.854492188 90.6171875 473.966796875 -32.26953125 322.620117188 -32.26953125 c 6
 0 -32.26953125 l 5
 0 0 l 5
 0 32.23046875 l 5
 0 32.23046875 146.46484375 32.1904296875 146.306640625 32.23046875 c 4
 86.4501953125 82.48046875 48.50390625 157.77734375 48.384765625 241.96484375 c 4
 48.384765625 393.311523438 171.272460938 516.159179688 322.620117188 516.159179688 c 4
322.620117188 451.659179688 m 4
 217.951171875 451.620117188 131.064453125 374.537109375 115.46484375 274.1953125 c 5
 322.620117188 274.1953125 l 5
 340.44140625 274.1953125 354.889648438 259.747070312 354.889648438 241.96484375 c 4
 354.889648438 224.142578125 340.44140625 209.694335938 322.620117188 209.694335938 c 6
 322.620117188 209.694335938 115.46484375 209.49609375 115.46484375 209.694335938 c 5
 131.064453125 109.352539062 217.951171875 32.26953125 322.620117188 32.23046875 c 4
 438.362304688 32.23046875 532.314453125 126.221679688 532.314453125 241.96484375 c 4
 532.314453125 357.66796875 438.362304688 451.659179688 322.620117188 451.659179688 c 4
EndSplineSet
Validated: 33
Substitution2: "Single Substitution lookup 11 subtable" y.lig1.init
Substitution2: "Single Substitution lookup 9 subtable" y.lig1.fina
Substitution2: "Single Substitution lookup 7 subtable" y.lig1.isol
EndChar

StartChar: y.lig2
Encoding: 183 -1 182
Width: 644
Flags: W
HStem: -32.2705 64.501<322.62 648> 209.694 64.501<292.046 322.62>
LayerCount: 2
Fore
SplineSet
322.620117188 32.23046875 m 1
 648 32.23046875 l 1
 648 -32.2705078125 l 1
 322.620117188 -32.2705078125 l 1
 322.620117188 32.23046875 l 1
322.620117188 274.1953125 m 2
 304.797851562 274.1953125 290.350585938 259.747070312 290.350585938 241.96484375 c 0
 290.350585938 224.142578125 304.797851562 209.694335938 322.620117188 209.694335938 c 1
 564.584960938 209.694335938 l 1
 564.584960938 274.1953125 l 1
 322.620117188 274.1953125 l 2
EndSplineSet
Validated: 9
Substitution2: "Single Substitution lookup 11 subtable" y.lig2.init
Substitution2: "Single Substitution lookup 9 subtable" y.lig2.fina
Substitution2: "Single Substitution lookup 7 subtable" y.lig2.isol
EndChar

StartChar: a.lig3
Encoding: 184 -1 184
Width: 644
Flags: W
HStem: -32.2695 64.5<0.106156 146.307 231.738 413.502 499.212 648> 209.694 64.501<292.046 353.194> 451.659 64.5<233.223 412.017>
VStem: 48.3857 64.5391<151.466 331.351> 290.351 64.5391<211.39 272.5> 532.315 64.5391<151.485 331.351>
CounterMasks: 1 fc
LayerCount: 2
Fore
SplineSet
322.620117188 516.159179688 m 0
 473.966796875 516.159179688 596.854492188 393.311523438 596.854492188 241.96484375 c 0
 596.815429688 157.81640625 558.98828125 82.560546875 499.211914062 32.23046875 c 1
 648 32.23046875 l 1
 648 -32.26953125 l 1
 322.620117188 -32.26953125 l 1
 0 -32.26953125 l 1
 0 0 l 1
 0 32.23046875 l 1
 0 32.23046875 146.46484375 32.1904296875 146.306640625 32.23046875 c 0
 86.4501953125 82.48046875 48.5048828125 157.77734375 48.3857421875 241.96484375 c 0
 48.3857421875 393.311523438 171.2734375 516.159179688 322.620117188 516.159179688 c 0
322.620117188 451.659179688 m 0
 206.876953125 451.659179688 112.924804688 357.66796875 112.924804688 241.96484375 c 0
 112.924804688 126.221679688 206.876953125 32.23046875 322.620117188 32.23046875 c 0
 438.36328125 32.23046875 532.315429688 126.221679688 532.315429688 241.96484375 c 0
 532.315429688 357.66796875 438.36328125 451.659179688 322.620117188 451.659179688 c 0
290.350585938 241.96484375 m 0
 290.350585938 224.142578125 304.797851562 209.694335938 322.620117188 209.694335938 c 0
 340.442382812 209.694335938 354.889648438 224.142578125 354.889648438 241.96484375 c 0
 354.889648438 259.747070312 340.442382812 274.1953125 322.620117188 274.1953125 c 0
 304.797851562 274.1953125 290.350585938 259.747070312 290.350585938 241.96484375 c 0
EndSplineSet
Validated: 41
Substitution2: "Single Substitution lookup 11 subtable" a.lig3.init
Substitution2: "Single Substitution lookup 9 subtable" a.lig3.fina
Substitution2: "Single Substitution lookup 7 subtable" a.lig3.isol
Ligature2: "PAIR_CLOCK_LIGATURES subtable" a.lig1 a.lig2
EndChar

StartChar: e.lig3
Encoding: 185 -1 185
Width: 644
Flags: W
HStem: -32.2695 64.5<0.106156 146.307 306.471 338.484 499.212 648> 425.943 20G<371.005 417.187> 451.659 64.5<306.754 338.792>
VStem: 48.3857 64.5391<151.677 331.14> 532.315 64.5391<151.563 331.281>
LayerCount: 2
Fore
SplineSet
322.620117188 516.159179688 m 0
 473.966796875 516.159179688 596.854492188 393.311523438 596.854492188 241.96484375 c 0
 596.815429688 157.81640625 558.98828125 82.560546875 499.211914062 32.23046875 c 1
 648 32.23046875 l 1
 648 -32.26953125 l 1
 0 -32.26953125 l 1
 0 0 l 1
 0 32.23046875 l 1
 0 32.23046875 146.46484375 32.1904296875 146.306640625 32.23046875 c 0
 86.4501953125 82.48046875 48.5048828125 157.77734375 48.3857421875 241.96484375 c 0
 48.3857421875 393.311523438 171.2734375 516.159179688 322.620117188 516.159179688 c 0
322.620117188 451.659179688 m 0
 317.142578125 451.420898438 311.82421875 451.024414062 306.504882812 450.389648438 c 2
 306.504882812 450.389648438 306.385742188 33.5 306.504882812 33.5 c 0
 311.82421875 32.865234375 317.142578125 32.46875 322.620117188 32.23046875 c 0
 328.09765625 32.26953125 333.376953125 32.5078125 338.735351562 32.9443359375 c 2
 338.735351562 32.9443359375 338.93359375 450.9453125 338.735351562 450.9453125 c 0
 333.376953125 451.381835938 328.09765625 451.620117188 322.620117188 451.659179688 c 0
371.004882812 445.943359375 m 1
 371.004882812 445.943359375 371.124023438 37.9462890625 371.004882812 37.9462890625 c 1
 463.369140625 59.8564453125 532.315429688 142.932617188 532.315429688 241.96484375 c 0
 532.315429688 340.997070312 463.369140625 424.033203125 371.004882812 445.943359375 c 1
274.235351562 445.348632812 m 1
 182.069335938 423.477539062 113.243164062 340.6796875 112.924804688 241.96484375 c 0
 113.243164062 143.209960938 182.069335938 60.412109375 274.235351562 38.5810546875 c 1
 274.235351562 445.348632812 l 1
EndSplineSet
Validated: 33
Substitution2: "Single Substitution lookup 11 subtable" e.lig3.init
Substitution2: "Single Substitution lookup 9 subtable" e.lig3.fina
Substitution2: "Single Substitution lookup 7 subtable" e.lig3.isol
Ligature2: "PAIR_CLOCK_LIGATURES subtable" e.lig1 e.lig2
EndChar

StartChar: i.lig3
Encoding: 186 -1 186
Width: 644
Flags: W
HStem: -32.2695 64.5<0.106156 146.307 231.738 415.669 499.212 648> 451.659 64.5<233.109 412.017>
VStem: 48.3857 64.5391<151.466 331.472> 532.315 64.5391<150.386 331.351>
LayerCount: 2
Fore
SplineSet
322.620117188 516.159179688 m 0
 473.966796875 516.159179688 596.854492188 393.311523438 596.854492188 241.96484375 c 0
 596.815429688 157.81640625 558.98828125 82.560546875 499.211914062 32.23046875 c 1
 648 32.23046875 l 1
 648 -32.26953125 l 1
 0 -32.26953125 l 1
 0 0 l 1
 0 32.23046875 l 1
 0 32.23046875 146.46484375 32.1904296875 146.306640625 32.23046875 c 0
 86.4501953125 82.48046875 48.5048828125 157.77734375 48.3857421875 241.96484375 c 0
 48.3857421875 393.311523438 171.2734375 516.159179688 322.620117188 516.159179688 c 0
322.620117188 451.659179688 m 0
 282.491210938 451.420898438 244.823242188 439.751953125 213.029296875 419.985351562 c 1
 213.029296875 419.985351562 501.236328125 132.135742188 501.077148438 131.897460938 c 1
 520.803710938 163.849609375 532.315429688 201.676757812 532.315429688 241.96484375 c 0
 532.315429688 357.66796875 438.36328125 451.659179688 322.620117188 451.659179688 c 0
186.633789062 400.734375 m 2
 178.41796875 393.668945312 170.875976562 386.166992188 163.810546875 377.911132812 c 2
 163.810546875 377.911132812 458.844726562 82.599609375 459.002929688 82.7587890625 c 0
 467.219726562 89.82421875 474.760742188 97.3251953125 481.826171875 105.58203125 c 2
 186.633789062 400.734375 l 2
144.599609375 351.555664062 m 1
 124.79296875 319.76171875 113.163085938 282.053710938 112.924804688 241.96484375 c 0
 112.924804688 126.221679688 206.876953125 32.23046875 322.620117188 32.23046875 c 0
 362.868164062 32.26953125 400.6953125 43.7802734375 432.647460938 63.4677734375 c 1
 144.599609375 351.555664062 l 1
EndSplineSet
Validated: 33
Substitution2: "Single Substitution lookup 11 subtable" i.lig3.init
Substitution2: "Single Substitution lookup 9 subtable" i.lig3.fina
Substitution2: "Single Substitution lookup 7 subtable" i.lig3.isol
Ligature2: "PAIR_CLOCK_LIGATURES subtable" i.lig1 i.lig2
EndChar

StartChar: o.lig3
Encoding: 187 -1 187
Width: 644
Flags: W
HStem: -32.2695 64.5<0.106156 146.307 231.51 413.502 499.212 648> 451.659 64.5<233.223 413.101>
VStem: 48.3857 64.5391<151.356 331.351> 532.315 64.5391<151.485 332.444>
LayerCount: 2
Fore
SplineSet
322.620117188 516.159179688 m 0
 473.966796875 516.159179688 596.854492188 393.311523438 596.854492188 241.96484375 c 0
 596.815429688 157.81640625 558.98828125 82.560546875 499.211914062 32.23046875 c 1
 648 32.23046875 l 1
 648 -32.26953125 l 1
 0 -32.26953125 l 1
 0 0 l 1
 0 32.23046875 l 1
 0 32.23046875 146.46484375 32.1904296875 146.306640625 32.23046875 c 0
 86.4501953125 82.48046875 48.5048828125 157.77734375 48.3857421875 241.96484375 c 0
 48.3857421875 393.311523438 171.2734375 516.159179688 322.620117188 516.159179688 c 0
322.620117188 451.659179688 m 0
 206.876953125 451.659179688 112.924804688 357.66796875 112.924804688 241.96484375 c 0
 113.163085938 201.8359375 124.79296875 164.16796875 144.599609375 132.374023438 c 1
 144.599609375 132.374023438 432.409179688 420.541015625 432.647460938 420.421875 c 1
 400.6953125 440.109375 362.868164062 451.620117188 322.620117188 451.659179688 c 0
459.002929688 401.130859375 m 2
 459.002929688 401.130859375 163.65234375 106.137695312 163.810546875 105.978515625 c 0
 170.875976562 97.72265625 178.41796875 90.220703125 186.633789062 83.1552734375 c 2
 186.633789062 83.1552734375 481.985351562 378.149414062 481.826171875 378.307617188 c 0
 474.760742188 386.564453125 467.219726562 394.065429688 459.002929688 401.130859375 c 2
501.077148438 351.9921875 m 1
 501.077148438 351.9921875 213.267578125 63.78515625 213.029296875 63.904296875 c 1
 244.823242188 44.1376953125 282.491210938 32.46875 322.620117188 32.23046875 c 0
 438.36328125 32.23046875 532.315429688 126.221679688 532.315429688 241.96484375 c 0
 532.315429688 282.212890625 520.803710938 320.040039062 501.077148438 351.9921875 c 1
EndSplineSet
Validated: 33
Substitution2: "Single Substitution lookup 11 subtable" o.lig3.init
Substitution2: "Single Substitution lookup 9 subtable" o.lig3.fina
Substitution2: "Single Substitution lookup 7 subtable" o.lig3.isol
Ligature2: "PAIR_CLOCK_LIGATURES subtable" o.lig1 o.lig2
EndChar

StartChar: u.lig3
Encoding: 188 -1 188
Width: 644
Flags: W
HStem: -32.2695 64.5<0.106156 146.307 231.51 415.683 499.212 648> 451.659 64.5<233.109 413.108>
VStem: 48.3857 64.5391<151.338 331.462> 532.315 64.5391<150.386 332.444>
LayerCount: 2
Fore
SplineSet
322.620117188 516.159179688 m 0
 473.966796875 516.159179688 596.854492188 393.311523438 596.854492188 241.96484375 c 0
 596.815429688 157.81640625 558.98828125 82.560546875 499.211914062 32.23046875 c 1
 648 32.23046875 l 1
 648 -32.26953125 l 1
 0 -32.26953125 l 1
 0 0 l 1
 0 32.23046875 l 1
 0 32.23046875 146.46484375 32.1904296875 146.306640625 32.23046875 c 0
 86.4501953125 82.48046875 48.5048828125 157.77734375 48.3857421875 241.96484375 c 0
 48.3857421875 393.311523438 171.2734375 516.159179688 322.620117188 516.159179688 c 0
322.620117188 451.659179688 m 0
 282.491210938 451.420898438 244.823242188 439.751953125 213.029296875 419.985351562 c 1
 322.620117188 310.39453125 l 1
 322.620117188 310.39453125 432.44921875 420.541015625 432.647460938 420.421875 c 1
 400.734375 440.109375 362.868164062 451.620117188 322.620117188 451.659179688 c 0
459.002929688 401.130859375 m 2
 322.620117188 264.748046875 l 1
 322.620117188 264.748046875 186.79296875 400.892578125 186.633789062 400.734375 c 0
 178.41796875 393.668945312 170.875976562 386.166992188 163.810546875 377.911132812 c 2
 299.796875 241.96484375 l 1
 299.796875 241.96484375 163.65234375 106.137695312 163.810546875 105.978515625 c 0
 170.875976562 97.72265625 178.41796875 90.220703125 186.633789062 83.1552734375 c 2
 322.620117188 219.141601562 l 1
 322.620117188 219.141601562 458.844726562 82.599609375 459.002929688 82.7587890625 c 0
 467.219726562 89.82421875 474.760742188 97.3251953125 481.826171875 105.58203125 c 2
 345.443359375 241.96484375 l 1
 345.443359375 241.96484375 481.985351562 378.149414062 481.826171875 378.307617188 c 0
 474.760742188 386.564453125 467.219726562 394.065429688 459.002929688 401.130859375 c 2
501.077148438 351.9921875 m 1
 391.049804688 241.96484375 l 1
 391.049804688 241.96484375 501.236328125 132.135742188 501.077148438 131.897460938 c 1
 520.803710938 163.849609375 532.315429688 201.676757812 532.315429688 241.96484375 c 0
 532.315429688 282.212890625 520.803710938 320.040039062 501.077148438 351.9921875 c 1
144.599609375 351.515625 m 1
 124.79296875 319.76171875 113.163085938 282.053710938 112.924804688 241.96484375 c 0
 113.163085938 201.8359375 124.79296875 164.127929688 144.599609375 132.333984375 c 1
 254.190429688 241.96484375 l 1
 144.599609375 351.515625 l 1
322.620117188 173.53515625 m 1
 322.620117188 173.53515625 213.267578125 63.78515625 213.029296875 63.904296875 c 1
 244.823242188 44.1376953125 282.491210938 32.46875 322.620117188 32.23046875 c 0
 362.868164062 32.26953125 400.734375 43.7802734375 432.647460938 63.4677734375 c 1
 322.620117188 173.53515625 l 1
EndSplineSet
Validated: 33
Substitution2: "Single Substitution lookup 11 subtable" u.lig3.init
Substitution2: "Single Substitution lookup 9 subtable" u.lig3.fina
Substitution2: "Single Substitution lookup 7 subtable" u.lig3.isol
Ligature2: "PAIR_CLOCK_LIGATURES subtable" u.lig1 u.lig2
EndChar

StartChar: y.lig3
Encoding: 189 -1 189
Width: 644
Flags: W
HStem: -32.2695 64.5<0.106156 146.307 232.161 413.354 499.212 648> 451.659 64.5<233.434 411.943>
VStem: 48.3857 64.5391<188.959 293.851> 532.315 64.5391<225.764 257.827>
LayerCount: 2
Fore
SplineSet
322.620117188 516.159179688 m 0
 473.966796875 516.159179688 596.854492188 393.311523438 596.854492188 241.96484375 c 0
 596.815429688 157.81640625 558.98828125 82.560546875 499.211914062 32.23046875 c 1
 648 32.23046875 l 1
 648 -32.26953125 l 1
 0 -32.26953125 l 1
 0 0 l 1
 0 32.23046875 l 1
 0 32.23046875 146.46484375 32.1904296875 146.306640625 32.23046875 c 0
 86.4501953125 82.48046875 48.5048828125 157.77734375 48.3857421875 241.96484375 c 0
 48.3857421875 393.311523438 171.2734375 516.159179688 322.620117188 516.159179688 c 0
322.620117188 451.659179688 m 0
 223.865234375 451.341796875 141.106445312 382.515625 119.236328125 290.349609375 c 1
 119.236328125 290.349609375 526.638671875 290.46875 526.638671875 290.349609375 c 1
 504.728515625 382.713867188 421.65234375 451.620117188 322.620117188 451.659179688 c 0
114.1953125 258.080078125 m 2
 113.560546875 252.721679688 113.124023438 247.40234375 112.924804688 241.96484375 c 0
 113.124023438 236.487304688 113.560546875 231.16796875 114.1953125 225.809570312 c 2
 114.1953125 225.809570312 531.600585938 225.651367188 531.600585938 225.809570312 c 0
 532.037109375 231.208007812 532.275390625 236.447265625 532.315429688 241.96484375 c 0
 532.275390625 247.442382812 532.037109375 252.681640625 531.600585938 258.080078125 c 2
 114.1953125 258.080078125 l 2
119.236328125 193.540039062 m 1
 141.106445312 101.374023438 223.865234375 32.5478515625 322.620117188 32.23046875 c 0
 421.65234375 32.26953125 504.728515625 101.17578125 526.638671875 193.540039062 c 1
 119.236328125 193.540039062 l 1
EndSplineSet
Validated: 33
Substitution2: "Single Substitution lookup 11 subtable" y.lig3.init
Substitution2: "Single Substitution lookup 9 subtable" y.lig3.fina
Substitution2: "Single Substitution lookup 7 subtable" y.lig3.isol
Ligature2: "PAIR_CLOCK_LIGATURES subtable" y.lig1 y.lig2
EndChar

StartChar: a.lig1.init
Encoding: 190 -1 190
Width: 0
Flags: W
HStem: -32.2695 64.5<233.223 412.017> 451.659 64.5<233.223 412.017>
VStem: 48.3848 64.54<152.564 331.351> 532.314 64.54<152.564 331.351>
LayerCount: 2
Fore
SplineSet
322.620117188 516.159179688 m 0
 473.966796875 516.159179688 596.854492188 393.311523438 596.854492188 241.96484375 c 0
 596.854492188 90.6171875 473.966796875 -32.26953125 322.620117188 -32.26953125 c 0
 171.272460938 -32.26953125 48.384765625 90.6171875 48.384765625 241.96484375 c 0
 48.384765625 393.311523438 171.272460938 516.159179688 322.620117188 516.159179688 c 0
322.620117188 451.659179688 m 0
 206.876953125 451.659179688 112.924804688 357.66796875 112.924804688 241.96484375 c 0
 112.924804688 126.221679688 206.876953125 32.23046875 322.620117188 32.23046875 c 0
 438.362304688 32.23046875 532.314453125 126.221679688 532.314453125 241.96484375 c 0
 532.314453125 357.66796875 438.362304688 451.659179688 322.620117188 451.659179688 c 0
EndSplineSet
Validated: 1
EndChar

StartChar: a.lig2.init
Encoding: 191 -1 191
Width: 644
Flags: W
HStem: -32.2705 64.501<322.62 648>
VStem: 322.62 325.38<-32.2705 32.2305>
LayerCount: 2
Fore
SplineSet
322.620117188 32.23046875 m 1
 648 32.23046875 l 1
 648 -32.2705078125 l 1
 322.620117188 -32.2705078125 l 1
 322.620117188 32.23046875 l 1
EndSplineSet
Validated: 1
EndChar

StartChar: a.lig3.init
Encoding: 192 -1 192
Width: 644
Flags: W
HStem: -32.2695 64.5<234.707 413.502 499.212 648> 209.694 64.501<292.046 353.194> 451.659 64.5<233.223 412.017>
VStem: 48.3857 64.5391<152.564 331.351> 290.351 64.5391<211.39 272.5> 532.315 64.5391<151.485 331.351>
CounterMasks: 1 fc
LayerCount: 2
Fore
SplineSet
322.620117188 516.159179688 m 0
 473.966796875 516.159179688 596.854492188 393.311523438 596.854492188 241.96484375 c 0
 596.815429688 157.81640625 558.98828125 82.560546875 499.211914062 32.23046875 c 1
 648 32.23046875 l 1
 648 -32.26953125 l 1
 322.620117188 -32.26953125 l 1
 171.2734375 -32.26953125 48.3857421875 90.6171875 48.3857421875 241.96484375 c 0
 48.3857421875 393.311523438 171.2734375 516.159179688 322.620117188 516.159179688 c 0
322.620117188 451.659179688 m 0
 206.876953125 451.659179688 112.924804688 357.66796875 112.924804688 241.96484375 c 0
 112.924804688 126.221679688 206.876953125 32.23046875 322.620117188 32.23046875 c 0
 438.36328125 32.23046875 532.315429688 126.221679688 532.315429688 241.96484375 c 0
 532.315429688 357.66796875 438.36328125 451.659179688 322.620117188 451.659179688 c 0
290.350585938 241.96484375 m 0
 290.350585938 224.142578125 304.797851562 209.694335938 322.620117188 209.694335938 c 0
 340.442382812 209.694335938 354.889648438 224.142578125 354.889648438 241.96484375 c 0
 354.889648438 259.747070312 340.442382812 274.1953125 322.620117188 274.1953125 c 0
 304.797851562 274.1953125 290.350585938 259.747070312 290.350585938 241.96484375 c 0
EndSplineSet
Validated: 9
EndChar

StartChar: e.lig1.init
Encoding: 193 -1 193
Width: 0
HStem: -32.2695 64.5<233.223 412.017> 449.119 67.04<228.418 290.35 354.89 416.817>
VStem: 48.3848 64.54<152.564 331.557> 290.35 64.54<211.39 449.079> 532.314 64.54<152.564 331.557>
CounterMasks: 1 38
LayerCount: 2
Fore
SplineSet
322.620117188 516.159179688 m 0
 473.966796875 516.159179688 596.854492188 393.311523438 596.854492188 241.96484375 c 0
 596.854492188 90.6171875 473.966796875 -32.26953125 322.620117188 -32.26953125 c 0
 171.272460938 -32.26953125 48.384765625 90.6171875 48.384765625 241.96484375 c 0
 48.384765625 393.311523438 171.272460938 516.159179688 322.620117188 516.159179688 c 0
290.349609375 449.119140625 m 1
 190.046875 433.48046875 112.924804688 346.633789062 112.924804688 241.96484375 c 0
 112.924804688 126.221679688 206.876953125 32.23046875 322.620117188 32.23046875 c 0
 438.362304688 32.23046875 532.314453125 126.221679688 532.314453125 241.96484375 c 0
 532.275390625 346.633789062 455.192382812 433.48046875 354.889648438 449.079101562 c 1
 354.889648438 241.96484375 l 1
 354.889648438 224.142578125 340.44140625 209.694335938 322.620117188 209.694335938 c 0
 304.797851562 209.694335938 290.349609375 224.142578125 290.349609375 241.96484375 c 2
 290.349609375 449.119140625 l 1
EndSplineSet
Validated: 1
EndChar

StartChar: e.lig2.init
Encoding: 194 -1 194
Width: 644
Flags: W
HStem: -32.2705 64.501<354.89 648>
VStem: 290.351 64.5391<32.2305 272.5>
LayerCount: 2
Fore
SplineSet
322.620117188 274.1953125 m 0
 340.442382812 274.1953125 354.889648438 259.747070312 354.889648438 241.96484375 c 2
 354.889648438 32.23046875 l 1
 648 32.23046875 l 1
 648 -32.2705078125 l 1
 322.620117188 -32.2705078125 l 1
 322.620117188 0 l 1
 290.350585938 0 l 1
 290.350585938 241.96484375 l 1
 290.350585938 259.747070312 304.797851562 274.1953125 322.620117188 274.1953125 c 0
EndSplineSet
Validated: 1
EndChar

StartChar: e.lig3.init
Encoding: 195 -1 195
Width: 644
Flags: W
HStem: -32.2695 64.5<306.471 338.484 499.212 648> 425.943 20G<371.005 417.187> 451.659 64.5<306.754 338.792>
VStem: 48.3857 64.5391<152.774 331.14> 532.315 64.5391<151.563 331.281>
LayerCount: 2
Fore
SplineSet
322.620117188 516.159179688 m 0
 473.966796875 516.159179688 596.854492188 393.311523438 596.854492188 241.96484375 c 0
 596.815429688 157.81640625 558.98828125 82.560546875 499.211914062 32.23046875 c 1
 648 32.23046875 l 1
 648 -32.26953125 l 1
 322.620117188 -32.26953125 l 1
 171.2734375 -32.26953125 48.3857421875 90.6171875 48.3857421875 241.96484375 c 0
 48.3857421875 393.311523438 171.2734375 516.159179688 322.620117188 516.159179688 c 0
322.620117188 451.659179688 m 0
 317.142578125 451.420898438 311.82421875 451.024414062 306.504882812 450.389648438 c 2
 306.504882812 450.389648438 306.385742188 33.5 306.504882812 33.5 c 0
 311.82421875 32.865234375 317.142578125 32.46875 322.620117188 32.23046875 c 0
 328.09765625 32.26953125 333.376953125 32.5078125 338.735351562 32.9443359375 c 2
 338.735351562 32.9443359375 338.93359375 450.9453125 338.735351562 450.9453125 c 0
 333.376953125 451.381835938 328.09765625 451.620117188 322.620117188 451.659179688 c 0
371.004882812 445.943359375 m 1
 371.004882812 445.943359375 371.124023438 37.9462890625 371.004882812 37.9462890625 c 1
 463.369140625 59.8564453125 532.315429688 142.932617188 532.315429688 241.96484375 c 0
 532.315429688 340.997070312 463.369140625 424.033203125 371.004882812 445.943359375 c 1
274.235351562 445.348632812 m 1
 182.069335938 423.477539062 113.243164062 340.6796875 112.924804688 241.96484375 c 0
 113.243164062 143.209960938 182.069335938 60.412109375 274.235351562 38.5810546875 c 1
 274.235351562 445.348632812 l 1
EndSplineSet
Validated: 33
EndChar

StartChar: i.lig1.init
Encoding: 196 -1 196
Width: 0
Flags: W
HStem: -32.2695 64.5<233.223 412.017> 345.606 20G<140.67 153.272> 451.659 64.5<232.361 412.017>
VStem: 48.3848 64.54<152.564 332.21> 532.314 64.54<152.564 331.351>
LayerCount: 2
Fore
SplineSet
322.620117188 516.159179688 m 0
 473.966796875 516.159179688 596.854492188 393.311523438 596.854492188 241.96484375 c 0
 596.854492188 90.6171875 473.966796875 -32.26953125 322.620117188 -32.26953125 c 0
 171.272460938 -32.26953125 48.384765625 90.6171875 48.384765625 241.96484375 c 0
 48.384765625 393.311523438 171.272460938 516.159179688 322.620117188 516.159179688 c 0
322.620117188 451.659179688 m 0
 276.45703125 451.620117188 233.58984375 436.576171875 198.938476562 411.252929688 c 1
 345.443359375 264.748046875 l 1
 351.27734375 258.913085938 354.889648438 250.85546875 354.889648438 241.96484375 c 0
 354.889648438 224.142578125 340.44140625 209.694335938 322.620117188 209.694335938 c 0
 313.728515625 209.694335938 305.670898438 213.346679688 299.8359375 219.181640625 c 1
 299.796875 219.141601562 l 1
 299.796875 219.141601562 153.212890625 365.447265625 153.33203125 365.606445312 c 1
 128.0078125 330.995117188 112.924804688 288.086914062 112.924804688 241.96484375 c 0
 112.924804688 126.221679688 206.876953125 32.23046875 322.620117188 32.23046875 c 0
 438.362304688 32.23046875 532.314453125 126.221679688 532.314453125 241.96484375 c 0
 532.314453125 357.66796875 438.362304688 451.659179688 322.620117188 451.659179688 c 0
EndSplineSet
Validated: 33
EndChar

StartChar: i.lig2.init
Encoding: 197 -1 197
Width: 644
Flags: W
HStem: -32.2705 64.501<322.62 648>
LayerCount: 2
Fore
SplineSet
322.620117188 32.23046875 m 1
 648 32.23046875 l 1
 648 -32.2705078125 l 1
 322.620117188 -32.2705078125 l 1
 322.620117188 32.23046875 l 1
322.620117188 274.1953125 m 0
 331.510742188 274.1953125 339.608398438 270.583007812 345.443359375 264.748046875 c 2
 516.517578125 93.673828125 l 1
 470.911132812 48.02734375 l 1
 299.796875 219.141601562 l 1
 299.796875 219.141601562 299.875976562 219.181640625 299.836914062 219.181640625 c 1
 294.001953125 225.015625 290.389648438 233.073242188 290.350585938 241.96484375 c 0
 290.350585938 259.747070312 304.797851562 274.1953125 322.620117188 274.1953125 c 0
EndSplineSet
Validated: 1
EndChar

StartChar: i.lig3.init
Encoding: 198 -1 198
Width: 644
Flags: W
HStem: -32.2695 64.5<234.707 415.683 499.212 648> 451.659 64.5<233.109 412.017>
VStem: 48.3857 64.5391<152.564 331.462> 532.315 64.5391<150.398 331.351>
LayerCount: 2
Fore
SplineSet
322.620117188 516.159179688 m 0
 473.966796875 516.159179688 596.854492188 393.311523438 596.854492188 241.96484375 c 0
 596.815429688 157.81640625 558.98828125 82.560546875 499.211914062 32.23046875 c 1
 648 32.23046875 l 1
 648 -32.26953125 l 1
 322.620117188 -32.26953125 l 1
 171.2734375 -32.26953125 48.3857421875 90.6171875 48.3857421875 241.96484375 c 0
 48.3857421875 393.311523438 171.2734375 516.159179688 322.620117188 516.159179688 c 0
322.620117188 451.659179688 m 0
 282.491210938 451.420898438 244.823242188 439.751953125 213.029296875 419.985351562 c 1
 213.029296875 419.985351562 501.236328125 132.135742188 501.077148438 131.9375 c 1
 520.803710938 163.849609375 532.315429688 201.716796875 532.315429688 241.96484375 c 0
 532.315429688 357.66796875 438.36328125 451.659179688 322.620117188 451.659179688 c 0
186.633789062 400.734375 m 2
 178.41796875 393.668945312 170.875976562 386.166992188 163.810546875 377.911132812 c 2
 163.810546875 377.911132812 458.844726562 82.599609375 459.002929688 82.7587890625 c 0
 467.219726562 89.82421875 474.760742188 97.3251953125 481.826171875 105.58203125 c 2
 186.633789062 400.734375 l 2
144.599609375 351.515625 m 1
 124.79296875 319.76171875 113.163085938 282.053710938 112.924804688 241.96484375 c 0
 112.924804688 126.221679688 206.876953125 32.23046875 322.620117188 32.23046875 c 0
 362.868164062 32.26953125 400.734375 43.7802734375 432.647460938 63.4677734375 c 1
 144.599609375 351.515625 l 1
EndSplineSet
Validated: 33
EndChar

StartChar: o.lig1.init
Encoding: 199 -1 199
Width: 0
Flags: W
HStem: -32.2695 64.5<232.361 412.017> 451.659 64.5<233.223 412.017>
VStem: 48.3848 64.54<151.706 331.351> 532.314 64.54<152.564 331.351>
LayerCount: 2
Fore
SplineSet
322.620117188 516.159179688 m 0
 473.966796875 516.159179688 596.854492188 393.311523438 596.854492188 241.96484375 c 0
 596.854492188 90.6171875 473.966796875 -32.26953125 322.620117188 -32.26953125 c 0
 171.272460938 -32.26953125 48.384765625 90.6171875 48.384765625 241.96484375 c 0
 48.384765625 393.311523438 171.272460938 516.159179688 322.620117188 516.159179688 c 0
322.620117188 451.659179688 m 0
 206.876953125 451.659179688 112.924804688 357.66796875 112.924804688 241.96484375 c 0
 112.924804688 195.802734375 128.0078125 152.934570312 153.33203125 118.283203125 c 1
 299.796875 264.748046875 l 1
 299.796875 264.748046875 299.875976562 264.708007812 299.8359375 264.708007812 c 1
 305.670898438 270.583007812 313.728515625 274.1953125 322.620117188 274.1953125 c 0
 340.44140625 274.1953125 354.889648438 259.747070312 354.889648438 241.96484375 c 0
 354.849609375 233.073242188 351.23828125 225.015625 345.403320312 219.181640625 c 1
 345.443359375 219.141601562 l 1
 345.443359375 219.141601562 199.13671875 72.5576171875 198.938476562 72.6767578125 c 1
 233.58984375 47.3134765625 276.45703125 32.26953125 322.620117188 32.23046875 c 0
 438.362304688 32.23046875 532.314453125 126.221679688 532.314453125 241.96484375 c 0
 532.314453125 357.66796875 438.362304688 451.659179688 322.620117188 451.659179688 c 0
EndSplineSet
Validated: 37
EndChar

StartChar: o.lig2.init
Encoding: 200 -1 200
Width: 644
Flags: W
HStem: -32.2705 64.501<322.62 648> 415.862 20G<450.911 490.911>
LayerCount: 2
Fore
SplineSet
322.620117188 32.23046875 m 1
 648 32.23046875 l 1
 648 -32.2705078125 l 1
 322.620117188 -32.2705078125 l 1
 322.620117188 32.23046875 l 1
470.911132812 435.862304688 m 1
 516.517578125 390.254882812 l 1
 345.443359375 219.141601562 l 1
 345.443359375 219.141601562 345.364257812 219.181640625 345.403320312 219.181640625 c 1
 339.568359375 213.346679688 331.510742188 209.694335938 322.620117188 209.694335938 c 0
 304.797851562 209.694335938 290.350585938 224.142578125 290.350585938 241.96484375 c 0
 290.389648438 250.85546875 294.001953125 258.913085938 299.836914062 264.708007812 c 1
 299.796875 264.748046875 l 1
 470.911132812 435.862304688 l 1
EndSplineSet
Validated: 5
EndChar

StartChar: o.lig3.init
Encoding: 201 -1 201
Width: 644
Flags: W
HStem: -32.2695 64.5<234.707 413.502 499.212 648> 451.659 64.5<233.223 413.108>
VStem: 48.3857 64.5391<152.435 331.351> 532.315 64.5391<151.485 332.444>
LayerCount: 2
Fore
SplineSet
322.620117188 516.159179688 m 0
 473.966796875 516.159179688 596.854492188 393.311523438 596.854492188 241.96484375 c 0
 596.815429688 157.81640625 558.98828125 82.560546875 499.211914062 32.23046875 c 1
 648 32.23046875 l 1
 648 -32.26953125 l 1
 322.620117188 -32.26953125 l 1
 171.2734375 -32.26953125 48.3857421875 90.6171875 48.3857421875 241.96484375 c 0
 48.3857421875 393.311523438 171.2734375 516.159179688 322.620117188 516.159179688 c 0
322.620117188 451.659179688 m 0
 206.876953125 451.659179688 112.924804688 357.66796875 112.924804688 241.96484375 c 0
 113.163085938 201.8359375 124.79296875 164.127929688 144.599609375 132.333984375 c 1
 144.599609375 132.333984375 432.44921875 420.541015625 432.647460938 420.421875 c 1
 400.734375 440.109375 362.868164062 451.620117188 322.620117188 451.659179688 c 0
459.002929688 401.130859375 m 2
 459.002929688 401.130859375 163.65234375 106.137695312 163.810546875 105.978515625 c 0
 170.875976562 97.72265625 178.41796875 90.220703125 186.633789062 83.1552734375 c 2
 186.633789062 83.1552734375 481.985351562 378.149414062 481.826171875 378.307617188 c 0
 474.760742188 386.564453125 467.219726562 394.065429688 459.002929688 401.130859375 c 2
501.077148438 351.9921875 m 1
 501.077148438 351.9921875 213.267578125 63.78515625 213.029296875 63.904296875 c 1
 244.823242188 44.1376953125 282.491210938 32.46875 322.620117188 32.23046875 c 0
 438.36328125 32.23046875 532.315429688 126.221679688 532.315429688 241.96484375 c 0
 532.315429688 282.212890625 520.803710938 320.040039062 501.077148438 351.9921875 c 1
EndSplineSet
Validated: 33
EndChar

StartChar: u.lig1.init
Encoding: 202 -1 202
Width: 0
Flags: W
HStem: -32.2695 64.5<232.361 412.017> 451.659 64.5<232.361 412.017>
VStem: 48.3848 64.54<151.706 332.21> 532.314 64.54<152.564 331.351>
LayerCount: 2
Fore
SplineSet
322.620117188 516.159179688 m 0
 473.966796875 516.159179688 596.854492188 393.311523438 596.854492188 241.96484375 c 0
 596.854492188 90.6171875 473.966796875 -32.26953125 322.620117188 -32.26953125 c 0
 171.272460938 -32.26953125 48.384765625 90.6171875 48.384765625 241.96484375 c 0
 48.384765625 393.311523438 171.272460938 516.159179688 322.620117188 516.159179688 c 0
322.620117188 451.659179688 m 0
 276.45703125 451.620117188 233.58984375 436.576171875 198.938476562 411.252929688 c 1
 345.443359375 264.748046875 l 1
 351.27734375 258.913085938 354.889648438 250.85546875 354.889648438 241.96484375 c 0
 354.849609375 233.073242188 351.23828125 225.015625 345.403320312 219.181640625 c 1
 345.443359375 219.141601562 l 1
 345.443359375 219.141601562 199.13671875 72.5576171875 198.938476562 72.6767578125 c 1
 233.58984375 47.3134765625 276.45703125 32.26953125 322.620117188 32.23046875 c 0
 438.362304688 32.23046875 532.314453125 126.221679688 532.314453125 241.96484375 c 0
 532.314453125 357.66796875 438.362304688 451.659179688 322.620117188 451.659179688 c 0
153.33203125 365.606445312 m 1
 128.0078125 330.995117188 112.924804688 288.086914062 112.924804688 241.96484375 c 0
 112.924804688 195.802734375 128.0078125 152.934570312 153.33203125 118.283203125 c 1
 277.013671875 241.96484375 l 1
 153.33203125 365.606445312 l 1
EndSplineSet
Validated: 33
EndChar

StartChar: u.lig2.init
Encoding: 203 -1 203
Width: 644
Flags: W
HStem: -32.2705 64.501<322.62 648> 415.862 20G<450.911 490.911>
LayerCount: 2
Fore
SplineSet
322.620117188 32.23046875 m 1
 648 32.23046875 l 1
 648 -32.2705078125 l 1
 322.620117188 -32.2705078125 l 1
 322.620117188 32.23046875 l 1
470.911132812 435.862304688 m 1
 516.517578125 390.254882812 l 1
 368.2265625 241.96484375 l 1
 516.517578125 93.673828125 l 1
 470.911132812 48.02734375 l 1
 299.796875 219.141601562 l 1
 299.796875 219.141601562 299.875976562 219.181640625 299.836914062 219.181640625 c 1
 294.001953125 225.015625 290.389648438 233.073242188 290.350585938 241.96484375 c 0
 290.389648438 250.85546875 294.001953125 258.913085938 299.836914062 264.708007812 c 1
 299.796875 264.748046875 l 1
 470.911132812 435.862304688 l 1
EndSplineSet
Validated: 1
EndChar

StartChar: u.lig3.init
Encoding: 204 -1 204
Width: 644
Flags: W
HStem: -32.2695 64.5<234.707 415.669 499.212 648> 451.659 64.5<233.109 413.108>
VStem: 48.3857 64.5391<152.435 331.462> 532.315 64.5391<150.386 332.444>
LayerCount: 2
Fore
SplineSet
322.620117188 516.159179688 m 0
 473.966796875 516.159179688 596.854492188 393.311523438 596.854492188 241.96484375 c 0
 596.815429688 157.81640625 558.98828125 82.560546875 499.211914062 32.23046875 c 1
 648 32.23046875 l 1
 648 -32.26953125 l 1
 322.620117188 -32.26953125 l 1
 171.2734375 -32.26953125 48.3857421875 90.6171875 48.3857421875 241.96484375 c 0
 48.3857421875 393.311523438 171.2734375 516.159179688 322.620117188 516.159179688 c 0
322.620117188 451.659179688 m 0
 282.491210938 451.420898438 244.823242188 439.751953125 213.029296875 419.985351562 c 1
 322.620117188 310.39453125 l 1
 322.620117188 310.39453125 432.44921875 420.541015625 432.647460938 420.421875 c 1
 400.734375 440.109375 362.868164062 451.620117188 322.620117188 451.659179688 c 0
459.002929688 401.130859375 m 2
 322.620117188 264.748046875 l 1
 322.620117188 264.748046875 186.79296875 400.892578125 186.633789062 400.734375 c 0
 178.41796875 393.668945312 170.875976562 386.166992188 163.810546875 377.911132812 c 2
 299.796875 241.96484375 l 1
 299.796875 241.96484375 163.65234375 106.137695312 163.810546875 105.978515625 c 0
 170.875976562 97.72265625 178.41796875 90.220703125 186.633789062 83.1552734375 c 2
 322.620117188 219.141601562 l 1
 322.620117188 219.141601562 458.844726562 82.599609375 459.002929688 82.7587890625 c 0
 467.219726562 89.82421875 474.760742188 97.3251953125 481.826171875 105.58203125 c 2
 345.443359375 241.96484375 l 1
 345.443359375 241.96484375 481.985351562 378.149414062 481.826171875 378.307617188 c 0
 474.760742188 386.564453125 467.219726562 394.065429688 459.002929688 401.130859375 c 2
501.077148438 351.9921875 m 1
 391.049804688 241.96484375 l 1
 391.049804688 241.96484375 501.236328125 132.135742188 501.077148438 131.897460938 c 1
 520.803710938 163.849609375 532.315429688 201.676757812 532.315429688 241.96484375 c 0
 532.315429688 282.212890625 520.803710938 320.040039062 501.077148438 351.9921875 c 1
144.599609375 351.515625 m 1
 124.79296875 319.76171875 113.163085938 282.053710938 112.924804688 241.96484375 c 0
 113.163085938 201.8359375 124.79296875 164.127929688 144.599609375 132.333984375 c 1
 254.190429688 241.96484375 l 1
 144.599609375 351.515625 l 1
322.620117188 173.53515625 m 5
 322.620117188 173.53515625 213.267578125 63.78515625 213.029296875 63.904296875 c 5
 244.823242188 44.1376953125 282.491210938 32.46875 322.620117188 32.23046875 c 4
 362.868164062 32.26953125 400.6953125 43.7802734375 432.647460938 63.4677734375 c 5
 322.620117188 173.53515625 l 5
EndSplineSet
Validated: 33
EndChar

StartChar: y.lig1.init
Encoding: 205 -1 205
Width: 0
Flags: W
HStem: -32.2695 64.5<233.021 412.017> 209.694 64.501<322.62 353.194> 451.659 64.5<233.021 412.017>
VStem: 532.314 64.54<152.564 331.351>
CounterMasks: 1 e0
LayerCount: 2
Fore
SplineSet
322.620117188 516.159179688 m 0
 473.966796875 516.159179688 596.854492188 393.311523438 596.854492188 241.96484375 c 0
 596.854492188 90.6171875 473.966796875 -32.26953125 322.620117188 -32.26953125 c 0
 171.272460938 -32.26953125 48.384765625 90.6171875 48.384765625 241.96484375 c 0
 48.384765625 393.311523438 171.272460938 516.159179688 322.620117188 516.159179688 c 0
322.620117188 451.659179688 m 0
 217.951171875 451.620117188 131.064453125 374.537109375 115.46484375 274.1953125 c 1
 322.620117188 274.1953125 l 1
 340.44140625 274.1953125 354.889648438 259.747070312 354.889648438 241.96484375 c 0
 354.889648438 224.142578125 340.44140625 209.694335938 322.620117188 209.694335938 c 2
 322.620117188 209.694335938 115.46484375 209.49609375 115.46484375 209.694335938 c 1
 131.064453125 109.352539062 217.951171875 32.26953125 322.620117188 32.23046875 c 0
 438.362304688 32.23046875 532.314453125 126.221679688 532.314453125 241.96484375 c 0
 532.314453125 357.66796875 438.362304688 451.659179688 322.620117188 451.659179688 c 0
EndSplineSet
Validated: 33
EndChar

StartChar: y.lig2.init
Encoding: 206 -1 206
Width: 644
Flags: W
HStem: -32.2705 64.501<322.62 648> 209.694 64.501<292.046 322.62>
LayerCount: 2
Fore
SplineSet
322.620117188 32.23046875 m 1
 648 32.23046875 l 1
 648 -32.2705078125 l 1
 322.620117188 -32.2705078125 l 1
 322.620117188 32.23046875 l 1
322.620117188 274.1953125 m 2
 304.797851562 274.1953125 290.350585938 259.747070312 290.350585938 241.96484375 c 0
 290.350585938 224.142578125 304.797851562 209.694335938 322.620117188 209.694335938 c 1
 564.584960938 209.694335938 l 1
 564.584960938 274.1953125 l 1
 322.620117188 274.1953125 l 2
EndSplineSet
Validated: 9
EndChar

StartChar: y.lig3.init
Encoding: 207 -1 207
Width: 644
Flags: W
HStem: -32.2695 64.5<234.707 413.354 499.212 648> 451.659 64.5<233.434 411.943>
VStem: 48.3857 64.5391<190.056 293.851> 532.315 64.5391<225.764 257.827>
LayerCount: 2
Fore
SplineSet
322.620117188 516.159179688 m 0
 473.966796875 516.159179688 596.854492188 393.311523438 596.854492188 241.96484375 c 0
 596.815429688 157.81640625 558.98828125 82.560546875 499.211914062 32.23046875 c 1
 648 32.23046875 l 1
 648 -32.26953125 l 1
 322.620117188 -32.26953125 l 1
 171.2734375 -32.26953125 48.3857421875 90.6171875 48.3857421875 241.96484375 c 0
 48.3857421875 393.311523438 171.2734375 516.159179688 322.620117188 516.159179688 c 0
322.620117188 451.659179688 m 0
 223.865234375 451.341796875 141.106445312 382.515625 119.236328125 290.349609375 c 1
 119.236328125 290.349609375 526.638671875 290.46875 526.638671875 290.349609375 c 1
 504.728515625 382.713867188 421.65234375 451.620117188 322.620117188 451.659179688 c 0
114.1953125 258.080078125 m 2
 113.560546875 252.721679688 113.124023438 247.40234375 112.924804688 241.96484375 c 0
 113.124023438 236.487304688 113.560546875 231.16796875 114.1953125 225.809570312 c 2
 114.1953125 225.809570312 531.600585938 225.651367188 531.600585938 225.809570312 c 0
 532.037109375 231.208007812 532.275390625 236.447265625 532.315429688 241.96484375 c 0
 532.275390625 247.442382812 532.037109375 252.681640625 531.600585938 258.080078125 c 2
 114.1953125 258.080078125 l 2
119.236328125 193.540039062 m 1
 141.106445312 101.374023438 223.865234375 32.5478515625 322.620117188 32.23046875 c 0
 421.65234375 32.26953125 504.728515625 101.17578125 526.638671875 193.540039062 c 1
 119.236328125 193.540039062 l 1
EndSplineSet
Validated: 33
EndChar

StartChar: a.lig1.isol
Encoding: 208 -1 208
Width: 0
Flags: W
HStem: -32.2695 64.5<233.223 412.017> 451.659 64.5<233.223 412.017>
VStem: 48.3848 64.54<152.564 331.351> 532.314 64.54<152.564 331.351>
LayerCount: 2
Fore
SplineSet
322.620117188 516.159179688 m 0
 473.966796875 516.159179688 596.854492188 393.311523438 596.854492188 241.96484375 c 0
 596.854492188 90.6171875 473.966796875 -32.26953125 322.620117188 -32.26953125 c 0
 171.272460938 -32.26953125 48.384765625 90.6171875 48.384765625 241.96484375 c 0
 48.384765625 393.311523438 171.272460938 516.159179688 322.620117188 516.159179688 c 0
322.620117188 451.659179688 m 0
 206.876953125 451.659179688 112.924804688 357.66796875 112.924804688 241.96484375 c 0
 112.924804688 126.221679688 206.876953125 32.23046875 322.620117188 32.23046875 c 0
 438.362304688 32.23046875 532.314453125 126.221679688 532.314453125 241.96484375 c 0
 532.314453125 357.66796875 438.362304688 451.659179688 322.620117188 451.659179688 c 0
EndSplineSet
Validated: 1
EndChar

StartChar: a.lig3.isol
Encoding: 210 -1 210
Width: 644
Flags: W
HStem: -32.2695 64.5<233.223 412.017> 209.694 64.501<292.045 353.194> 451.659 64.5<233.223 412.017>
VStem: 48.3848 64.54<152.564 331.351> 290.35 64.54<211.39 272.5> 532.314 64.54<152.564 331.351>
CounterMasks: 1 fc
LayerCount: 2
Fore
SplineSet
322.620117188 516.159179688 m 0
 473.966796875 516.159179688 596.854492188 393.311523438 596.854492188 241.96484375 c 0
 596.854492188 90.6171875 473.966796875 -32.26953125 322.620117188 -32.26953125 c 0
 171.272460938 -32.26953125 48.384765625 90.6171875 48.384765625 241.96484375 c 0
 48.384765625 393.311523438 171.272460938 516.159179688 322.620117188 516.159179688 c 0
322.620117188 451.659179688 m 0
 206.876953125 451.659179688 112.924804688 357.66796875 112.924804688 241.96484375 c 0
 112.924804688 126.221679688 206.876953125 32.23046875 322.620117188 32.23046875 c 0
 438.362304688 32.23046875 532.314453125 126.221679688 532.314453125 241.96484375 c 0
 532.314453125 357.66796875 438.362304688 451.659179688 322.620117188 451.659179688 c 0
290.349609375 241.96484375 m 0
 290.349609375 224.142578125 304.797851562 209.694335938 322.620117188 209.694335938 c 0
 340.44140625 209.694335938 354.889648438 224.142578125 354.889648438 241.96484375 c 0
 354.889648438 259.747070312 340.44140625 274.1953125 322.620117188 274.1953125 c 0
 304.797851562 274.1953125 290.349609375 259.747070312 290.349609375 241.96484375 c 0
EndSplineSet
Validated: 9
EndChar

StartChar: e.lig1.isol
Encoding: 211 -1 211
Width: 0
Flags: W
HStem: -32.2695 64.5<233.223 412.017> 449.119 67.04<228.418 290.35 354.89 416.817>
VStem: 48.3848 64.54<152.564 331.557> 290.35 64.54<211.39 449.079> 532.314 64.54<152.564 331.557>
CounterMasks: 1 38
LayerCount: 2
Fore
SplineSet
322.620117188 516.159179688 m 0
 473.966796875 516.159179688 596.854492188 393.311523438 596.854492188 241.96484375 c 0
 596.854492188 90.6171875 473.966796875 -32.26953125 322.620117188 -32.26953125 c 0
 171.272460938 -32.26953125 48.384765625 90.6171875 48.384765625 241.96484375 c 0
 48.384765625 393.311523438 171.272460938 516.159179688 322.620117188 516.159179688 c 0
290.349609375 449.119140625 m 1
 190.046875 433.48046875 112.924804688 346.633789062 112.924804688 241.96484375 c 0
 112.924804688 126.221679688 206.876953125 32.23046875 322.620117188 32.23046875 c 0
 438.362304688 32.23046875 532.314453125 126.221679688 532.314453125 241.96484375 c 0
 532.275390625 346.633789062 455.192382812 433.48046875 354.889648438 449.079101562 c 1
 354.889648438 241.96484375 l 1
 354.889648438 224.142578125 340.44140625 209.694335938 322.620117188 209.694335938 c 0
 304.797851562 209.694335938 290.349609375 224.142578125 290.349609375 241.96484375 c 2
 290.349609375 449.119140625 l 1
EndSplineSet
Validated: 1
EndChar

StartChar: e.lig2.isol
Encoding: 212 -1 212
Width: 644
Flags: W
HStem: 0 274.195<292.045 353.194>
VStem: 290.35 64.54<0 272.5>
LayerCount: 2
Fore
SplineSet
322.620117188 274.1953125 m 0
 340.44140625 274.1953125 354.889648438 259.747070312 354.889648438 241.96484375 c 2
 354.889648438 0 l 1
 290.349609375 0 l 1
 290.349609375 241.96484375 l 2
 290.349609375 259.747070312 304.797851562 274.1953125 322.620117188 274.1953125 c 0
EndSplineSet
Validated: 1
EndChar

StartChar: e.lig3.isol
Encoding: 213 -1 213
Width: 644
Flags: W
HStem: -32.2695 64.5<306.471 338.483> 425.943 20G<371.005 417.187> 451.659 64.5<306.754 338.792>
VStem: 48.3848 64.54<152.774 331.14> 532.314 64.54<152.641 331.281>
LayerCount: 2
Fore
SplineSet
322.620117188 516.159179688 m 0
 473.966796875 516.159179688 596.854492188 393.311523438 596.854492188 241.96484375 c 0
 596.854492188 90.6171875 473.966796875 -32.26953125 322.620117188 -32.26953125 c 0
 171.272460938 -32.26953125 48.384765625 90.6171875 48.384765625 241.96484375 c 0
 48.384765625 393.311523438 171.272460938 516.159179688 322.620117188 516.159179688 c 0
322.620117188 451.659179688 m 0
 317.142578125 451.420898438 311.823242188 451.024414062 306.504882812 450.389648438 c 2
 306.504882812 450.389648438 306.385742188 33.5 306.504882812 33.5 c 0
 311.823242188 32.865234375 317.142578125 32.46875 322.620117188 32.23046875 c 0
 328.09765625 32.26953125 333.375976562 32.5078125 338.734375 32.9443359375 c 2
 338.734375 32.9443359375 338.93359375 450.9453125 338.734375 450.9453125 c 0
 333.375976562 451.381835938 328.09765625 451.620117188 322.620117188 451.659179688 c 0
371.004882812 445.943359375 m 1
 371.004882812 445.943359375 371.124023438 37.9462890625 371.004882812 37.9462890625 c 1
 463.369140625 59.8564453125 532.314453125 142.932617188 532.314453125 241.96484375 c 0
 532.314453125 340.997070312 463.369140625 424.033203125 371.004882812 445.943359375 c 1
274.234375 445.348632812 m 1
 182.069335938 423.477539062 113.2421875 340.6796875 112.924804688 241.96484375 c 0
 113.2421875 143.209960938 182.069335938 60.412109375 274.234375 38.5810546875 c 1
 274.234375 445.348632812 l 1
EndSplineSet
Validated: 33
EndChar

StartChar: i.lig1.isol
Encoding: 214 -1 214
Width: 0
Flags: W
HStem: -32.2695 64.5<233.223 412.017> 345.606 20G<140.67 153.272> 451.659 64.5<232.361 412.017>
VStem: 48.3848 64.54<152.564 332.21> 532.314 64.54<152.564 331.351>
LayerCount: 2
Fore
SplineSet
322.620117188 516.159179688 m 0
 473.966796875 516.159179688 596.854492188 393.311523438 596.854492188 241.96484375 c 0
 596.854492188 90.6171875 473.966796875 -32.26953125 322.620117188 -32.26953125 c 0
 171.272460938 -32.26953125 48.384765625 90.6171875 48.384765625 241.96484375 c 0
 48.384765625 393.311523438 171.272460938 516.159179688 322.620117188 516.159179688 c 0
322.620117188 451.659179688 m 0
 276.45703125 451.620117188 233.58984375 436.576171875 198.938476562 411.252929688 c 1
 345.443359375 264.748046875 l 1
 351.27734375 258.913085938 354.889648438 250.85546875 354.889648438 241.96484375 c 0
 354.889648438 224.142578125 340.44140625 209.694335938 322.620117188 209.694335938 c 0
 313.728515625 209.694335938 305.670898438 213.346679688 299.8359375 219.181640625 c 1
 299.796875 219.141601562 l 1
 299.796875 219.141601562 153.212890625 365.447265625 153.33203125 365.606445312 c 1
 128.0078125 330.995117188 112.924804688 288.086914062 112.924804688 241.96484375 c 0
 112.924804688 126.221679688 206.876953125 32.23046875 322.620117188 32.23046875 c 0
 438.362304688 32.23046875 532.314453125 126.221679688 532.314453125 241.96484375 c 0
 532.314453125 357.66796875 438.362304688 451.659179688 322.620117188 451.659179688 c 0
EndSplineSet
Validated: 33
EndChar

StartChar: i.lig2.isol
Encoding: 215 -1 215
Width: 644
Flags: W
HStem: 48.0283 226.167
VStem: 290.35 226.167
LayerCount: 2
Fore
SplineSet
322.619140625 274.1953125 m 0
 331.510742188 274.1953125 339.607421875 270.583007812 345.442382812 264.748046875 c 2
 516.516601562 93.673828125 l 1
 470.91015625 48.0283203125 l 1
 299.795898438 219.141601562 l 1
 299.795898438 219.141601562 299.875976562 219.181640625 299.8359375 219.181640625 c 1
 294.000976562 225.016601562 290.389648438 233.07421875 290.349609375 241.96484375 c 0
 290.349609375 259.747070312 304.797851562 274.1953125 322.619140625 274.1953125 c 0
EndSplineSet
Validated: 1
EndChar

StartChar: i.lig3.isol
Encoding: 216 -1 216
Width: 644
Flags: W
HStem: -32.2695 64.5<233.223 413.101> 451.659 64.5<233.108 412.017>
VStem: 48.3848 64.54<152.564 331.472> 532.314 64.54<151.464 331.351>
LayerCount: 2
Fore
SplineSet
322.620117188 516.159179688 m 0
 473.966796875 516.159179688 596.854492188 393.311523438 596.854492188 241.96484375 c 0
 596.854492188 90.6171875 473.966796875 -32.26953125 322.620117188 -32.26953125 c 0
 171.272460938 -32.26953125 48.384765625 90.6171875 48.384765625 241.96484375 c 0
 48.384765625 393.311523438 171.272460938 516.159179688 322.620117188 516.159179688 c 0
322.620117188 451.659179688 m 0
 282.491210938 451.420898438 244.822265625 439.751953125 213.029296875 419.985351562 c 1
 213.029296875 419.985351562 501.235351562 132.135742188 501.077148438 131.897460938 c 1
 520.803710938 163.849609375 532.314453125 201.676757812 532.314453125 241.96484375 c 0
 532.314453125 357.66796875 438.362304688 451.659179688 322.620117188 451.659179688 c 0
186.633789062 400.734375 m 2
 178.416992188 393.668945312 170.875976562 386.166992188 163.810546875 377.911132812 c 2
 163.810546875 377.911132812 458.84375 82.599609375 459.002929688 82.7587890625 c 0
 467.21875 89.82421875 474.760742188 97.3251953125 481.826171875 105.58203125 c 2
 186.633789062 400.734375 l 2
144.599609375 351.555664062 m 1
 124.79296875 319.76171875 113.163085938 282.053710938 112.924804688 241.96484375 c 0
 112.924804688 126.221679688 206.876953125 32.23046875 322.620117188 32.23046875 c 0
 362.868164062 32.26953125 400.694335938 43.7802734375 432.647460938 63.4677734375 c 1
 144.599609375 351.555664062 l 1
EndSplineSet
Validated: 33
EndChar

StartChar: o.lig1.isol
Encoding: 217 -1 217
Width: 0
Flags: W
HStem: -32.2695 64.5<232.361 412.017> 451.659 64.5<233.223 412.017>
VStem: 48.3848 64.54<151.706 331.351> 532.314 64.54<152.564 331.351>
LayerCount: 2
Fore
SplineSet
322.620117188 516.159179688 m 0
 473.966796875 516.159179688 596.854492188 393.311523438 596.854492188 241.96484375 c 0
 596.854492188 90.6171875 473.966796875 -32.26953125 322.620117188 -32.26953125 c 0
 171.272460938 -32.26953125 48.384765625 90.6171875 48.384765625 241.96484375 c 0
 48.384765625 393.311523438 171.272460938 516.159179688 322.620117188 516.159179688 c 0
322.620117188 451.659179688 m 0
 206.876953125 451.659179688 112.924804688 357.66796875 112.924804688 241.96484375 c 0
 112.924804688 195.802734375 128.0078125 152.934570312 153.33203125 118.283203125 c 1
 299.796875 264.748046875 l 1
 299.796875 264.748046875 299.875976562 264.708007812 299.8359375 264.708007812 c 1
 305.670898438 270.583007812 313.728515625 274.1953125 322.620117188 274.1953125 c 0
 340.44140625 274.1953125 354.889648438 259.747070312 354.889648438 241.96484375 c 0
 354.849609375 233.073242188 351.23828125 225.015625 345.403320312 219.181640625 c 1
 345.443359375 219.141601562 l 1
 345.443359375 219.141601562 199.13671875 72.5576171875 198.938476562 72.6767578125 c 1
 233.58984375 47.3134765625 276.45703125 32.26953125 322.620117188 32.23046875 c 0
 438.362304688 32.23046875 532.314453125 126.221679688 532.314453125 241.96484375 c 0
 532.314453125 357.66796875 438.362304688 451.659179688 322.620117188 451.659179688 c 0
EndSplineSet
Validated: 37
EndChar

StartChar: o.lig2.isol
Encoding: 218 -1 218
Width: 644
Flags: W
HStem: 209.695 226.167
VStem: 290.35 226.167
LayerCount: 2
Fore
SplineSet
470.91015625 435.862304688 m 1
 516.516601562 390.255859375 l 1
 345.442382812 219.141601562 l 1
 345.442382812 219.141601562 345.36328125 219.181640625 345.403320312 219.181640625 c 1
 339.568359375 213.346679688 331.510742188 209.6953125 322.619140625 209.6953125 c 0
 304.797851562 209.6953125 290.349609375 224.142578125 290.349609375 241.96484375 c 0
 290.389648438 250.856445312 294.000976562 258.913085938 299.8359375 264.708984375 c 1
 299.795898438 264.748046875 l 1
 470.91015625 435.862304688 l 1
EndSplineSet
Validated: 5
EndChar

StartChar: o.lig3.isol
Encoding: 219 -1 219
Width: 644
Flags: W
HStem: -32.2695 64.5<233.108 412.017> 451.659 64.5<233.223 413.108>
VStem: 48.3848 64.54<152.435 331.351> 532.314 64.54<152.564 332.444>
LayerCount: 2
Fore
SplineSet
322.620117188 516.159179688 m 0
 473.966796875 516.159179688 596.854492188 393.311523438 596.854492188 241.96484375 c 0
 596.854492188 90.6171875 473.966796875 -32.26953125 322.620117188 -32.26953125 c 0
 171.272460938 -32.26953125 48.384765625 90.6171875 48.384765625 241.96484375 c 0
 48.384765625 393.311523438 171.272460938 516.159179688 322.620117188 516.159179688 c 0
322.620117188 451.659179688 m 0
 206.876953125 451.659179688 112.924804688 357.66796875 112.924804688 241.96484375 c 0
 113.163085938 201.8359375 124.79296875 164.127929688 144.599609375 132.333984375 c 1
 144.599609375 132.333984375 432.448242188 420.541015625 432.647460938 420.421875 c 1
 400.734375 440.109375 362.868164062 451.620117188 322.620117188 451.659179688 c 0
459.002929688 401.130859375 m 2
 459.002929688 401.130859375 163.651367188 106.137695312 163.810546875 105.978515625 c 0
 170.875976562 97.72265625 178.416992188 90.220703125 186.633789062 83.1552734375 c 2
 186.633789062 83.1552734375 481.984375 378.149414062 481.826171875 378.307617188 c 0
 474.760742188 386.564453125 467.21875 394.065429688 459.002929688 401.130859375 c 2
501.077148438 351.9921875 m 1
 501.077148438 351.9921875 213.267578125 63.78515625 213.029296875 63.904296875 c 1
 244.822265625 44.1376953125 282.491210938 32.46875 322.620117188 32.23046875 c 0
 438.362304688 32.23046875 532.314453125 126.221679688 532.314453125 241.96484375 c 0
 532.314453125 282.212890625 520.803710938 320.040039062 501.077148438 351.9921875 c 1
EndSplineSet
Validated: 33
EndChar

StartChar: u.lig1.isol
Encoding: 220 -1 220
Width: 0
Flags: W
HStem: -32.2695 64.5<232.361 412.017> 451.659 64.5<232.361 412.017>
VStem: 48.3848 64.54<151.706 332.21> 532.314 64.54<152.564 331.351>
LayerCount: 2
Fore
SplineSet
322.620117188 516.159179688 m 0
 473.966796875 516.159179688 596.854492188 393.311523438 596.854492188 241.96484375 c 0
 596.854492188 90.6171875 473.966796875 -32.26953125 322.620117188 -32.26953125 c 0
 171.272460938 -32.26953125 48.384765625 90.6171875 48.384765625 241.96484375 c 0
 48.384765625 393.311523438 171.272460938 516.159179688 322.620117188 516.159179688 c 0
322.620117188 451.659179688 m 0
 276.45703125 451.620117188 233.58984375 436.576171875 198.938476562 411.252929688 c 1
 345.443359375 264.748046875 l 1
 351.27734375 258.913085938 354.889648438 250.85546875 354.889648438 241.96484375 c 0
 354.849609375 233.073242188 351.23828125 225.015625 345.403320312 219.181640625 c 1
 345.443359375 219.141601562 l 1
 345.443359375 219.141601562 199.13671875 72.5576171875 198.938476562 72.6767578125 c 1
 233.58984375 47.3134765625 276.45703125 32.26953125 322.620117188 32.23046875 c 0
 438.362304688 32.23046875 532.314453125 126.221679688 532.314453125 241.96484375 c 0
 532.314453125 357.66796875 438.362304688 451.659179688 322.620117188 451.659179688 c 0
153.33203125 365.606445312 m 1
 128.0078125 330.995117188 112.924804688 288.086914062 112.924804688 241.96484375 c 0
 112.924804688 195.802734375 128.0078125 152.934570312 153.33203125 118.283203125 c 1
 277.013671875 241.96484375 l 1
 153.33203125 365.606445312 l 1
EndSplineSet
Validated: 33
EndChar

